URWBookmanL-Ligh.ufo
<glyph name="exclam" format="1">
  <advance width="300"/>
  <unicode hex="0021"/>
  <outline>
    <contour>
      <point x="144" y="116" type="curve" smooth="yes"/>
      <point x="179" y="116"/>
      <point x="208" y="87"/>
      <point x="208" y="52" type="curve" smooth="yes"/>
      <point x="208" y="16"/>
      <point x="179" y="-13"/>
      <point x="144" y="-13" type="curve" smooth="yes"/>
      <point x="108" y="-13"/>
      <point x="79" y="16"/>
      <point x="79" y="52" type="curve" smooth="yes"/>
      <point x="79" y="87"/>
      <point x="108" y="116"/>
    </contour>
    <contour>
      <point x="160" y="174" type="line"/>
      <point x="124" y="174" type="line"/>
      <point x="124" y="206" type="line" smooth="yes"/>
      <point x="124" y="244"/>
      <point x="117" y="329"/>
      <point x="109" y="372" type="curve" smooth="yes"/>
      <point x="87" y="503" type="line" smooth="yes"/>
      <point x="75" y="571"/>
      <point x="75" y="571"/>
      <point x="75" y="593" type="curve" smooth="yes"/>
      <point x="75" y="661"/>
      <point x="99" y="694"/>
      <point x="147" y="694" type="curve" smooth="yes"/>
      <point x="192" y="694"/>
      <point x="219" y="660"/>
      <point x="219" y="602" type="curve" smooth="yes"/>
      <point x="219" y="581"/>
      <point x="214" y="546"/>
      <point x="205" y="500" type="curve" smooth="yes"/>
      <point x="177" y="364" type="line" smooth="yes"/>
      <point x="168" y="317"/>
      <point x="160" y="243"/>
      <point x="160" y="205" type="curve" smooth="yes"/>
    </contour>
  </outline>
</glyph>
<glyph name="numbersign" format="1">
  <advance width="620"/>
  <unicode hex="0023"/>
  <outline>
    <contour>
      <point x="450" y="406" type="line"/>
      <point x="430" y="273" type="line"/>
      <point x="531" y="273" type="line"/>
      <point x="531" y="216" type="line"/>
      <point x="422" y="216" type="line"/>
      <point x="389" y="0" type="line"/>
      <point x="329" y="0" type="line"/>
      <point x="362" y="216" type="line"/>
      <point x="231" y="216" type="line"/>
      <point x="199" y="0" type="line"/>
      <point x="139" y="0" type="line"/>
      <point x="171" y="216" type="line"/>
      <point x="65" y="216" type="line"/>
      <point x="65" y="273" type="line"/>
      <point x="180" y="273" type="line"/>
      <point x="200" y="406" type="line"/>
      <point x="90" y="406" type="line"/>
      <point x="90" y="463" type="line"/>
      <point x="208" y="463" type="line"/>
      <point x="239" y="666" type="line"/>
      <point x="299" y="666" type="line"/>
      <point x="268" y="463" type="line"/>
      <point x="399" y="463" type="line"/>
      <point x="429" y="666" type="line"/>
      <point x="489" y="666" type="line"/>
      <point x="459" y="463" type="line"/>
      <point x="556" y="463" type="line"/>
      <point x="556" y="406" type="line"/>
    </contour>
    <contour>
      <point x="390" y="406" type="line"/>
      <point x="260" y="406" type="line"/>
      <point x="240" y="273" type="line"/>
      <point x="370" y="273" type="line"/>
    </contour>
  </outline>
</glyph>
<glyph name="quotesingle" format="1">
  <advance width="220"/>
  <unicode hex="0027"/>
  <outline>
    <contour>
      <point x="97" y="445" type="line"/>
      <point x="69" y="614" type="line" smooth="yes"/>
      <point x="68" y="618"/>
      <point x="67" y="634"/>
      <point x="67" y="640" type="curve" smooth="yes"/>
      <point x="67" y="673"/>
      <point x="84" y="694"/>
      <point x="111" y="694" type="curve" smooth="yes"/>
      <point x="136" y="694"/>
      <point x="153" y="675"/>
      <point x="153" y="645" type="curve" smooth="yes"/>
      <point x="153" y="638"/>
      <point x="152" y="624"/>
      <point x="150" y="616" type="curve" smooth="yes"/>
      <point x="119" y="445" type="line"/>
    </contour>
  </outline>
</glyph>
<glyph name="parenleft" format="1">
  <advance width="300"/>
  <unicode hex="0028"/>
  <outline>
    <contour>
      <point x="278" y="717" type="curve"/>
      <point x="278" y="679" type="line"/>
      <point x="196" y="650"/>
      <point x="171" y="563"/>
      <point x="171" y="306" type="curve" smooth="yes"/>
      <point x="171" y="260" type="line" smooth="yes"/>
      <point x="171" y="3"/>
      <point x="196" y="-84"/>
      <point x="278" y="-113" type="curve"/>
      <point x="278" y="-151" type="line"/>
      <point x="230" y="-143"/>
      <point x="208" y="-135"/>
      <point x="178" y="-112" type="curve" smooth="yes"/>
      <point x="99" y="-50"/>
      <point x="76" y="39"/>
      <point x="76" y="283" type="curve" smooth="yes"/>
      <point x="76" y="469"/>
      <point x="88" y="551"/>
      <point x="126" y="619" type="curve" smooth="yes"/>
      <point x="144" y="651"/>
      <point x="177" y="682"/>
      <point x="213" y="699" type="curve" smooth="yes"/>
      <point x="231" y="708"/>
      <point x="245" y="712"/>
    </contour>
  </outline>
</glyph>
<glyph name="asterisk" format="1">
  <advance width="440"/>
  <unicode hex="002A"/>
  <outline>
    <contour>
      <point x="213" y="549" type="line"/>
      <point x="186" y="619" type="line" smooth="yes"/>
      <point x="181" y="633"/>
      <point x="178" y="644"/>
      <point x="178" y="652" type="curve" smooth="yes"/>
      <point x="178" y="678"/>
      <point x="196" y="694"/>
      <point x="224" y="694" type="curve" smooth="yes"/>
      <point x="250" y="694"/>
      <point x="269" y="678"/>
      <point x="269" y="655" type="curve" smooth="yes"/>
      <point x="269" y="646"/>
      <point x="267" y="636"/>
      <point x="261" y="619" type="curve" smooth="yes"/>
      <point x="237" y="549" type="line"/>
      <point x="253" y="537" type="line"/>
      <point x="300" y="595" type="line" smooth="yes"/>
      <point x="316" y="616"/>
      <point x="330" y="625"/>
      <point x="346" y="625" type="curve" smooth="yes"/>
      <point x="369" y="625"/>
      <point x="391" y="599"/>
      <point x="391" y="573" type="curve" smooth="yes"/>
      <point x="391" y="550"/>
      <point x="375" y="537"/>
      <point x="337" y="530" type="curve" smooth="yes"/>
      <point x="265" y="516" type="line"/>
      <point x="262" y="497" type="line"/>
      <point x="336" y="485" type="line" smooth="yes"/>
      <point x="372" y="479"/>
      <point x="390" y="465"/>
      <point x="390" y="443" type="curve" smooth="yes"/>
      <point x="390" y="416"/>
      <point x="368" y="390"/>
      <point x="345" y="390" type="curve" smooth="yes"/>
      <point x="329" y="390"/>
      <point x="318" y="397"/>
      <point x="299" y="420" type="curve" smooth="yes"/>
      <point x="250" y="476" type="line"/>
      <point x="232" y="468" type="line"/>
      <point x="259" y="398" type="line" smooth="yes"/>
      <point x="264" y="384"/>
      <point x="267" y="372"/>
      <point x="267" y="364" type="curve" smooth="yes"/>
      <point x="267" y="339"/>
      <point x="249" y="323"/>
      <point x="222" y="323" type="curve" smooth="yes"/>
      <point x="195" y="323"/>
      <point x="176" y="339"/>
      <point x="176" y="362" type="curve" smooth="yes"/>
      <point x="176" y="372"/>
      <point x="178" y="382"/>
      <point x="184" y="398" type="curve" smooth="yes"/>
      <point x="208" y="468" type="line"/>
      <point x="192" y="480" type="line"/>
      <point x="145" y="422" type="line" smooth="yes"/>
      <point x="128" y="401"/>
      <point x="115" y="392"/>
      <point x="99" y="392" type="curve" smooth="yes"/>
      <point x="76" y="392"/>
      <point x="54" y="418"/>
      <point x="54" y="444" type="curve" smooth="yes"/>
      <point x="54" y="467"/>
      <point x="70" y="480"/>
      <point x="108" y="487" type="curve" smooth="yes"/>
      <point x="180" y="501" type="line"/>
      <point x="183" y="520" type="line"/>
      <point x="109" y="532" type="line" smooth="yes"/>
      <point x="73" y="538"/>
      <point x="55" y="552"/>
      <point x="55" y="574" type="curve" smooth="yes"/>
      <point x="55" y="602"/>
      <point x="77" y="627"/>
      <point x="101" y="627" type="curve" smooth="yes"/>
      <point x="115" y="627"/>
      <point x="128" y="618"/>
      <point x="147" y="597" type="curve" smooth="yes"/>
      <point x="195" y="541" type="line"/>
    </contour>
  </outline>
</glyph>
<glyph name="plus" format="1">
  <advance width="600"/>
  <unicode hex="002B"/>
  <outline>
    <contour>
      <point x="555" y="392" type="line"/>
      <point x="555" y="314" type="line"/>
      <point x="342" y="314" type="line"/>
      <point x="342" y="111" type="line"/>
      <point x="264" y="111" type="line"/>
      <point x="264" y="314" type="line"/>
      <point x="51" y="314" type="line"/>
      <point x="51" y="392" type="line"/>
      <point x="264" y="392" type="line"/>
      <point x="264" y="595" type="line"/>
      <point x="342" y="595" type="line"/>
      <point x="342" y="392" type="line"/>
    </contour>
  </outline>
</glyph>
<glyph name="hyphen" format="1">
  <advance width="400"/>
  <unicode hex="002D"/>
  <outline>
    <contour>
      <point x="350" y="289" type="line"/>
      <point x="322" y="232" type="line"/>
      <point x="50" y="232" type="line"/>
      <point x="79" y="289" type="line"/>
    </contour>
  </outline>
</glyph>
<glyph name="one" format="1">
  <advance width="620"/>
  <unicode hex="0031"/>
  <outline>
    <contour>
      <point x="379" y="681" type="line"/>
      <point x="379" y="139" type="line" smooth="yes"/>
      <point x="379" y="53"/>
      <point x="393" y="37"/>
      <point x="469" y="32" type="curve" smooth="yes"/>
      <point x="501" y="30" type="line"/>
      <point x="501" y="0" type="line"/>
      <point x="160" y="0" type="line"/>
      <point x="160" y="30" type="line"/>
      <point x="193" y="32" type="line" smooth="yes"/>
      <point x="225" y="34"/>
      <point x="255" y="45"/>
      <point x="271" y="61" type="curve" smooth="yes"/>
      <point x="281" y="71"/>
      <point x="284" y="87"/>
      <point x="284" y="141" type="curve" smooth="yes"/>
      <point x="284" y="524" type="line" smooth="yes"/>
      <point x="284" y="603"/>
      <point x="274" y="615"/>
      <point x="201" y="618" type="curve" smooth="yes"/>
      <point x="161" y="620" type="line"/>
      <point x="161" y="650" type="line"/>
      <point x="261" y="662"/>
      <point x="282" y="666"/>
      <point x="347" y="681" type="curve"/>
    </contour>
  </outline>
</glyph>
<glyph name="three" format="1">
  <advance width="620"/>
  <unicode hex="0033"/>
  <outline>
    <contour>
      <point x="221" y="350" type="curve"/>
      <point x="221" y="395" type="line"/>
      <point x="246" y="394"/>
      <point x="263" y="393"/>
      <point x="271" y="393" type="curve" smooth="yes"/>
      <point x="320" y="393"/>
      <point x="370" y="409"/>
      <point x="396" y="433" type="curve" smooth="yes"/>
      <point x="418" y="452"/>
      <point x="433" y="490"/>
      <point x="433" y="524" type="curve" smooth="yes"/>
      <point x="433" y="600"/>
      <point x="379" y="649"/>
      <point x="296" y="649" type="curve" smooth="yes"/>
      <point x="228" y="649"/>
      <point x="173" y="616"/>
      <point x="173" y="575" type="curve" smooth="yes"/>
      <point x="173" y="567"/>
      <point x="173" y="567"/>
      <point x="185" y="540" type="curve" smooth="yes"/>
      <point x="188" y="531"/>
      <point x="190" y="523"/>
      <point x="190" y="516" type="curve" smooth="yes"/>
      <point x="190" y="490"/>
      <point x="165" y="468"/>
      <point x="135" y="468" type="curve" smooth="yes"/>
      <point x="102" y="468"/>
      <point x="77" y="495"/>
      <point x="77" y="532" type="curve" smooth="yes"/>
      <point x="77" y="576"/>
      <point x="106" y="622"/>
      <point x="152" y="653" type="curve" smooth="yes"/>
      <point x="192" y="680"/>
      <point x="242" y="694"/>
      <point x="302" y="694" type="curve" smooth="yes"/>
      <point x="440" y="694"/>
      <point x="541" y="625"/>
      <point x="541" y="531" type="curve" smooth="yes"/>
      <point x="541" y="491"/>
      <point x="519" y="450"/>
      <point x="484" y="422" type="curve" smooth="yes"/>
      <point x="458" y="402"/>
      <point x="432" y="391"/>
      <point x="375" y="378" type="curve"/>
      <point x="436" y="366"/>
      <point x="462" y="357"/>
      <point x="494" y="338" type="curve" smooth="yes"/>
      <point x="545" y="308"/>
      <point x="576" y="255"/>
      <point x="576" y="196" type="curve" smooth="yes"/>
      <point x="576" y="74"/>
      <point x="456" y="-13"/>
      <point x="288" y="-13" type="curve" smooth="yes"/>
      <point x="212" y="-13"/>
      <point x="153" y="3"/>
      <point x="103" y="38" type="curve" smooth="yes"/>
      <point x="64" y="66"/>
      <point x="40" y="104"/>
      <point x="40" y="141" type="curve" smooth="yes"/>
      <point x="40" y="179"/>
      <point x="67" y="210"/>
      <point x="101" y="210" type="curve" smooth="yes"/>
      <point x="134" y="210"/>
      <point x="157" y="186"/>
      <point x="157" y="154" type="curve" smooth="yes"/>
      <point x="157" y="142"/>
      <point x="157" y="142"/>
      <point x="150" y="120" type="curve" smooth="yes"/>
      <point x="149" y="115"/>
      <point x="148" y="112"/>
      <point x="148" y="109" type="curve" smooth="yes"/>
      <point x="148" y="93"/>
      <point x="163" y="71"/>
      <point x="182" y="59" type="curve" smooth="yes"/>
      <point x="210" y="41"/>
      <point x="248" y="32"/>
      <point x="292" y="32" type="curve" smooth="yes"/>
      <point x="399" y="32"/>
      <point x="463" y="92"/>
      <point x="463" y="194" type="curve" smooth="yes"/>
      <point x="463" y="246"/>
      <point x="443" y="295"/>
      <point x="411" y="320" type="curve" smooth="yes"/>
      <point x="384" y="341"/>
      <point x="336" y="355"/>
      <point x="291" y="355" type="curve" smooth="yes"/>
      <point x="279" y="355"/>
      <point x="262" y="354"/>
    </contour>
  </outline>
</glyph>
<glyph name="four" format="1">
  <advance width="620"/>
  <unicode hex="0034"/>
  <outline>
    <contour>
      <point x="448" y="681" type="line"/>
      <point x="448" y="243" type="line"/>
      <point x="600" y="243" type="line"/>
      <point x="578" y="186" type="line"/>
      <point x="448" y="186" type="line"/>
      <point x="448" y="144" type="line" smooth="yes"/>
      <point x="448" y="100"/>
      <point x="451" y="79"/>
      <point x="457" y="64" type="curve"/>
      <point x="466" y="46"/>
      <point x="487" y="34"/>
      <point x="512" y="32" type="curve" smooth="yes"/>
      <point x="545" y="30" type="line"/>
      <point x="545" y="0" type="line"/>
      <point x="256" y="0" type="line"/>
      <point x="256" y="30" type="line"/>
      <point x="289" y="32" type="line" smooth="yes"/>
      <point x="314" y="34"/>
      <point x="336" y="46"/>
      <point x="344" y="64" type="curve" smooth="yes"/>
      <point x="351" y="79"/>
      <point x="353" y="99"/>
      <point x="353" y="144" type="curve" smooth="yes"/>
      <point x="353" y="186" type="line"/>
      <point x="40" y="186" type="line"/>
      <point x="25" y="227" type="line"/>
      <point x="182" y="436" type="line"/>
      <point x="335" y="657" type="line"/>
      <point x="353" y="681" type="line"/>
    </contour>
    <contour>
      <point x="353" y="243" type="line"/>
      <point x="353" y="596" type="line"/>
      <point x="263" y="471" type="line"/>
      <point x="174" y="349" type="line"/>
      <point x="112" y="265" type="line" smooth="yes"/>
      <point x="106" y="258"/>
      <point x="101" y="251"/>
      <point x="96" y="243" type="curve"/>
    </contour>
  </outline>
</glyph>
<glyph name="five" format="1">
  <advance width="620"/>
  <unicode hex="0035"/>
  <outline>
    <contour>
      <point x="520" y="717" type="line"/>
      <point x="503" y="599" type="line"/>
      <point x="161" y="599" type="line"/>
      <point x="161" y="399" type="line"/>
      <point x="220" y="446"/>
      <point x="265" y="462"/>
      <point x="332" y="462" type="curve" smooth="yes"/>
      <point x="481" y="462"/>
      <point x="584" y="370"/>
      <point x="584" y="236" type="curve" smooth="yes"/>
      <point x="584" y="89"/>
      <point x="469" y="-13"/>
      <point x="302" y="-13" type="curve" smooth="yes"/>
      <point x="166" y="-13"/>
      <point x="60" y="51"/>
      <point x="60" y="134" type="curve" smooth="yes"/>
      <point x="60" y="169"/>
      <point x="87" y="198"/>
      <point x="121" y="198" type="curve" smooth="yes"/>
      <point x="152" y="198"/>
      <point x="179" y="172"/>
      <point x="179" y="142" type="curve" smooth="yes"/>
      <point x="179" y="134"/>
      <point x="179" y="134"/>
      <point x="170" y="105" type="curve"/>
      <point x="169" y="94" type="line"/>
      <point x="169" y="60"/>
      <point x="223" y="32"/>
      <point x="288" y="32" type="curve" smooth="yes"/>
      <point x="399" y="32"/>
      <point x="471" y="106"/>
      <point x="471" y="221" type="curve" smooth="yes"/>
      <point x="471" y="333"/>
      <point x="405" y="404"/>
      <point x="299" y="404" type="curve" smooth="yes"/>
      <point x="231" y="404"/>
      <point x="192" y="381"/>
      <point x="142" y="312" type="curve"/>
      <point x="99" y="322" type="line"/>
      <point x="99" y="681" type="line"/>
      <point x="401" y="681" type="line" smooth="yes"/>
      <point x="452" y="681"/>
      <point x="464" y="686"/>
      <point x="482" y="717" type="curve"/>
    </contour>
  </outline>
</glyph>
<glyph name="seven" format="1">
  <advance width="620"/>
  <unicode hex="0037"/>
  <outline>
    <contour>
      <point x="578" y="681" type="line"/>
      <point x="586" y="618" type="line"/>
      <point x="515" y="538"/>
      <point x="459" y="454"/>
      <point x="395" y="329" type="curve"/>
      <point x="340" y="214"/>
      <point x="319" y="137"/>
      <point x="307" y="0" type="curve"/>
      <point x="178" y="0" type="line"/>
      <point x="214" y="198"/>
      <point x="338" y="420"/>
      <point x="513" y="599" type="curve"/>
      <point x="251" y="599" type="line" smooth="yes"/>
      <point x="184" y="599"/>
      <point x="161" y="594"/>
      <point x="135" y="574" type="curve" smooth="yes"/>
      <point x="115" y="558"/>
      <point x="105" y="541"/>
      <point x="92" y="503" type="curve"/>
      <point x="60" y="503" type="line"/>
      <point x="92" y="681" type="line"/>
    </contour>
  </outline>
</glyph>
<glyph name="eight" format="1">
  <advance width="620"/>
  <unicode hex="0038"/>
  <outline>
    <contour>
      <point x="404" y="386" type="curve"/>
      <point x="476" y="360"/>
      <point x="505" y="345"/>
      <point x="535" y="316" type="curve"/>
      <point x="566" y="288"/>
      <point x="583" y="247"/>
      <point x="583" y="203" type="curve" smooth="yes"/>
      <point x="583" y="79"/>
      <point x="465" y="-13"/>
      <point x="306" y="-13" type="curve" smooth="yes"/>
      <point x="156" y="-13"/>
      <point x="44" y="67"/>
      <point x="44" y="175" type="curve" smooth="yes"/>
      <point x="44" y="217"/>
      <point x="62" y="260"/>
      <point x="93" y="291" type="curve" smooth="yes"/>
      <point x="121" y="319"/>
      <point x="149" y="333"/>
      <point x="212" y="352" type="curve"/>
      <point x="162" y="372"/>
      <point x="138" y="386"/>
      <point x="118" y="408" type="curve" smooth="yes"/>
      <point x="93" y="436"/>
      <point x="80" y="470"/>
      <point x="80" y="508" type="curve" smooth="yes"/>
      <point x="80" y="617"/>
      <point x="178" y="694"/>
      <point x="317" y="694" type="curve" smooth="yes"/>
      <point x="456" y="694"/>
      <point x="555" y="628"/>
      <point x="555" y="535" type="curve" smooth="yes"/>
      <point x="555" y="495"/>
      <point x="536" y="457"/>
      <point x="505" y="431" type="curve" smooth="yes"/>
      <point x="480" y="411"/>
      <point x="457" y="400"/>
    </contour>
    <contour>
      <point x="279" y="426" type="curve" smooth="yes"/>
      <point x="353" y="403" type="line"/>
      <point x="428" y="420"/>
      <point x="473" y="467"/>
      <point x="473" y="531" type="curve" smooth="yes"/>
      <point x="473" y="602"/>
      <point x="412" y="654"/>
      <point x="328" y="654" type="curve" smooth="yes"/>
      <point x="238" y="654"/>
      <point x="168" y="602"/>
      <point x="168" y="534" type="curve" smooth="yes"/>
      <point x="168" y="485"/>
      <point x="206" y="449"/>
    </contour>
    <contour>
      <point x="376" y="298" type="curve" smooth="yes"/>
      <point x="261" y="334" type="line"/>
      <point x="172" y="299"/>
      <point x="132" y="249"/>
      <point x="132" y="174" type="curve" smooth="yes"/>
      <point x="132" y="85"/>
      <point x="203" y="27"/>
      <point x="314" y="27" type="curve" smooth="yes"/>
      <point x="418" y="27"/>
      <point x="495" y="85"/>
      <point x="495" y="165" type="curve" smooth="yes"/>
      <point x="495" y="228"/>
      <point x="455" y="273"/>
    </contour>
  </outline>
</glyph>
<glyph name="equal" format="1">
  <advance width="600"/>
  <unicode hex="003D"/>
  <outline>
    <contour>
      <point x="555" y="489" type="line"/>
      <point x="555" y="411" type="line"/>
      <point x="51" y="411" type="line"/>
      <point x="51" y="489" type="line"/>
    </contour>
    <contour>
      <point x="555" y="295" type="line"/>
      <point x="555" y="217" type="line"/>
      <point x="51" y="217" type="line"/>
      <point x="51" y="295" type="line"/>
    </contour>
  </outline>
</glyph>
<glyph name="question" format="1">
  <advance width="540"/>
  <unicode hex="003F"/>
  <outline>
    <contour>
      <point x="236" y="116" type="curve" smooth="yes"/>
      <point x="270" y="116"/>
      <point x="299" y="87"/>
      <point x="299" y="52" type="curve" smooth="yes"/>
      <point x="299" y="16"/>
      <point x="270" y="-13"/>
      <point x="235" y="-13" type="curve" smooth="yes"/>
      <point x="199" y="-13"/>
      <point x="170" y="16"/>
      <point x="170" y="52" type="curve" smooth="yes"/>
      <point x="170" y="87"/>
      <point x="199" y="116"/>
    </contour>
    <contour>
      <point x="258" y="174" type="curve"/>
      <point x="213" y="174" type="line"/>
      <point x="212" y="194"/>
      <point x="211" y="205"/>
      <point x="211" y="218" type="curve" smooth="yes"/>
      <point x="211" y="282"/>
      <point x="226" y="311"/>
      <point x="280" y="347" type="curve" smooth="yes"/>
      <point x="337" y="386" type="line" smooth="yes"/>
      <point x="382" y="417"/>
      <point x="406" y="462"/>
      <point x="406" y="517" type="curve" smooth="yes"/>
      <point x="406" y="604"/>
      <point x="355" y="654"/>
      <point x="264" y="654" type="curve" smooth="yes"/>
      <point x="185" y="654"/>
      <point x="122" y="616"/>
      <point x="122" y="568" type="curve" smooth="yes"/>
      <point x="122" y="557"/>
      <point x="124" y="549"/>
      <point x="131" y="536" type="curve" smooth="yes"/>
      <point x="141" y="515"/>
      <point x="143" y="509"/>
      <point x="143" y="499" type="curve" smooth="yes"/>
      <point x="143" y="474"/>
      <point x="118" y="451"/>
      <point x="89" y="451" type="curve" smooth="yes"/>
      <point x="53" y="451"/>
      <point x="27" y="482"/>
      <point x="27" y="524" type="curve" smooth="yes"/>
      <point x="27" y="564"/>
      <point x="53" y="608"/>
      <point x="96" y="642" type="curve" smooth="yes"/>
      <point x="136" y="673"/>
      <point x="208" y="694"/>
      <point x="274" y="694" type="curve" smooth="yes"/>
      <point x="331" y="694"/>
      <point x="390" y="678"/>
      <point x="435" y="651" type="curve" smooth="yes"/>
      <point x="484" y="622"/>
      <point x="514" y="567"/>
      <point x="514" y="508" type="curve" smooth="yes"/>
      <point x="514" y="469"/>
      <point x="500" y="429"/>
      <point x="476" y="397" type="curve"/>
      <point x="455" y="372"/>
      <point x="425" y="352"/>
      <point x="379" y="336" type="curve" smooth="yes"/>
      <point x="346" y="324" type="line"/>
      <point x="278" y="298"/>
      <point x="257" y="264"/>
    </contour>
  </outline>
</glyph>
<glyph name="D" format="1">
  <advance width="800"/>
  <unicode hex="0044"/>
  <outline>
    <contour>
      <point x="121" y="144" type="curve" smooth="yes"/>
      <point x="121" y="537" type="line" smooth="yes"/>
      <point x="121" y="619"/>
      <point x="108" y="640"/>
      <point x="56" y="647" type="curve" smooth="yes"/>
      <point x="31" y="650" type="line"/>
      <point x="31" y="681" type="line"/>
      <point x="336" y="681" type="line" smooth="yes"/>
      <point x="487" y="681"/>
      <point x="583" y="652"/>
      <point x="652" y="587" type="curve" smooth="yes"/>
      <point x="713" y="529"/>
      <point x="752" y="430"/>
      <point x="752" y="335" type="curve" smooth="yes"/>
      <point x="752" y="237"/>
      <point x="711" y="141"/>
      <point x="644" y="83" type="curve" smooth="yes"/>
      <point x="574" y="22"/>
      <point x="491" y="0"/>
      <point x="336" y="0" type="curve" smooth="yes"/>
      <point x="31" y="0" type="line"/>
      <point x="31" y="31" type="line"/>
      <point x="56" y="34" type="line" smooth="yes"/>
      <point x="108" y="41"/>
      <point x="121" y="62"/>
    </contour>
    <contour>
      <point x="221" y="548" type="curve" smooth="yes"/>
      <point x="221" y="129" type="line" smooth="yes"/>
      <point x="221" y="89"/>
      <point x="224" y="73"/>
      <point x="235" y="63" type="curve" smooth="yes"/>
      <point x="249" y="50"/>
      <point x="290" y="41"/>
      <point x="339" y="41" type="curve" smooth="yes"/>
      <point x="440" y="41"/>
      <point x="521" y="74"/>
      <point x="570" y="135" type="curve" smooth="yes"/>
      <point x="611" y="186"/>
      <point x="634" y="262"/>
      <point x="634" y="342" type="curve" smooth="yes"/>
      <point x="634" y="416"/>
      <point x="614" y="484"/>
      <point x="579" y="534" type="curve" smooth="yes"/>
      <point x="529" y="605"/>
      <point x="449" y="640"/>
      <point x="340" y="640" type="curve" smooth="yes"/>
      <point x="289" y="640"/>
      <point x="245" y="630"/>
      <point x="233" y="615" type="curve" smooth="yes"/>
      <point x="224" y="605"/>
      <point x="221" y="587"/>
    </contour>
  </outline>
</glyph>
<glyph name="K" format="1">
  <advance width="720"/>
  <unicode hex="004B"/>
  <outline>
    <contour>
      <point x="750" y="0" type="line"/>
      <point x="442" y="0" type="line"/>
      <point x="442" y="31" type="line"/>
      <point x="450" y="32"/>
      <point x="457" y="33"/>
      <point x="460" y="33" type="curve" smooth="yes"/>
      <point x="504" y="37"/>
      <point x="521" y="49"/>
      <point x="521" y="73" type="curve" smooth="yes"/>
      <point x="521" y="87"/>
      <point x="515" y="102"/>
      <point x="498" y="129" type="curve" smooth="yes"/>
      <point x="337" y="386" type="line"/>
      <point x="221" y="283" type="line"/>
      <point x="221" y="144" type="line" smooth="yes"/>
      <point x="221" y="63"/>
      <point x="236" y="38"/>
      <point x="286" y="34" type="curve" smooth="yes"/>
      <point x="327" y="31" type="line"/>
      <point x="327" y="0" type="line"/>
      <point x="31" y="0" type="line"/>
      <point x="31" y="31" type="line"/>
      <point x="56" y="34" type="line" smooth="yes"/>
      <point x="108" y="41"/>
      <point x="121" y="62"/>
      <point x="121" y="144" type="curve" smooth="yes"/>
      <point x="121" y="537" type="line" smooth="yes"/>
      <point x="121" y="619"/>
      <point x="108" y="640"/>
      <point x="56" y="647" type="curve" smooth="yes"/>
      <point x="31" y="650" type="line"/>
      <point x="31" y="681" type="line"/>
      <point x="327" y="681" type="line"/>
      <point x="327" y="650" type="line"/>
      <point x="286" y="647" type="line" smooth="yes"/>
      <point x="236" y="643"/>
      <point x="221" y="618"/>
      <point x="221" y="537" type="curve" smooth="yes"/>
      <point x="221" y="345" type="line"/>
      <point x="397" y="504" type="line"/>
      <point x="403" y="509" type="line"/>
      <point x="426" y="529" type="line" smooth="yes"/>
      <point x="477" y="574"/>
      <point x="485" y="585"/>
      <point x="485" y="608" type="curve" smooth="yes"/>
      <point x="485" y="634"/>
      <point x="470" y="645"/>
      <point x="427" y="649" type="curve" smooth="yes"/>
      <point x="417" y="650" type="line"/>
      <point x="417" y="681" type="line"/>
      <point x="703" y="681" type="line"/>
      <point x="703" y="650" type="line"/>
      <point x="696" y="648" type="line"/>
      <point x="653" y="640"/>
      <point x="598" y="608"/>
      <point x="537" y="556" type="curve"/>
      <point x="417" y="451" type="line"/>
      <point x="607" y="141" type="line"/>
      <point x="656" y="65"/>
      <point x="682" y="45"/>
      <point x="750" y="30" type="curve"/>
    </contour>
  </outline>
</glyph>
<glyph name="L" format="1">
  <advance width="600"/>
  <unicode hex="004C"/>
  <outline>
    <contour>
      <point x="629" y="214" type="line"/>
      <point x="549" y="0" type="line"/>
      <point x="31" y="0" type="line"/>
      <point x="31" y="31" type="line"/>
      <point x="56" y="34" type="line" smooth="yes"/>
      <point x="108" y="41"/>
      <point x="121" y="62"/>
      <point x="121" y="144" type="curve" smooth="yes"/>
      <point x="121" y="537" type="line" smooth="yes"/>
      <point x="121" y="619"/>
      <point x="108" y="640"/>
      <point x="56" y="647" type="curve" smooth="yes"/>
      <point x="31" y="650" type="line"/>
      <point x="31" y="681" type="line"/>
      <point x="318" y="681" type="line"/>
      <point x="318" y="650" type="line"/>
      <point x="286" y="647" type="line" smooth="yes"/>
      <point x="235" y="642"/>
      <point x="221" y="618"/>
      <point x="221" y="537" type="curve" smooth="yes"/>
      <point x="221" y="123" type="line" smooth="yes"/>
      <point x="221" y="93"/>
      <point x="225" y="73"/>
      <point x="233" y="63" type="curve" smooth="yes"/>
      <point x="245" y="48"/>
      <point x="274" y="38"/>
      <point x="307" y="38" type="curve" smooth="yes"/>
      <point x="368" y="38"/>
      <point x="434" y="62"/>
      <point x="491" y="105" type="curve" smooth="yes"/>
      <point x="530" y="134"/>
      <point x="555" y="162"/>
      <point x="601" y="227" type="curve"/>
    </contour>
  </outline>
</glyph>
<glyph name="N" format="1">
  <advance width="740"/>
  <unicode hex="004E"/>
  <outline>
    <contour>
      <point x="173" y="606" type="line"/>
      <point x="173" y="144" type="line" smooth="yes"/>
      <point x="173" y="63"/>
      <point x="187" y="39"/>
      <point x="238" y="34" type="curve" smooth="yes"/>
      <point x="273" y="31" type="line"/>
      <point x="273" y="0" type="line"/>
      <point x="26" y="0" type="line"/>
      <point x="26" y="31" type="line"/>
      <point x="51" y="34" type="line" smooth="yes"/>
      <point x="103" y="41"/>
      <point x="116" y="62"/>
      <point x="116" y="144" type="curve" smooth="yes"/>
      <point x="116" y="537" type="line" smooth="yes"/>
      <point x="116" y="619"/>
      <point x="103" y="640"/>
      <point x="51" y="647" type="curve" smooth="yes"/>
      <point x="26" y="650" type="line"/>
      <point x="26" y="681" type="line"/>
      <point x="249" y="681" type="line"/>
      <point x="575" y="142" type="line"/>
      <point x="575" y="537" type="line" smooth="yes"/>
      <point x="575" y="618"/>
      <point x="561" y="642"/>
      <point x="510" y="647" type="curve" smooth="yes"/>
      <point x="475" y="650" type="line"/>
      <point x="475" y="681" type="line"/>
      <point x="722" y="681" type="line"/>
      <point x="722" y="650" type="line"/>
      <point x="697" y="647" type="line" smooth="yes"/>
      <point x="645" y="640"/>
      <point x="632" y="619"/>
      <point x="632" y="537" type="curve" smooth="yes"/>
      <point x="632" y="0" type="line"/>
      <point x="544" y="0" type="line"/>
    </contour>
  </outline>
</glyph>
<glyph name="Q" format="1">
  <advance width="820"/>
  <unicode hex="0051"/>
  <outline>
    <contour>
      <point x="675" y="91" type="curve"/>
      <point x="706" y="52"/>
      <point x="717" y="25"/>
      <point x="717" y="-7" type="curve" smooth="yes"/>
      <point x="717" y="-113"/>
      <point x="584" y="-190"/>
      <point x="400" y="-190" type="curve" smooth="yes"/>
      <point x="241" y="-190"/>
      <point x="103" y="-128"/>
      <point x="103" y="-57" type="curve" smooth="yes"/>
      <point x="103" y="-30"/>
      <point x="126" y="-11"/>
      <point x="160" y="-11" type="curve" smooth="yes"/>
      <point x="197" y="-11"/>
      <point x="221" y="-34"/>
      <point x="221" y="-70" type="curve"/>
      <point x="222" y="-97"/>
      <point x="228" y="-106"/>
      <point x="260" y="-120" type="curve"/>
      <point x="290" y="-135"/>
      <point x="348" y="-145"/>
      <point x="399" y="-145" type="curve" smooth="yes"/>
      <point x="531" y="-145"/>
      <point x="629" y="-86"/>
      <point x="629" y="-7" type="curve" smooth="yes"/>
      <point x="629" y="10"/>
      <point x="625" y="21"/>
      <point x="614" y="42" type="curve"/>
      <point x="553" y="6"/>
      <point x="482" y="-13"/>
      <point x="407" y="-13" type="curve" smooth="yes"/>
      <point x="204" y="-13"/>
      <point x="44" y="141"/>
      <point x="44" y="335" type="curve" smooth="yes"/>
      <point x="44" y="537"/>
      <point x="204" y="694"/>
      <point x="411" y="694" type="curve" smooth="yes"/>
      <point x="619" y="694"/>
      <point x="769" y="544"/>
      <point x="769" y="337" type="curve" smooth="yes"/>
      <point x="769" y="237"/>
      <point x="741" y="164"/>
    </contour>
    <contour>
      <point x="612" y="139" type="curve"/>
      <point x="639" y="203"/>
      <point x="651" y="265"/>
      <point x="651" y="341" type="curve" smooth="yes"/>
      <point x="651" y="524"/>
      <point x="555" y="646"/>
      <point x="411" y="646" type="curve" smooth="yes"/>
      <point x="263" y="646"/>
      <point x="162" y="517"/>
      <point x="162" y="330" type="curve" smooth="yes"/>
      <point x="162" y="259"/>
      <point x="178" y="195"/>
      <point x="207" y="145" type="curve" smooth="yes"/>
      <point x="246" y="79"/>
      <point x="284" y="52"/>
      <point x="369" y="32" type="curve"/>
      <point x="342" y="51"/>
      <point x="333" y="65"/>
      <point x="333" y="86" type="curve" smooth="yes"/>
      <point x="333" y="134"/>
      <point x="391" y="168"/>
      <point x="476" y="168" type="curve" smooth="yes"/>
      <point x="522" y="168"/>
      <point x="545" y="163"/>
    </contour>
    <contour>
      <point x="571" y="84" type="curve"/>
      <point x="563" y="88" type="line" smooth="yes"/>
      <point x="535" y="102"/>
      <point x="501" y="110"/>
      <point x="468" y="110" type="curve" smooth="yes"/>
      <point x="418" y="110"/>
      <point x="381" y="91"/>
      <point x="381" y="65" type="curve" smooth="yes"/>
      <point x="381" y="45"/>
      <point x="407" y="32"/>
      <point x="444" y="32" type="curve" smooth="yes"/>
      <point x="489" y="32"/>
      <point x="538" y="52"/>
    </contour>
  </outline>
</glyph>
<glyph name="T" format="1">
  <advance width="620"/>
  <unicode hex="0054"/>
  <outline>
    <contour>
      <point x="600" y="681" type="line"/>
      <point x="656" y="505" type="line"/>
      <point x="621" y="493" type="line"/>
      <point x="565" y="591"/>
      <point x="489" y="643"/>
      <point x="401" y="643" type="curve" smooth="yes"/>
      <point x="368" y="643"/>
      <point x="360" y="634"/>
      <point x="360" y="599" type="curve" smooth="yes"/>
      <point x="360" y="144" type="line" smooth="yes"/>
      <point x="360" y="63"/>
      <point x="375" y="38"/>
      <point x="425" y="34" type="curve" smooth="yes"/>
      <point x="464" y="31" type="line"/>
      <point x="464" y="0" type="line"/>
      <point x="156" y="0" type="line"/>
      <point x="156" y="31" type="line"/>
      <point x="195" y="34" type="line" smooth="yes"/>
      <point x="245" y="38"/>
      <point x="260" y="63"/>
      <point x="260" y="144" type="curve" smooth="yes"/>
      <point x="260" y="603" type="line" smooth="yes"/>
      <point x="260" y="633"/>
      <point x="249" y="643"/>
      <point x="216" y="643" type="curve" smooth="yes"/>
      <point x="124" y="643"/>
      <point x="55" y="597"/>
      <point x="-4" y="493" type="curve"/>
      <point x="-37" y="505" type="line"/>
      <point x="20" y="681" type="line"/>
    </contour>
  </outline>
</glyph>
<glyph name="V" format="1">
  <advance width="700"/>
  <unicode hex="0056"/>
  <outline>
    <contour>
      <point x="368" y="111" type="line"/>
      <point x="540" y="547" type="line" smooth="yes"/>
      <point x="546" y="562"/>
      <point x="550" y="578"/>
      <point x="550" y="589" type="curve" smooth="yes"/>
      <point x="550" y="628"/>
      <point x="522" y="647"/>
      <point x="458" y="650" type="curve"/>
      <point x="458" y="681" type="line"/>
      <point x="725" y="681" type="line"/>
      <point x="725" y="650" type="line"/>
      <point x="649" y="642"/>
      <point x="634" y="629"/>
      <point x="592" y="531" type="curve"/>
      <point x="373" y="0" type="line"/>
      <point x="313" y="0" type="line"/>
      <point x="88" y="546" type="line" smooth="yes"/>
      <point x="55" y="625"/>
      <point x="38" y="641"/>
      <point x="-20" y="648" type="curve" smooth="yes"/>
      <point x="-21" y="648"/>
      <point x="-25" y="649"/>
      <point x="-30" y="650" type="curve"/>
      <point x="-30" y="681" type="line"/>
      <point x="269" y="681" type="line"/>
      <point x="269" y="650" type="line"/>
      <point x="233" y="649"/>
      <point x="223" y="647"/>
      <point x="210" y="642" type="curve" smooth="yes"/>
      <point x="194" y="637"/>
      <point x="183" y="622"/>
      <point x="183" y="606" type="curve" smooth="yes"/>
      <point x="183" y="596"/>
      <point x="187" y="578"/>
      <point x="192" y="565" type="curve" smooth="yes"/>
    </contour>
  </outline>
</glyph>
<glyph name="Y" format="1">
  <advance width="640"/>
  <unicode hex="0059"/>
  <outline>
    <contour>
      <point x="355" y="286" type="line"/>
      <point x="355" y="144" type="line" smooth="yes"/>
      <point x="355" y="63"/>
      <point x="370" y="38"/>
      <point x="420" y="34" type="curve" smooth="yes"/>
      <point x="461" y="31" type="line"/>
      <point x="461" y="0" type="line"/>
      <point x="149" y="0" type="line"/>
      <point x="149" y="31" type="line"/>
      <point x="190" y="34" type="line" smooth="yes"/>
      <point x="240" y="38"/>
      <point x="255" y="63"/>
      <point x="255" y="144" type="curve" smooth="yes"/>
      <point x="255" y="284" type="line"/>
      <point x="88" y="550" type="line"/>
      <point x="44" y="622"/>
      <point x="26" y="637"/>
      <point x="-30" y="650" type="curve"/>
      <point x="-30" y="681" type="line"/>
      <point x="255" y="681" type="line"/>
      <point x="255" y="650" type="line"/>
      <point x="194" y="642"/>
      <point x="176" y="632"/>
      <point x="176" y="609" type="curve" smooth="yes"/>
      <point x="176" y="600"/>
      <point x="180" y="591"/>
      <point x="191" y="573" type="curve" smooth="yes"/>
      <point x="332" y="345" type="line"/>
      <point x="474" y="563" type="line" smooth="yes"/>
      <point x="484" y="578"/>
      <point x="490" y="594"/>
      <point x="490" y="606" type="curve" smooth="yes"/>
      <point x="490" y="630"/>
      <point x="471" y="641"/>
      <point x="417" y="650" type="curve"/>
      <point x="417" y="681" type="line"/>
      <point x="666" y="681" type="line"/>
      <point x="666" y="650" type="line"/>
      <point x="596" y="636"/>
      <point x="572" y="619"/>
      <point x="520" y="539" type="curve" smooth="yes"/>
    </contour>
  </outline>
</glyph>
<glyph name="bracketleft" format="1">
  <advance width="300"/>
  <unicode hex="005B"/>
  <outline>
    <contour>
      <point x="92" y="-141" type="line"/>
      <point x="92" y="717" type="line"/>
      <point x="258" y="717" type="line"/>
      <point x="258" y="675" type="line"/>
      <point x="242" y="675" type="line" smooth="yes"/>
      <point x="189" y="675"/>
      <point x="182" y="668"/>
      <point x="182" y="615" type="curve" smooth="yes"/>
      <point x="182" y="-26" type="line" smooth="yes"/>
      <point x="182" y="-89"/>
      <point x="190" y="-99"/>
      <point x="241" y="-99" type="curve" smooth="yes"/>
      <point x="258" y="-99" type="line"/>
      <point x="258" y="-141" type="line"/>
    </contour>
  </outline>
</glyph>
<glyph name="bracketright" format="1">
  <advance width="300"/>
  <unicode hex="005D"/>
  <outline>
    <contour>
      <point x="207" y="717" type="line"/>
      <point x="207" y="-141" type="line"/>
      <point x="41" y="-141" type="line"/>
      <point x="41" y="-99" type="line"/>
      <point x="57" y="-99" type="line" smooth="yes"/>
      <point x="110" y="-99"/>
      <point x="117" y="-92"/>
      <point x="117" y="-39" type="curve" smooth="yes"/>
      <point x="117" y="602" type="line" smooth="yes"/>
      <point x="117" y="666"/>
      <point x="109" y="675"/>
      <point x="58" y="675" type="curve" smooth="yes"/>
      <point x="41" y="675" type="line"/>
      <point x="41" y="717" type="line"/>
    </contour>
  </outline>
</glyph>
<glyph name="grave" format="1">
  <advance width="340"/>
  <unicode hex="0060"/>
  <outline>
    <contour>
      <point x="269" y="564" type="line"/>
      <point x="130" y="593" type="line" smooth="yes"/>
      <point x="87" y="602"/>
      <point x="68" y="617"/>
      <point x="68" y="643" type="curve" smooth="yes"/>
      <point x="68" y="664"/>
      <point x="83" y="680"/>
      <point x="103" y="680" type="curve" smooth="yes"/>
      <point x="122" y="680"/>
      <point x="150" y="668"/>
      <point x="179" y="646" type="curve"/>
      <point x="274" y="578" type="line"/>
    </contour>
  </outline>
</glyph>
<glyph name="b" format="1">
  <advance width="620"/>
  <unicode hex="0062"/>
  <outline>
    <contour>
      <point x="180" y="717" type="line"/>
      <point x="180" y="422" type="line"/>
      <point x="236" y="474"/>
      <point x="285" y="494"/>
      <point x="354" y="494" type="curve" smooth="yes"/>
      <point x="487" y="494"/>
      <point x="582" y="391"/>
      <point x="582" y="248" type="curve" smooth="yes"/>
      <point x="582" y="97"/>
      <point x="482" y="-9"/>
      <point x="340" y="-9" type="curve" smooth="yes"/>
      <point x="276" y="-9"/>
      <point x="231" y="8"/>
      <point x="165" y="58" type="curve"/>
      <point x="141" y="0" type="line"/>
      <point x="85" y="0" type="line"/>
      <point x="85" y="538" type="line" smooth="yes"/>
      <point x="85" y="627"/>
      <point x="74" y="645"/>
      <point x="20" y="650" type="curve" smooth="yes"/>
      <point x="-2" y="652" type="line"/>
      <point x="-2" y="683" type="line"/>
      <point x="66" y="691"/>
      <point x="89" y="697"/>
      <point x="140" y="717" type="curve"/>
    </contour>
    <contour>
      <point x="180" y="368" type="curve"/>
      <point x="180" y="95" type="line"/>
      <point x="218" y="58"/>
      <point x="263" y="39"/>
      <point x="317" y="39" type="curve" smooth="yes"/>
      <point x="416" y="39"/>
      <point x="480" y="119"/>
      <point x="480" y="245" type="curve" smooth="yes"/>
      <point x="480" y="369"/>
      <point x="422" y="446"/>
      <point x="328" y="446" type="curve" smooth="yes"/>
      <point x="270" y="446"/>
      <point x="231" y="425"/>
    </contour>
  </outline>
</glyph>
<glyph name="l" format="1">
  <advance width="300"/>
  <unicode hex="006C"/>
  <outline>
    <contour>
      <point x="201" y="717" type="line"/>
      <point x="201" y="115" type="line" smooth="yes"/>
      <point x="201" y="60"/>
      <point x="218" y="37"/>
      <point x="263" y="32" type="curve"/>
      <point x="286" y="30" type="line"/>
      <point x="286" y="0" type="line"/>
      <point x="20" y="0" type="line"/>
      <point x="20" y="30" type="line"/>
      <point x="44" y="32" type="line"/>
      <point x="89" y="37"/>
      <point x="106" y="60"/>
      <point x="106" y="115" type="curve" smooth="yes"/>
      <point x="106" y="538" type="line" smooth="yes"/>
      <point x="106" y="627"/>
      <point x="95" y="645"/>
      <point x="41" y="650" type="curve" smooth="yes"/>
      <point x="20" y="652" type="line"/>
      <point x="20" y="683" type="line"/>
      <point x="88" y="691"/>
      <point x="111" y="697"/>
      <point x="161" y="717" type="curve"/>
    </contour>
  </outline>
</glyph>
<glyph name="m" format="1">
  <advance width="940"/>
  <unicode hex="006D"/>
  <outline>
    <contour>
      <point x="520" y="373" type="curve"/>
      <point x="520" y="115" type="line" smooth="yes"/>
      <point x="520" y="60"/>
      <point x="537" y="38"/>
      <point x="582" y="32" type="curve"/>
      <point x="603" y="30" type="line"/>
      <point x="603" y="0" type="line"/>
      <point x="342" y="0" type="line"/>
      <point x="342" y="30" type="line"/>
      <point x="363" y="32" type="line"/>
      <point x="408" y="38"/>
      <point x="425" y="60"/>
      <point x="425" y="115" type="curve" smooth="yes"/>
      <point x="425" y="336" type="line" smooth="yes"/>
      <point x="425" y="409"/>
      <point x="400" y="442"/>
      <point x="343" y="442" type="curve" smooth="yes"/>
      <point x="297" y="442"/>
      <point x="257" y="423"/>
      <point x="199" y="373" type="curve"/>
      <point x="199" y="115" type="line" smooth="yes"/>
      <point x="199" y="88"/>
      <point x="204" y="67"/>
      <point x="213" y="55" type="curve"/>
      <point x="226" y="40"/>
      <point x="233" y="36"/>
      <point x="261" y="32" type="curve" smooth="yes"/>
      <point x="279" y="30" type="line"/>
      <point x="279" y="0" type="line"/>
      <point x="17" y="0" type="line"/>
      <point x="17" y="30" type="line"/>
      <point x="42" y="32" type="line"/>
      <point x="86" y="37"/>
      <point x="104" y="60"/>
      <point x="104" y="115" type="curve" smooth="yes"/>
      <point x="104" y="350" type="line" smooth="yes"/>
      <point x="104" y="410"/>
      <point x="90" y="428"/>
      <point x="38" y="433" type="curve" smooth="yes"/>
      <point x="17" y="435" type="line"/>
      <point x="17" y="465" type="line"/>
      <point x="76" y="470"/>
      <point x="107" y="474"/>
      <point x="165" y="485" type="curve"/>
      <point x="199" y="485" type="line"/>
      <point x="199" y="418" type="line"/>
      <point x="263" y="474"/>
      <point x="311" y="494"/>
      <point x="381" y="494" type="curve" smooth="yes"/>
      <point x="453" y="494"/>
      <point x="491" y="471"/>
      <point x="518" y="411" type="curve"/>
      <point x="590" y="472"/>
      <point x="641" y="494"/>
      <point x="708" y="494" type="curve" smooth="yes"/>
      <point x="791" y="494"/>
      <point x="841" y="444"/>
      <point x="841" y="360" type="curve" smooth="yes"/>
      <point x="841" y="115" type="line" smooth="yes"/>
      <point x="841" y="60"/>
      <point x="859" y="37"/>
      <point x="903" y="32" type="curve"/>
      <point x="928" y="30" type="line"/>
      <point x="928" y="0" type="line"/>
      <point x="666" y="0" type="line"/>
      <point x="666" y="30" type="line"/>
      <point x="684" y="32" type="line"/>
      <point x="713" y="37"/>
      <point x="723" y="42"/>
      <point x="735" y="60" type="curve" smooth="yes"/>
      <point x="742" y="70"/>
      <point x="746" y="91"/>
      <point x="746" y="115" type="curve" smooth="yes"/>
      <point x="746" y="333" type="line" smooth="yes"/>
      <point x="746" y="405"/>
      <point x="719" y="442"/>
      <point x="667" y="442" type="curve" smooth="yes"/>
      <point x="621" y="442"/>
      <point x="581" y="424"/>
    </contour>
  </outline>
</glyph>
<glyph name="p" format="1">
  <advance width="620"/>
  <unicode hex="0070"/>
  <outline>
    <contour>
      <point x="202" y="485" type="line"/>
      <point x="202" y="419" type="line"/>
      <point x="247" y="470"/>
      <point x="299" y="494"/>
      <point x="365" y="494" type="curve" smooth="yes"/>
      <point x="430" y="494"/>
      <point x="492" y="464"/>
      <point x="528" y="417" type="curve" smooth="yes"/>
      <point x="562" y="372"/>
      <point x="583" y="307"/>
      <point x="583" y="245" type="curve" smooth="yes"/>
      <point x="583" y="101"/>
      <point x="487" y="-9"/>
      <point x="360" y="-9" type="curve" smooth="yes"/>
      <point x="297" y="-9"/>
      <point x="248" y="7"/>
      <point x="202" y="42" type="curve"/>
      <point x="202" y="-113" type="line" smooth="yes"/>
      <point x="202" y="-167"/>
      <point x="220" y="-192"/>
      <point x="264" y="-196" type="curve" smooth="yes"/>
      <point x="289" y="-198" type="line"/>
      <point x="289" y="-228" type="line"/>
      <point x="20" y="-228" type="line"/>
      <point x="20" y="-198" type="line"/>
      <point x="45" y="-196" type="line" smooth="yes"/>
      <point x="89" y="-192"/>
      <point x="107" y="-167"/>
      <point x="107" y="-113" type="curve" smooth="yes"/>
      <point x="107" y="350" type="line" smooth="yes"/>
      <point x="107" y="410"/>
      <point x="93" y="428"/>
      <point x="41" y="433" type="curve" smooth="yes"/>
      <point x="20" y="435" type="line"/>
      <point x="20" y="465" type="line"/>
      <point x="79" y="470"/>
      <point x="110" y="474"/>
      <point x="168" y="485" type="curve"/>
    </contour>
    <contour>
      <point x="202" y="369" type="curve"/>
      <point x="202" y="91" type="line"/>
      <point x="240" y="55"/>
      <point x="285" y="36"/>
      <point x="335" y="36" type="curve" smooth="yes"/>
      <point x="419" y="36"/>
      <point x="481" y="119"/>
      <point x="481" y="233" type="curve" smooth="yes"/>
      <point x="481" y="364"/>
      <point x="423" y="449"/>
      <point x="334" y="449" type="curve" smooth="yes"/>
      <point x="283" y="449"/>
      <point x="244" y="425"/>
    </contour>
  </outline>
</glyph>
<glyph name="q" format="1">
  <advance width="580"/>
  <unicode hex="0071"/>
  <outline>
    <contour>
      <point x="502" y="485" type="line"/>
      <point x="502" y="-113" type="line" smooth="yes"/>
      <point x="502" y="-167"/>
      <point x="520" y="-192"/>
      <point x="564" y="-196" type="curve" smooth="yes"/>
      <point x="589" y="-198" type="line"/>
      <point x="589" y="-228" type="line"/>
      <point x="320" y="-228" type="line"/>
      <point x="320" y="-198" type="line"/>
      <point x="345" y="-196" type="line" smooth="yes"/>
      <point x="389" y="-192"/>
      <point x="407" y="-167"/>
      <point x="407" y="-113" type="curve" smooth="yes"/>
      <point x="407" y="51" type="line"/>
      <point x="347" y="7"/>
      <point x="306" y="-9"/>
      <point x="255" y="-9" type="curve" smooth="yes"/>
      <point x="205" y="-9"/>
      <point x="151" y="13"/>
      <point x="112" y="48" type="curve" smooth="yes"/>
      <point x="63" y="92"/>
      <point x="37" y="156"/>
      <point x="37" y="235" type="curve" smooth="yes"/>
      <point x="37" y="303"/>
      <point x="57" y="364"/>
      <point x="93" y="409" type="curve" smooth="yes"/>
      <point x="134" y="461"/>
      <point x="201" y="494"/>
      <point x="263" y="494" type="curve" smooth="yes"/>
      <point x="319" y="494"/>
      <point x="373" y="472"/>
      <point x="424" y="428" type="curve"/>
      <point x="450" y="485" type="line"/>
    </contour>
    <contour>
      <point x="407" y="99" type="curve"/>
      <point x="407" y="388" type="line"/>
      <point x="371" y="432"/>
      <point x="338" y="449"/>
      <point x="292" y="449" type="curve" smooth="yes"/>
      <point x="243" y="449"/>
      <point x="194" y="420"/>
      <point x="170" y="377" type="curve" smooth="yes"/>
      <point x="150" y="342"/>
      <point x="139" y="292"/>
      <point x="139" y="237" type="curve" smooth="yes"/>
      <point x="139" y="119"/>
      <point x="199" y="36"/>
      <point x="282" y="36" type="curve" smooth="yes"/>
      <point x="321" y="36"/>
      <point x="357" y="54"/>
    </contour>
  </outline>
</glyph>
<glyph name="r" format="1">
  <advance width="440"/>
  <unicode hex="0072"/>
  <outline>
    <contour>
      <point x="205" y="485" type="line"/>
      <point x="205" y="405" type="line"/>
      <point x="215" y="413"/>
      <point x="223" y="420"/>
      <point x="226" y="423" type="curve" smooth="yes"/>
      <point x="274" y="464"/>
      <point x="279" y="468"/>
      <point x="303" y="478" type="curve" smooth="yes"/>
      <point x="327" y="489"/>
      <point x="351" y="494"/>
      <point x="374" y="494" type="curve" smooth="yes"/>
      <point x="417" y="494"/>
      <point x="447" y="471"/>
      <point x="447" y="438" type="curve" smooth="yes"/>
      <point x="447" y="406"/>
      <point x="423" y="383"/>
      <point x="390" y="383" type="curve" smooth="yes"/>
      <point x="372" y="383"/>
      <point x="356" y="388"/>
      <point x="339" y="401" type="curve"/>
      <point x="321" y="413"/>
      <point x="314" y="416"/>
      <point x="297" y="416" type="curve" smooth="yes"/>
      <point x="268" y="416"/>
      <point x="241" y="400"/>
      <point x="205" y="360" type="curve"/>
      <point x="205" y="115" type="line" smooth="yes"/>
      <point x="205" y="60"/>
      <point x="223" y="37"/>
      <point x="267" y="32" type="curve"/>
      <point x="292" y="30" type="line"/>
      <point x="292" y="0" type="line"/>
      <point x="23" y="0" type="line"/>
      <point x="23" y="30" type="line"/>
      <point x="48" y="32" type="line"/>
      <point x="92" y="37"/>
      <point x="110" y="60"/>
      <point x="110" y="115" type="curve" smooth="yes"/>
      <point x="110" y="350" type="line" smooth="yes"/>
      <point x="110" y="410"/>
      <point x="95" y="429"/>
      <point x="44" y="433" type="curve" smooth="yes"/>
      <point x="20" y="435" type="line"/>
      <point x="20" y="465" type="line"/>
      <point x="76" y="469"/>
      <point x="109" y="473"/>
      <point x="171" y="485" type="curve"/>
    </contour>
  </outline>
</glyph>
<glyph name="v" format="1">
  <advance width="520"/>
  <unicode hex="0076"/>
  <outline>
    <contour>
      <point x="278" y="88" type="line"/>
      <point x="382" y="362" type="line" smooth="yes"/>
      <point x="388" y="377"/>
      <point x="392" y="394"/>
      <point x="392" y="404" type="curve" smooth="yes"/>
      <point x="392" y="435"/>
      <point x="376" y="448"/>
      <point x="328" y="455" type="curve"/>
      <point x="328" y="485" type="line"/>
      <point x="534" y="485" type="line"/>
      <point x="534" y="453" type="line"/>
      <point x="487" y="442"/>
      <point x="457" y="413"/>
      <point x="430" y="354" type="curve"/>
      <point x="277" y="0" type="line"/>
      <point x="218" y="0" type="line"/>
      <point x="59" y="385" type="line"/>
      <point x="36" y="436"/>
      <point x="22" y="447"/>
      <point x="-23" y="454" type="curve"/>
      <point x="-23" y="485" type="line"/>
      <point x="221" y="485" type="line"/>
      <point x="221" y="455" type="line"/>
      <point x="213" y="454"/>
      <point x="206" y="453"/>
      <point x="204" y="453" type="curve" smooth="yes"/>
      <point x="171" y="450"/>
      <point x="157" y="440"/>
      <point x="157" y="419" type="curve" smooth="yes"/>
      <point x="157" y="412"/>
      <point x="161" y="397"/>
      <point x="165" y="385" type="curve" smooth="yes"/>
    </contour>
  </outline>
</glyph>
<glyph name="braceright" format="1">
  <advance width="280"/>
  <unicode hex="007D"/>
  <outline>
    <contour>
      <point x="35" y="705" type="curve"/>
      <point x="35" y="737" type="line"/>
      <point x="46" y="738"/>
      <point x="59" y="738"/>
      <point x="64" y="738" type="curve" smooth="yes"/>
      <point x="138" y="738"/>
      <point x="173" y="698"/>
      <point x="173" y="613" type="curve" smooth="yes"/>
      <point x="173" y="393" type="line" smooth="yes"/>
      <point x="173" y="352"/>
      <point x="196" y="332"/>
      <point x="248" y="324" type="curve"/>
      <point x="248" y="292" type="line"/>
      <point x="196" y="284"/>
      <point x="173" y="264"/>
      <point x="173" y="223" type="curve" smooth="yes"/>
      <point x="173" y="3" type="line" smooth="yes"/>
      <point x="173" y="-84"/>
      <point x="139" y="-122"/>
      <point x="60" y="-122" type="curve"/>
      <point x="35" y="-121" type="line"/>
      <point x="35" y="-89" type="line"/>
      <point x="89" y="-79"/>
      <point x="111" y="-58"/>
      <point x="111" y="-18" type="curve" smooth="yes"/>
      <point x="111" y="203" type="line" smooth="yes"/>
      <point x="111" y="261"/>
      <point x="123" y="284"/>
      <point x="167" y="308" type="curve"/>
      <point x="123" y="332"/>
      <point x="111" y="355"/>
      <point x="111" y="413" type="curve" smooth="yes"/>
      <point x="111" y="634" type="line" smooth="yes"/>
      <point x="111" y="674"/>
      <point x="89" y="695"/>
    </contour>
  </outline>
</glyph>
<glyph name="asciitilde" format="1">
  <advance width="600"/>
  <unicode hex="007E"/>
  <outline>
    <contour>
      <point x="513" y="332" type="curve"/>
      <point x="556" y="285" type="line"/>
      <point x="519" y="214"/>
      <point x="468" y="173"/>
      <point x="416" y="173" type="curve" smooth="yes"/>
      <point x="393" y="173"/>
      <point x="368" y="180"/>
      <point x="323" y="199" type="curve" smooth="yes"/>
      <point x="269" y="221" type="line" smooth="yes"/>
      <point x="226" y="239"/>
      <point x="215" y="242"/>
      <point x="196" y="242" type="curve" smooth="yes"/>
      <point x="170" y="242"/>
      <point x="146" y="229"/>
      <point x="129" y="207" type="curve"/>
      <point x="119" y="192"/>
      <point x="113" y="184"/>
      <point x="94" y="152" type="curve"/>
      <point x="52" y="199" type="line"/>
      <point x="103" y="288"/>
      <point x="140" y="319"/>
      <point x="196" y="319" type="curve" smooth="yes"/>
      <point x="217" y="319"/>
      <point x="243" y="313"/>
      <point x="272" y="300" type="curve" smooth="yes"/>
      <point x="337" y="273" type="line" smooth="yes"/>
      <point x="380" y="255"/>
      <point x="398" y="250"/>
      <point x="417" y="250" type="curve" smooth="yes"/>
      <point x="450" y="250"/>
      <point x="478" y="274"/>
    </contour>
  </outline>
</glyph>
<glyph name="exclamdown" format="1">
  <advance width="300"/>
  <unicode hex="00A1"/>
  <outline>
    <contour>
      <point x="151" y="494" type="curve" smooth="yes"/>
      <point x="186" y="494"/>
      <point x="215" y="465"/>
      <point x="215" y="429" type="curve" smooth="yes"/>
      <point x="215" y="394"/>
      <point x="186" y="365"/>
      <point x="150" y="365" type="curve" smooth="yes"/>
      <point x="115" y="365"/>
      <point x="86" y="395"/>
      <point x="86" y="429" type="curve" smooth="yes"/>
      <point x="86" y="465"/>
      <point x="115" y="494"/>
    </contour>
    <contour>
      <point x="134" y="307" type="line"/>
      <point x="170" y="307" type="line"/>
      <point x="170" y="275" type="line" smooth="yes"/>
      <point x="170" y="237"/>
      <point x="177" y="152"/>
      <point x="185" y="109" type="curve" smooth="yes"/>
      <point x="207" y="-22" type="line" smooth="yes"/>
      <point x="219" y="-90"/>
      <point x="219" y="-90"/>
      <point x="219" y="-112" type="curve" smooth="yes"/>
      <point x="219" y="-180"/>
      <point x="195" y="-213"/>
      <point x="147" y="-213" type="curve" smooth="yes"/>
      <point x="102" y="-213"/>
      <point x="75" y="-179"/>
      <point x="75" y="-121" type="curve" smooth="yes"/>
      <point x="75" y="-100"/>
      <point x="80" y="-65"/>
      <point x="89" y="-19" type="curve" smooth="yes"/>
      <point x="117" y="117" type="line" smooth="yes"/>
      <point x="126" y="164"/>
      <point x="134" y="238"/>
      <point x="134" y="276" type="curve" smooth="yes"/>
    </contour>
  </outline>
</glyph>
<glyph name="yen" format="1">
  <advance width="620"/>
  <unicode hex="00A5"/>
  <outline>
    <contour>
      <point x="347" y="235" type="line"/>
      <point x="347" y="130" type="line" smooth="yes"/>
      <point x="347" y="51"/>
      <point x="365" y="33"/>
      <point x="446" y="30" type="curve"/>
      <point x="446" y="0" type="line"/>
      <point x="158" y="0" type="line"/>
      <point x="158" y="30" type="line"/>
      <point x="176" y="31" type="line" smooth="yes"/>
      <point x="241" y="34"/>
      <point x="257" y="54"/>
      <point x="257" y="130" type="curve" smooth="yes"/>
      <point x="257" y="235" type="line"/>
      <point x="30" y="235" type="line"/>
      <point x="30" y="275" type="line"/>
      <point x="257" y="275" type="line"/>
      <point x="257" y="285" type="line"/>
      <point x="193" y="394" type="line"/>
      <point x="30" y="394" type="line"/>
      <point x="30" y="434" type="line"/>
      <point x="168" y="434" type="line"/>
      <point x="95" y="556" type="line" smooth="yes"/>
      <point x="51" y="631"/>
      <point x="41" y="639"/>
      <point x="-22" y="654" type="curve"/>
      <point x="-22" y="681" type="line"/>
      <point x="246" y="681" type="line"/>
      <point x="246" y="654" type="line"/>
      <point x="235" y="652" type="line" smooth="yes"/>
      <point x="186" y="643"/>
      <point x="171" y="633"/>
      <point x="171" y="611" type="curve" smooth="yes"/>
      <point x="171" y="599"/>
      <point x="174" y="592"/>
      <point x="193" y="560" type="curve" smooth="yes"/>
      <point x="324" y="346" type="line"/>
      <point x="446" y="549" type="line" smooth="yes"/>
      <point x="471" y="590"/>
      <point x="473" y="594"/>
      <point x="473" y="607" type="curve" smooth="yes"/>
      <point x="473" y="632"/>
      <point x="461" y="640"/>
      <point x="404" y="654" type="curve"/>
      <point x="404" y="681" type="line"/>
      <point x="647" y="681" type="line"/>
      <point x="647" y="654" type="line"/>
      <point x="576" y="641"/>
      <point x="557" y="626"/>
      <point x="499" y="537" type="curve"/>
      <point x="430" y="434" type="line"/>
      <point x="578" y="434" type="line"/>
      <point x="578" y="394" type="line"/>
      <point x="404" y="394" type="line"/>
      <point x="347" y="308" type="line"/>
      <point x="347" y="275" type="line"/>
      <point x="578" y="275" type="line"/>
      <point x="578" y="235" type="line"/>
    </contour>
  </outline>
</glyph>
<glyph name="brokenbar" format="1">
  <advance width="600"/>
  <unicode hex="00A6"/>
  <outline>
    <contour>
      <point x="342" y="722" type="line"/>
      <point x="342" y="435" type="line"/>
      <point x="264" y="435" type="line"/>
      <point x="264" y="722" type="line"/>
    </contour>
    <contour>
      <point x="342" y="287" type="line"/>
      <point x="342" y="0" type="line"/>
      <point x="264" y="0" type="line"/>
      <point x="264" y="287" type="line"/>
    </contour>
  </outline>
</glyph>
<glyph name="dieresis" format="1">
  <advance width="420"/>
  <unicode hex="00A8"/>
  <outline>
    <contour>
      <point x="128" y="681" type="curve" smooth="yes"/>
      <point x="159" y="681"/>
      <point x="186" y="654"/>
      <point x="186" y="622" type="curve" smooth="yes"/>
      <point x="186" y="590"/>
      <point x="159" y="563"/>
      <point x="127" y="563" type="curve" smooth="yes"/>
      <point x="95" y="563"/>
      <point x="68" y="590"/>
      <point x="68" y="622" type="curve" smooth="yes"/>
      <point x="68" y="655"/>
      <point x="95" y="681"/>
    </contour>
    <contour>
      <point x="291" y="681" type="curve" smooth="yes"/>
      <point x="322" y="681"/>
      <point x="349" y="654"/>
      <point x="349" y="622" type="curve" smooth="yes"/>
      <point x="349" y="590"/>
      <point x="322" y="563"/>
      <point x="290" y="563" type="curve" smooth="yes"/>
      <point x="258" y="563"/>
      <point x="231" y="590"/>
      <point x="231" y="622" type="curve" smooth="yes"/>
      <point x="231" y="655"/>
      <point x="258" y="681"/>
    </contour>
  </outline>
</glyph>
<glyph name="copyright" format="1">
  <advance width="740"/>
  <unicode hex="00A9"/>
  <outline>
    <contour>
      <point x="511" y="529" type="line"/>
      <point x="539" y="391" type="line"/>
      <point x="516" y="391" type="line"/>
      <point x="498" y="424"/>
      <point x="492" y="434"/>
      <point x="481" y="450" type="curve" smooth="yes"/>
      <point x="455" y="487"/>
      <point x="415" y="509"/>
      <point x="376" y="509" type="curve" smooth="yes"/>
      <point x="305" y="509"/>
      <point x="252" y="438"/>
      <point x="252" y="343" type="curve" smooth="yes"/>
      <point x="252" y="294"/>
      <point x="266" y="250"/>
      <point x="291" y="223" type="curve" smooth="yes"/>
      <point x="315" y="197"/>
      <point x="354" y="179"/>
      <point x="387" y="179" type="curve" smooth="yes"/>
      <point x="438" y="179"/>
      <point x="487" y="209"/>
      <point x="522" y="262" type="curve"/>
      <point x="551" y="246" type="line"/>
      <point x="508" y="179"/>
      <point x="452" y="147"/>
      <point x="379" y="147" type="curve" smooth="yes"/>
      <point x="266" y="147"/>
      <point x="182" y="231"/>
      <point x="182" y="342" type="curve" smooth="yes"/>
      <point x="182" y="395"/>
      <point x="201" y="444"/>
      <point x="234" y="480" type="curve" smooth="yes"/>
      <point x="269" y="517"/>
      <point x="321" y="541"/>
      <point x="366" y="541" type="curve" smooth="yes"/>
      <point x="412" y="541"/>
      <point x="448" y="530"/>
      <point x="478" y="508" type="curve"/>
      <point x="489" y="529" type="line"/>
    </contour>
    <contour>
      <point x="378" y="700" type="curve" smooth="yes"/>
      <point x="461" y="700"/>
      <point x="556" y="660"/>
      <point x="621" y="597" type="curve" smooth="yes"/>
      <point x="688" y="533"/>
      <point x="724" y="448"/>
      <point x="724" y="353" type="curve" smooth="yes"/>
      <point x="724" y="157"/>
      <point x="568" y="0"/>
      <point x="374" y="0" type="curve" smooth="yes"/>
      <point x="180" y="0"/>
      <point x="24" y="157"/>
      <point x="24" y="352" type="curve" smooth="yes"/>
      <point x="24" y="448"/>
      <point x="60" y="535"/>
      <point x="127" y="597" type="curve" smooth="yes"/>
      <point x="197" y="663"/>
      <point x="287" y="700"/>
    </contour>
    <contour>
      <point x="377" y="660" type="curve" smooth="yes"/>
      <point x="297" y="660"/>
      <point x="217" y="627"/>
      <point x="157" y="569" type="curve" smooth="yes"/>
      <point x="98" y="512"/>
      <point x="67" y="437"/>
      <point x="67" y="352" type="curve" smooth="yes"/>
      <point x="67" y="179"/>
      <point x="204" y="40"/>
      <point x="374" y="40" type="curve" smooth="yes"/>
      <point x="544" y="40"/>
      <point x="681" y="179"/>
      <point x="681" y="353" type="curve" smooth="yes"/>
      <point x="681" y="437"/>
      <point x="649" y="515"/>
      <point x="591" y="569" type="curve" smooth="yes"/>
      <point x="532" y="625"/>
      <point x="450" y="660"/>
    </contour>
  </outline>
</glyph>
<glyph name="ordfeminine" format="1">
  <advance width="420"/>
  <unicode hex="00AA"/>
  <outline>
    <contour>
      <point x="374" y="429" type="curve"/>
      <point x="393" y="405" type="line"/>
      <point x="371" y="387"/>
      <point x="356" y="381"/>
      <point x="330" y="381" type="curve" smooth="yes"/>
      <point x="291" y="381"/>
      <point x="266" y="394"/>
      <point x="254" y="420" type="curve"/>
      <point x="216" y="391"/>
      <point x="186" y="380"/>
      <point x="147" y="380" type="curve" smooth="yes"/>
      <point x="89" y="380"/>
      <point x="49" y="412"/>
      <point x="49" y="459" type="curve" smooth="yes"/>
      <point x="49" y="489"/>
      <point x="68" y="515"/>
      <point x="101" y="530" type="curve" smooth="yes"/>
      <point x="135" y="546"/>
      <point x="165" y="552"/>
      <point x="251" y="564" type="curve"/>
      <point x="251" y="609" type="line" smooth="yes"/>
      <point x="251" y="636"/>
      <point x="226" y="653"/>
      <point x="186" y="653" type="curve" smooth="yes"/>
      <point x="168" y="653"/>
      <point x="154" y="648"/>
      <point x="143" y="639" type="curve" smooth="yes"/>
      <point x="139" y="636"/>
      <point x="139" y="634"/>
      <point x="139" y="625" type="curve" smooth="yes"/>
      <point x="139" y="618" type="line" smooth="yes"/>
      <point x="139" y="595"/>
      <point x="124" y="580"/>
      <point x="103" y="580" type="curve" smooth="yes"/>
      <point x="85" y="580"/>
      <point x="69" y="595"/>
      <point x="69" y="612" type="curve" smooth="yes"/>
      <point x="69" y="649"/>
      <point x="131" y="685"/>
      <point x="195" y="685" type="curve" smooth="yes"/>
      <point x="233" y="685"/>
      <point x="273" y="674"/>
      <point x="294" y="658" type="curve" smooth="yes"/>
      <point x="312" y="645"/>
      <point x="319" y="628"/>
      <point x="319" y="599" type="curve" smooth="yes"/>
      <point x="319" y="468" type="line" smooth="yes"/>
      <point x="319" y="431"/>
      <point x="325" y="418"/>
      <point x="344" y="418" type="curve" smooth="yes"/>
      <point x="354" y="418"/>
      <point x="365" y="422"/>
    </contour>
    <contour>
      <point x="251" y="457" type="curve"/>
      <point x="251" y="533" type="line"/>
      <point x="155" y="518"/>
      <point x="119" y="499"/>
      <point x="119" y="463" type="curve" smooth="yes"/>
      <point x="119" y="436"/>
      <point x="140" y="417"/>
      <point x="169" y="417" type="curve" smooth="yes"/>
      <point x="195" y="417"/>
      <point x="219" y="429"/>
    </contour>
    <contour>
      <point x="368" y="328" type="line"/>
      <point x="368" y="288" type="line"/>
      <point x="63" y="288" type="line"/>
      <point x="63" y="328" type="line"/>
    </contour>
  </outline>
</glyph>
<glyph name="logicalnot" format="1">
  <advance width="600"/>
  <unicode hex="00AC"/>
  <outline>
    <contour>
      <point x="51" y="370" type="line"/>
      <point x="555" y="370" type="line"/>
      <point x="555" y="80" type="line"/>
      <point x="480" y="80" type="line"/>
      <point x="480" y="292" type="line"/>
      <point x="51" y="292" type="line"/>
    </contour>
  </outline>
</glyph>
<glyph name="macron" format="1">
  <advance width="440"/>
  <unicode hex="00AF"/>
  <outline>
    <contour>
      <point x="364" y="637" type="line"/>
      <point x="364" y="587" type="line"/>
      <point x="68" y="587" type="line"/>
      <point x="68" y="637" type="line"/>
    </contour>
  </outline>
</glyph>
<glyph name="plusminus" format="1">
  <advance width="600"/>
  <unicode hex="00B1"/>
  <outline>
    <contour>
      <point x="555" y="392" type="line"/>
      <point x="555" y="314" type="line"/>
      <point x="342" y="314" type="line"/>
      <point x="342" y="127" type="line"/>
      <point x="264" y="127" type="line"/>
      <point x="264" y="314" type="line"/>
      <point x="51" y="314" type="line"/>
      <point x="51" y="392" type="line"/>
      <point x="264" y="392" type="line"/>
      <point x="264" y="595" type="line"/>
      <point x="342" y="595" type="line"/>
      <point x="342" y="392" type="line"/>
    </contour>
    <contour>
      <point x="555" y="78" type="line"/>
      <point x="555" y="0" type="line"/>
      <point x="51" y="0" type="line"/>
      <point x="51" y="78" type="line"/>
    </contour>
  </outline>
</glyph>
<glyph name="twosuperior" format="1">
  <advance width="372"/>
  <unicode hex="00B2"/>
  <outline>
    <contour>
      <point x="367" y="390" type="line"/>
      <point x="335" y="273" type="line"/>
      <point x="20" y="273" type="line"/>
      <point x="20" y="321" type="line"/>
      <point x="90" y="361"/>
      <point x="105" y="372"/>
      <point x="139" y="401" type="curve" smooth="yes"/>
      <point x="211" y="462"/>
      <point x="251" y="525"/>
      <point x="251" y="577" type="curve" smooth="yes"/>
      <point x="251" y="622"/>
      <point x="219" y="652"/>
      <point x="169" y="652" type="curve" smooth="yes"/>
      <point x="126" y="652"/>
      <point x="85" y="628"/>
      <point x="85" y="602" type="curve" smooth="yes"/>
      <point x="85" y="594"/>
      <point x="87" y="590"/>
      <point x="98" y="578" type="curve" smooth="yes"/>
      <point x="104" y="572"/>
      <point x="108" y="563"/>
      <point x="108" y="556" type="curve" smooth="yes"/>
      <point x="108" y="538"/>
      <point x="89" y="521"/>
      <point x="68" y="521" type="curve" smooth="yes"/>
      <point x="42" y="521"/>
      <point x="22" y="544"/>
      <point x="22" y="575" type="curve" smooth="yes"/>
      <point x="22" y="637"/>
      <point x="93" y="689"/>
      <point x="177" y="689" type="curve" smooth="yes"/>
      <point x="268" y="689"/>
      <point x="333" y="639"/>
      <point x="333" y="570" type="curve" smooth="yes"/>
      <point x="333" y="518"/>
      <point x="297" y="464"/>
      <point x="223" y="405" type="curve" smooth="yes"/>
      <point x="194" y="382"/>
      <point x="175" y="370"/>
      <point x="108" y="329" type="curve"/>
      <point x="241" y="329" type="line" smooth="yes"/>
      <point x="296" y="329"/>
      <point x="308" y="336"/>
      <point x="328" y="380" type="curve" smooth="yes"/>
      <point x="336" y="397" type="line"/>
    </contour>
  </outline>
</glyph>
<glyph name="threesuperior" format="1">
  <advance width="372"/>
  <unicode hex="00B3"/>
  <outline>
    <contour>
      <point x="247" y="499" type="curve"/>
      <point x="260" y="496" type="line" smooth="yes"/>
      <point x="322" y="482"/>
      <point x="360" y="442"/>
      <point x="360" y="392" type="curve" smooth="yes"/>
      <point x="360" y="318"/>
      <point x="282" y="265"/>
      <point x="175" y="265" type="curve" smooth="yes"/>
      <point x="83" y="265"/>
      <point x="12" y="306"/>
      <point x="12" y="359" type="curve" smooth="yes"/>
      <point x="12" y="384"/>
      <point x="31" y="404"/>
      <point x="54" y="404" type="curve" smooth="yes"/>
      <point x="76" y="404"/>
      <point x="93" y="389"/>
      <point x="93" y="368" type="curve" smooth="yes"/>
      <point x="93" y="361"/>
      <point x="93" y="361"/>
      <point x="88" y="347" type="curve" smooth="yes"/>
      <point x="87" y="345"/>
      <point x="87" y="343"/>
      <point x="87" y="342" type="curve" smooth="yes"/>
      <point x="87" y="320"/>
      <point x="126" y="302"/>
      <point x="173" y="302" type="curve" smooth="yes"/>
      <point x="239" y="302"/>
      <point x="278" y="335"/>
      <point x="278" y="392" type="curve" smooth="yes"/>
      <point x="278" y="448"/>
      <point x="240" y="481"/>
      <point x="174" y="481" type="curve" smooth="yes"/>
      <point x="168" y="481"/>
      <point x="168" y="481"/>
      <point x="128" y="478" type="curve"/>
      <point x="128" y="514" type="line"/>
      <point x="139" y="513"/>
      <point x="158" y="512"/>
      <point x="164" y="512" type="curve" smooth="yes"/>
      <point x="223" y="512"/>
      <point x="260" y="540"/>
      <point x="260" y="584" type="curve" smooth="yes"/>
      <point x="260" y="625"/>
      <point x="229" y="652"/>
      <point x="181" y="652" type="curve" smooth="yes"/>
      <point x="141" y="652"/>
      <point x="109" y="635"/>
      <point x="109" y="613" type="curve" smooth="yes"/>
      <point x="109" y="610"/>
      <point x="109" y="610"/>
      <point x="114" y="595" type="curve" smooth="yes"/>
      <point x="116" y="590"/>
      <point x="117" y="584"/>
      <point x="117" y="580" type="curve" smooth="yes"/>
      <point x="117" y="562"/>
      <point x="100" y="548"/>
      <point x="79" y="548" type="curve" smooth="yes"/>
      <point x="56" y="548"/>
      <point x="39" y="566"/>
      <point x="39" y="590" type="curve" smooth="yes"/>
      <point x="39" y="645"/>
      <point x="103" y="689"/>
      <point x="183" y="689" type="curve" smooth="yes"/>
      <point x="270" y="689"/>
      <point x="335" y="647"/>
      <point x="335" y="589" type="curve" smooth="yes"/>
      <point x="335" y="547"/>
      <point x="303" y="514"/>
    </contour>
  </outline>
</glyph>
<glyph name="paragraph" format="1">
  <advance width="600"/>
  <unicode hex="00B6"/>
  <outline>
    <contour>
      <point x="268" y="297" type="line"/>
      <point x="252" y="297" type="line" smooth="yes"/>
      <point x="184" y="297"/>
      <point x="137" y="308"/>
      <point x="97" y="333" type="curve" smooth="yes"/>
      <point x="47" y="365"/>
      <point x="14" y="427"/>
      <point x="14" y="489" type="curve" smooth="yes"/>
      <point x="14" y="560"/>
      <point x="53" y="622"/>
      <point x="116" y="653" type="curve"/>
      <point x="161" y="674"/>
      <point x="199" y="681"/>
      <point x="274" y="681" type="curve" smooth="yes"/>
      <point x="577" y="681" type="line"/>
      <point x="577" y="648" type="line"/>
      <point x="556" y="646" type="line" smooth="yes"/>
      <point x="499" y="640"/>
      <point x="488" y="624"/>
      <point x="488" y="544" type="curve" smooth="yes"/>
      <point x="488" y="129" type="line" smooth="yes"/>
      <point x="488" y="62"/>
      <point x="504" y="39"/>
      <point x="556" y="34" type="curve" smooth="yes"/>
      <point x="577" y="32" type="line"/>
      <point x="577" y="0" type="line"/>
      <point x="168" y="0" type="line"/>
      <point x="168" y="32" type="line"/>
      <point x="187" y="34" type="line" smooth="yes"/>
      <point x="254" y="41"/>
      <point x="268" y="57"/>
      <point x="268" y="129" type="curve" smooth="yes"/>
    </contour>
    <contour>
      <point x="417" y="648" type="line"/>
      <point x="342" y="648" type="line"/>
      <point x="342" y="33" type="line"/>
      <point x="417" y="33" type="line"/>
    </contour>
    <contour>
      <point x="268" y="327" type="curve"/>
      <point x="268" y="648" type="line"/>
      <point x="171" y="647"/>
      <point x="114" y="590"/>
      <point x="114" y="494" type="curve" smooth="yes"/>
      <point x="114" y="399"/>
      <point x="175" y="333"/>
    </contour>
  </outline>
</glyph>
<glyph name="ordmasculine" format="1">
  <advance width="420"/>
  <unicode hex="00BA"/>
  <outline>
    <contour>
      <point x="207" y="685" type="curve" smooth="yes"/>
      <point x="299" y="685"/>
      <point x="360" y="624"/>
      <point x="360" y="532" type="curve" smooth="yes"/>
      <point x="360" y="441"/>
      <point x="299" y="380"/>
      <point x="209" y="380" type="curve" smooth="yes"/>
      <point x="116" y="380"/>
      <point x="56" y="440"/>
      <point x="56" y="534" type="curve" smooth="yes"/>
      <point x="56" y="624"/>
      <point x="116" y="685"/>
    </contour>
    <contour>
      <point x="208" y="653" type="curve" smooth="yes"/>
      <point x="157" y="653"/>
      <point x="126" y="608"/>
      <point x="126" y="535" type="curve" smooth="yes"/>
      <point x="126" y="455"/>
      <point x="156" y="412"/>
      <point x="209" y="412" type="curve" smooth="yes"/>
      <point x="261" y="412"/>
      <point x="290" y="454"/>
      <point x="290" y="530" type="curve" smooth="yes"/>
      <point x="290" y="608"/>
      <point x="260" y="653"/>
    </contour>
    <contour>
      <point x="361" y="328" type="line"/>
      <point x="361" y="288" type="line"/>
      <point x="56" y="288" type="line"/>
      <point x="56" y="328" type="line"/>
    </contour>
  </outline>
</glyph>
<glyph name="onequarter" format="1">
  <advance width="930"/>
  <unicode hex="00BC"/>
  <outline>
    <contour>
      <point x="225" y="681" type="line"/>
      <point x="225" y="359" type="line" smooth="yes"/>
      <point x="225" y="328"/>
      <point x="228" y="317"/>
      <point x="238" y="310" type="curve" smooth="yes"/>
      <point x="244" y="305"/>
      <point x="266" y="300"/>
      <point x="277" y="300" type="curve" smooth="yes"/>
      <point x="302" y="300" type="line"/>
      <point x="302" y="273" type="line"/>
      <point x="80" y="273" type="line"/>
      <point x="80" y="300" type="line"/>
      <point x="106" y="300" type="line" smooth="yes"/>
      <point x="119" y="300"/>
      <point x="143" y="308"/>
      <point x="151" y="316" type="curve" smooth="yes"/>
      <point x="157" y="321"/>
      <point x="158" y="330"/>
      <point x="158" y="361" type="curve" smooth="yes"/>
      <point x="158" y="585" type="line" smooth="yes"/>
      <point x="158" y="629"/>
      <point x="153" y="634"/>
      <point x="111" y="636" type="curve" smooth="yes"/>
      <point x="82" y="637" type="line"/>
      <point x="82" y="663" type="line"/>
      <point x="146" y="670"/>
      <point x="159" y="672"/>
      <point x="200" y="681" type="curve"/>
    </contour>
    <contour>
      <point x="723" y="681" type="line"/>
      <point x="258" y="0" type="line"/>
      <point x="200" y="0" type="line"/>
      <point x="664" y="681" type="line"/>
    </contour>
    <contour>
      <point x="774" y="408" type="line"/>
      <point x="774" y="152" type="line"/>
      <point x="869" y="152" type="line"/>
      <point x="852" y="109" type="line"/>
      <point x="774" y="109" type="line"/>
      <point x="774" y="88" type="line" smooth="yes"/>
      <point x="774" y="41"/>
      <point x="782" y="28"/>
      <point x="810" y="27" type="curve" smooth="yes"/>
      <point x="834" y="26" type="line"/>
      <point x="834" y="0" type="line"/>
      <point x="647" y="0" type="line"/>
      <point x="647" y="26" type="line"/>
      <point x="671" y="27" type="line" smooth="yes"/>
      <point x="700" y="28"/>
      <point x="707" y="41"/>
      <point x="707" y="88" type="curve" smooth="yes"/>
      <point x="707" y="109" type="line"/>
      <point x="515" y="109" type="line"/>
      <point x="503" y="139" type="line"/>
      <point x="602" y="263" type="line"/>
      <point x="666" y="350"/>
      <point x="701" y="398"/>
      <point x="709" y="408" type="curve"/>
    </contour>
    <contour>
      <point x="707" y="152" type="line"/>
      <point x="707" y="342" type="line"/>
      <point x="673" y="296"/>
      <point x="643" y="257"/>
      <point x="629" y="240" type="curve" smooth="yes"/>
      <point x="560" y="152" type="line"/>
    </contour>
  </outline>
</glyph>
<glyph name="threequarters" format="1">
  <advance width="930"/>
  <unicode hex="00BE"/>
  <outline>
    <contour>
      <point x="287" y="499" type="curve"/>
      <point x="300" y="496" type="line" smooth="yes"/>
      <point x="362" y="482"/>
      <point x="400" y="442"/>
      <point x="400" y="392" type="curve" smooth="yes"/>
      <point x="400" y="318"/>
      <point x="322" y="265"/>
      <point x="215" y="265" type="curve" smooth="yes"/>
      <point x="123" y="265"/>
      <point x="52" y="306"/>
      <point x="52" y="359" type="curve" smooth="yes"/>
      <point x="52" y="384"/>
      <point x="71" y="404"/>
      <point x="94" y="404" type="curve" smooth="yes"/>
      <point x="116" y="404"/>
      <point x="133" y="389"/>
      <point x="133" y="368" type="curve" smooth="yes"/>
      <point x="133" y="361"/>
      <point x="133" y="361"/>
      <point x="128" y="347" type="curve" smooth="yes"/>
      <point x="127" y="345"/>
      <point x="127" y="343"/>
      <point x="127" y="342" type="curve" smooth="yes"/>
      <point x="127" y="320"/>
      <point x="166" y="302"/>
      <point x="213" y="302" type="curve" smooth="yes"/>
      <point x="279" y="302"/>
      <point x="318" y="335"/>
      <point x="318" y="392" type="curve" smooth="yes"/>
      <point x="318" y="448"/>
      <point x="280" y="481"/>
      <point x="214" y="481" type="curve" smooth="yes"/>
      <point x="208" y="481"/>
      <point x="208" y="481"/>
      <point x="168" y="478" type="curve"/>
      <point x="168" y="514" type="line"/>
      <point x="179" y="513"/>
      <point x="198" y="512"/>
      <point x="204" y="512" type="curve" smooth="yes"/>
      <point x="263" y="512"/>
      <point x="300" y="540"/>
      <point x="300" y="584" type="curve" smooth="yes"/>
      <point x="300" y="625"/>
      <point x="269" y="652"/>
      <point x="221" y="652" type="curve" smooth="yes"/>
      <point x="181" y="652"/>
      <point x="149" y="635"/>
      <point x="149" y="613" type="curve" smooth="yes"/>
      <point x="149" y="610"/>
      <point x="149" y="610"/>
      <point x="154" y="595" type="curve" smooth="yes"/>
      <point x="156" y="590"/>
      <point x="157" y="584"/>
      <point x="157" y="580" type="curve" smooth="yes"/>
      <point x="157" y="562"/>
      <point x="140" y="548"/>
      <point x="119" y="548" type="curve" smooth="yes"/>
      <point x="96" y="548"/>
      <point x="79" y="566"/>
      <point x="79" y="590" type="curve" smooth="yes"/>
      <point x="79" y="645"/>
      <point x="143" y="689"/>
      <point x="223" y="689" type="curve" smooth="yes"/>
      <point x="310" y="689"/>
      <point x="375" y="647"/>
      <point x="375" y="589" type="curve" smooth="yes"/>
      <point x="375" y="547"/>
      <point x="343" y="514"/>
    </contour>
    <contour>
      <point x="769" y="681" type="line"/>
      <point x="304" y="0" type="line"/>
      <point x="246" y="0" type="line"/>
      <point x="710" y="681" type="line"/>
    </contour>
    <contour>
      <point x="794" y="408" type="line"/>
      <point x="794" y="152" type="line"/>
      <point x="889" y="152" type="line"/>
      <point x="872" y="109" type="line"/>
      <point x="794" y="109" type="line"/>
      <point x="794" y="88" type="line" smooth="yes"/>
      <point x="794" y="41"/>
      <point x="802" y="28"/>
      <point x="830" y="27" type="curve" smooth="yes"/>
      <point x="854" y="26" type="line"/>
      <point x="854" y="0" type="line"/>
      <point x="667" y="0" type="line"/>
      <point x="667" y="26" type="line"/>
      <point x="691" y="27" type="line" smooth="yes"/>
      <point x="720" y="28"/>
      <point x="727" y="41"/>
      <point x="727" y="88" type="curve" smooth="yes"/>
      <point x="727" y="109" type="line"/>
      <point x="535" y="109" type="line"/>
      <point x="523" y="139" type="line"/>
      <point x="622" y="263" type="line"/>
      <point x="686" y="350"/>
      <point x="721" y="398"/>
      <point x="729" y="408" type="curve"/>
    </contour>
    <contour>
      <point x="727" y="152" type="line"/>
      <point x="727" y="342" type="line"/>
      <point x="611" y="191" type="line"/>
      <point x="585" y="158" type="line"/>
      <point x="580" y="152" type="line"/>
    </contour>
  </outline>
</glyph>
<glyph name="Oslash" format="1">
  <advance width="800"/>
  <unicode hex="00D8"/>
  <outline>
    <contour>
      <point x="741" y="734" type="line"/>
      <point x="642" y="611" type="line"/>
      <point x="724" y="528"/>
      <point x="758" y="450"/>
      <point x="758" y="340" type="curve" smooth="yes"/>
      <point x="758" y="237"/>
      <point x="722" y="151"/>
      <point x="653" y="86" type="curve" smooth="yes"/>
      <point x="586" y="23"/>
      <point x="493" y="-13"/>
      <point x="399" y="-13" type="curve" smooth="yes"/>
      <point x="325" y="-13"/>
      <point x="267" y="4"/>
      <point x="198" y="45" type="curve"/>
      <point x="120" y="-53" type="line"/>
      <point x="57" y="-53" type="line"/>
      <point x="160" y="76" type="line"/>
      <point x="81" y="152"/>
      <point x="44" y="235"/>
      <point x="44" y="339" type="curve" smooth="yes"/>
      <point x="44" y="539"/>
      <point x="201" y="694"/>
      <point x="405" y="694" type="curve" smooth="yes"/>
      <point x="481" y="694"/>
      <point x="542" y="678"/>
      <point x="605" y="639" type="curve"/>
      <point x="680" y="734" type="line"/>
    </contour>
    <contour>
      <point x="213" y="143" type="curve"/>
      <point x="560" y="582" type="line"/>
      <point x="510" y="628"/>
      <point x="467" y="646"/>
      <point x="403" y="646" type="curve" smooth="yes"/>
      <point x="254" y="646"/>
      <point x="162" y="528"/>
      <point x="162" y="336" type="curve" smooth="yes"/>
      <point x="162" y="257"/>
      <point x="174" y="211"/>
    </contour>
    <contour>
      <point x="590" y="541" type="curve"/>
      <point x="243" y="103" type="line"/>
      <point x="290" y="55"/>
      <point x="337" y="35"/>
      <point x="402" y="35" type="curve" smooth="yes"/>
      <point x="546" y="35"/>
      <point x="640" y="152"/>
      <point x="640" y="331" type="curve" smooth="yes"/>
      <point x="640" y="420"/>
      <point x="627" y="474"/>
    </contour>
  </outline>
</glyph>
<glyph name="Uacute" format="1">
  <advance width="780"/>
  <unicode hex="00DA"/>
  <outline>
    <contour>
      <point x="664" y="537" type="curve" smooth="yes"/>
      <point x="664" y="204" type="line" smooth="yes"/>
      <point x="664" y="137"/>
      <point x="652" y="97"/>
      <point x="622" y="63" type="curve" smooth="yes"/>
      <point x="575" y="10"/>
      <point x="506" y="-13"/>
      <point x="392" y="-13" type="curve" smooth="yes"/>
      <point x="309" y="-13"/>
      <point x="253" y="0"/>
      <point x="203" y="32" type="curve" smooth="yes"/>
      <point x="138" y="73"/>
      <point x="115" y="118"/>
      <point x="115" y="202" type="curve" smooth="yes"/>
      <point x="115" y="537" type="line" smooth="yes"/>
      <point x="115" y="619"/>
      <point x="102" y="640"/>
      <point x="50" y="647" type="curve" smooth="yes"/>
      <point x="25" y="650" type="line"/>
      <point x="25" y="681" type="line"/>
      <point x="317" y="681" type="line"/>
      <point x="317" y="650" type="line"/>
      <point x="280" y="647" type="line" smooth="yes"/>
      <point x="230" y="643"/>
      <point x="215" y="618"/>
      <point x="215" y="537" type="curve" smooth="yes"/>
      <point x="215" y="270" type="line" smooth="yes"/>
      <point x="215" y="179"/>
      <point x="221" y="141"/>
      <point x="239" y="109" type="curve" smooth="yes"/>
      <point x="265" y="61"/>
      <point x="325" y="35"/>
      <point x="407" y="35" type="curve" smooth="yes"/>
      <point x="481" y="35"/>
      <point x="539" y="55"/>
      <point x="570" y="91" type="curve" smooth="yes"/>
      <point x="599" y="125"/>
      <point x="607" y="164"/>
      <point x="607" y="272" type="curve" smooth="yes"/>
      <point x="607" y="537" type="line" smooth="yes"/>
      <point x="607" y="618"/>
      <point x="593" y="642"/>
      <point x="542" y="647" type="curve" smooth="yes"/>
      <point x="509" y="650" type="line"/>
      <point x="509" y="681" type="line"/>
      <point x="754" y="681" type="line"/>
      <point x="754" y="650" type="line"/>
      <point x="729" y="647" type="line" smooth="yes"/>
      <point x="677" y="640"/>
      <point x="664" y="619"/>
    </contour>
    <contour>
      <point x="352" y="753" type="line"/>
      <point x="347" y="767" type="line"/>
      <point x="442" y="835" type="line"/>
      <point x="471" y="857"/>
      <point x="498" y="869"/>
      <point x="518" y="869" type="curve" smooth="yes"/>
      <point x="538" y="869"/>
      <point x="553" y="853"/>
      <point x="553" y="832" type="curve" smooth="yes"/>
      <point x="553" y="806"/>
      <point x="534" y="791"/>
      <point x="491" y="782" type="curve" smooth="yes"/>
    </contour>
  </outline>
</glyph>
<glyph name="Ucircumflex" format="1">
  <advance width="780"/>
  <unicode hex="00DB"/>
  <outline>
    <contour>
      <point x="664" y="537" type="curve" smooth="yes"/>
      <point x="664" y="204" type="line" smooth="yes"/>
      <point x="664" y="137"/>
      <point x="652" y="97"/>
      <point x="622" y="63" type="curve" smooth="yes"/>
      <point x="575" y="10"/>
      <point x="506" y="-13"/>
      <point x="392" y="-13" type="curve" smooth="yes"/>
      <point x="309" y="-13"/>
      <point x="253" y="0"/>
      <point x="203" y="32" type="curve" smooth="yes"/>
      <point x="138" y="73"/>
      <point x="115" y="118"/>
      <point x="115" y="202" type="curve" smooth="yes"/>
      <point x="115" y="537" type="line" smooth="yes"/>
      <point x="115" y="619"/>
      <point x="102" y="640"/>
      <point x="50" y="647" type="curve" smooth="yes"/>
      <point x="25" y="650" type="line"/>
      <point x="25" y="681" type="line"/>
      <point x="317" y="681" type="line"/>
      <point x="317" y="650" type="line"/>
      <point x="280" y="647" type="line" smooth="yes"/>
      <point x="230" y="643"/>
      <point x="215" y="618"/>
      <point x="215" y="537" type="curve" smooth="yes"/>
      <point x="215" y="270" type="line" smooth="yes"/>
      <point x="215" y="179"/>
      <point x="221" y="141"/>
      <point x="239" y="109" type="curve" smooth="yes"/>
      <point x="265" y="61"/>
      <point x="325" y="35"/>
      <point x="407" y="35" type="curve" smooth="yes"/>
      <point x="481" y="35"/>
      <point x="539" y="55"/>
      <point x="570" y="91" type="curve" smooth="yes"/>
      <point x="599" y="125"/>
      <point x="607" y="164"/>
      <point x="607" y="272" type="curve" smooth="yes"/>
      <point x="607" y="537" type="line" smooth="yes"/>
      <point x="607" y="618"/>
      <point x="593" y="642"/>
      <point x="542" y="647" type="curve" smooth="yes"/>
      <point x="509" y="650" type="line"/>
      <point x="509" y="681" type="line"/>
      <point x="754" y="681" type="line"/>
      <point x="754" y="650" type="line"/>
      <point x="729" y="647" type="line" smooth="yes"/>
      <point x="677" y="640"/>
      <point x="664" y="619"/>
    </contour>
    <contour>
      <point x="409" y="871" type="line"/>
      <point x="551" y="778" type="line"/>
      <point x="537" y="753" type="line"/>
      <point x="409" y="798" type="line"/>
      <point x="280" y="753" type="line"/>
      <point x="267" y="778" type="line"/>
    </contour>
  </outline>
</glyph>
<glyph name="acircumflex" format="1">
  <advance width="580"/>
  <unicode hex="00E2"/>
  <outline>
    <contour>
      <point x="372" y="284" type="curve"/>
      <point x="372" y="364" type="line" smooth="yes"/>
      <point x="372" y="419"/>
      <point x="327" y="454"/>
      <point x="256" y="454" type="curve" smooth="yes"/>
      <point x="200" y="454"/>
      <point x="155" y="431"/>
      <point x="155" y="402" type="curve"/>
      <point x="156" y="374" type="line" smooth="yes"/>
      <point x="156" y="346"/>
      <point x="133" y="323"/>
      <point x="105" y="323" type="curve" smooth="yes"/>
      <point x="79" y="323"/>
      <point x="57" y="343"/>
      <point x="57" y="367" type="curve" smooth="yes"/>
      <point x="57" y="402"/>
      <point x="91" y="444"/>
      <point x="138" y="465" type="curve" smooth="yes"/>
      <point x="178" y="482"/>
      <point x="232" y="494"/>
      <point x="275" y="494" type="curve" smooth="yes"/>
      <point x="321" y="494"/>
      <point x="373" y="481"/>
      <point x="410" y="460" type="curve" smooth="yes"/>
      <point x="451" y="437"/>
      <point x="467" y="406"/>
      <point x="467" y="346" type="curve" smooth="yes"/>
      <point x="467" y="134" type="line" smooth="yes"/>
      <point x="467" y="91"/>
      <point x="469" y="78"/>
      <point x="476" y="64" type="curve" smooth="yes"/>
      <point x="484" y="47"/>
      <point x="502" y="36"/>
      <point x="523" y="36" type="curve" smooth="yes"/>
      <point x="540" y="36"/>
      <point x="551" y="41"/>
      <point x="568" y="56" type="curve"/>
      <point x="587" y="30" type="line"/>
      <point x="559" y="3"/>
      <point x="526" y="-9"/>
      <point x="484" y="-9" type="curve" smooth="yes"/>
      <point x="425" y="-9"/>
      <point x="391" y="14"/>
      <point x="372" y="68" type="curve"/>
      <point x="305" y="12"/>
      <point x="256" y="-9"/>
      <point x="189" y="-9" type="curve" smooth="yes"/>
      <point x="100" y="-9"/>
      <point x="35" y="43"/>
      <point x="35" y="115" type="curve" smooth="yes"/>
      <point x="35" y="182"/>
      <point x="92" y="231"/>
      <point x="203" y="259" type="curve" smooth="yes"/>
      <point x="247" y="270"/>
      <point x="252" y="271"/>
    </contour>
    <contour>
      <point x="372" y="113" type="curve"/>
      <point x="372" y="249" type="line"/>
      <point x="221" y="236"/>
      <point x="137" y="192"/>
      <point x="137" y="125" type="curve" smooth="yes"/>
      <point x="137" y="77"/>
      <point x="176" y="39"/>
      <point x="224" y="39" type="curve" smooth="yes"/>
      <point x="274" y="39"/>
      <point x="316" y="60"/>
    </contour>
    <contour>
      <point x="271" y="681" type="line"/>
      <point x="413" y="588" type="line"/>
      <point x="399" y="563" type="line"/>
      <point x="271" y="608" type="line"/>
      <point x="142" y="563" type="line"/>
      <point x="129" y="588" type="line"/>
    </contour>
  </outline>
</glyph>
<glyph name="aring" format="1">
  <advance width="580"/>
  <unicode hex="00E5"/>
  <outline>
    <contour>
      <point x="372" y="284" type="curve"/>
      <point x="372" y="364" type="line" smooth="yes"/>
      <point x="372" y="419"/>
      <point x="327" y="454"/>
      <point x="256" y="454" type="curve" smooth="yes"/>
      <point x="200" y="454"/>
      <point x="155" y="431"/>
      <point x="155" y="402" type="curve"/>
      <point x="156" y="374" type="line" smooth="yes"/>
      <point x="156" y="346"/>
      <point x="133" y="323"/>
      <point x="105" y="323" type="curve" smooth="yes"/>
      <point x="79" y="323"/>
      <point x="57" y="343"/>
      <point x="57" y="367" type="curve" smooth="yes"/>
      <point x="57" y="402"/>
      <point x="91" y="444"/>
      <point x="138" y="465" type="curve" smooth="yes"/>
      <point x="178" y="482"/>
      <point x="232" y="494"/>
      <point x="275" y="494" type="curve" smooth="yes"/>
      <point x="321" y="494"/>
      <point x="373" y="481"/>
      <point x="410" y="460" type="curve" smooth="yes"/>
      <point x="451" y="437"/>
      <point x="467" y="406"/>
      <point x="467" y="346" type="curve" smooth="yes"/>
      <point x="467" y="134" type="line" smooth="yes"/>
      <point x="467" y="91"/>
      <point x="469" y="78"/>
      <point x="476" y="64" type="curve" smooth="yes"/>
      <point x="484" y="47"/>
      <point x="502" y="36"/>
      <point x="523" y="36" type="curve" smooth="yes"/>
      <point x="540" y="36"/>
      <point x="551" y="41"/>
      <point x="568" y="56" type="curve"/>
      <point x="587" y="30" type="line"/>
      <point x="559" y="3"/>
      <point x="526" y="-9"/>
      <point x="484" y="-9" type="curve" smooth="yes"/>
      <point x="425" y="-9"/>
      <point x="391" y="14"/>
      <point x="372" y="68" type="curve"/>
      <point x="305" y="12"/>
      <point x="256" y="-9"/>
      <point x="189" y="-9" type="curve" smooth="yes"/>
      <point x="100" y="-9"/>
      <point x="35" y="43"/>
      <point x="35" y="115" type="curve" smooth="yes"/>
      <point x="35" y="182"/>
      <point x="92" y="231"/>
      <point x="203" y="259" type="curve" smooth="yes"/>
      <point x="247" y="270"/>
      <point x="252" y="271"/>
    </contour>
    <contour>
      <point x="372" y="113" type="curve"/>
      <point x="372" y="249" type="line"/>
      <point x="221" y="236"/>
      <point x="137" y="192"/>
      <point x="137" y="125" type="curve" smooth="yes"/>
      <point x="137" y="77"/>
      <point x="176" y="39"/>
      <point x="224" y="39" type="curve" smooth="yes"/>
      <point x="274" y="39"/>
      <point x="316" y="60"/>
    </contour>
    <contour>
      <point x="268" y="732" type="curve" smooth="yes"/>
      <point x="318" y="732"/>
      <point x="359" y="690"/>
      <point x="359" y="640" type="curve" smooth="yes"/>
      <point x="359" y="589"/>
      <point x="318" y="547"/>
      <point x="267" y="547" type="curve" smooth="yes"/>
      <point x="216" y="547"/>
      <point x="175" y="589"/>
      <point x="175" y="640" type="curve" smooth="yes"/>
      <point x="175" y="691"/>
      <point x="217" y="732"/>
    </contour>
    <contour>
      <point x="268" y="695" type="curve" smooth="yes"/>
      <point x="237" y="695"/>
      <point x="212" y="671"/>
      <point x="212" y="640" type="curve" smooth="yes"/>
      <point x="212" y="609"/>
      <point x="236" y="584"/>
      <point x="267" y="584" type="curve" smooth="yes"/>
      <point x="297" y="584"/>
      <point x="322" y="609"/>
      <point x="322" y="640" type="curve" smooth="yes"/>
      <point x="322" y="669"/>
      <point x="297" y="695"/>
    </contour>
  </outline>
</glyph>
<glyph name="ccedilla" format="1">
  <advance width="520"/>
  <unicode hex="00E7"/>
  <outline>
    <contour>
      <point x="277" y="-9" type="curve"/>
      <point x="267" y="-43" type="line"/>
      <point x="273" y="-42"/>
      <point x="278" y="-42"/>
      <point x="279" y="-42" type="curve" smooth="yes"/>
      <point x="285" y="-41"/>
      <point x="289" y="-41"/>
      <point x="291" y="-41" type="curve" smooth="yes"/>
      <point x="345" y="-41"/>
      <point x="379" y="-69"/>
      <point x="379" y="-115" type="curve" smooth="yes"/>
      <point x="379" y="-166"/>
      <point x="342" y="-200"/>
      <point x="287" y="-200" type="curve" smooth="yes"/>
      <point x="235" y="-200"/>
      <point x="190" y="-174"/>
      <point x="190" y="-144" type="curve" smooth="yes"/>
      <point x="190" y="-130"/>
      <point x="201" y="-119"/>
      <point x="215" y="-119" type="curve" smooth="yes"/>
      <point x="231" y="-119"/>
      <point x="239" y="-125"/>
      <point x="246" y="-143" type="curve" smooth="yes"/>
      <point x="256" y="-166"/>
      <point x="265" y="-173"/>
      <point x="285" y="-173" type="curve" smooth="yes"/>
      <point x="311" y="-173"/>
      <point x="331" y="-150"/>
      <point x="331" y="-119" type="curve" smooth="yes"/>
      <point x="331" y="-86"/>
      <point x="310" y="-68"/>
      <point x="272" y="-68" type="curve" smooth="yes"/>
      <point x="258" y="-68"/>
      <point x="245" y="-71"/>
      <point x="225" y="-78" type="curve"/>
      <point x="247" y="-7" type="line"/>
      <point x="183" y="3"/>
      <point x="148" y="18"/>
      <point x="113" y="51" type="curve" smooth="yes"/>
      <point x="66" y="96"/>
      <point x="37" y="168"/>
      <point x="37" y="242" type="curve" smooth="yes"/>
      <point x="37" y="313"/>
      <point x="63" y="382"/>
      <point x="108" y="428" type="curve" smooth="yes"/>
      <point x="150" y="472"/>
      <point x="209" y="494"/>
      <point x="281" y="494" type="curve" smooth="yes"/>
      <point x="341" y="494"/>
      <point x="388" y="480"/>
      <point x="428" y="451" type="curve" smooth="yes"/>
      <point x="464" y="424"/>
      <point x="485" y="390"/>
      <point x="485" y="357" type="curve" smooth="yes"/>
      <point x="485" y="326"/>
      <point x="463" y="302"/>
      <point x="434" y="302" type="curve" smooth="yes"/>
      <point x="405" y="302"/>
      <point x="383" y="324"/>
      <point x="383" y="353" type="curve" smooth="yes"/>
      <point x="384" y="388" type="line" smooth="yes"/>
      <point x="384" y="423"/>
      <point x="337" y="454"/>
      <point x="285" y="454" type="curve" smooth="yes"/>
      <point x="230" y="454"/>
      <point x="191" y="430"/>
      <point x="168" y="382" type="curve" smooth="yes"/>
      <point x="149" y="343"/>
      <point x="139" y="294"/>
      <point x="139" y="238" type="curve" smooth="yes"/>
      <point x="139" y="114"/>
      <point x="208" y="31"/>
      <point x="311" y="31" type="curve" smooth="yes"/>
      <point x="372" y="31"/>
      <point x="413" y="56"/>
      <point x="469" y="126" type="curve"/>
      <point x="498" y="108" type="line"/>
      <point x="450" y="29"/>
      <point x="376" y="-10"/>
    </contour>
  </outline>
</glyph>
<glyph name="igrave" format="1">
  <advance width="300"/>
  <unicode hex="00EC"/>
  <outline>
    <contour>
      <point x="202" y="485" type="line"/>
      <point x="202" y="115" type="line" smooth="yes"/>
      <point x="202" y="60"/>
      <point x="219" y="37"/>
      <point x="264" y="32" type="curve"/>
      <point x="288" y="30" type="line"/>
      <point x="288" y="0" type="line"/>
      <point x="20" y="0" type="line"/>
      <point x="20" y="30" type="line"/>
      <point x="45" y="32" type="line"/>
      <point x="89" y="37"/>
      <point x="107" y="60"/>
      <point x="107" y="115" type="curve" smooth="yes"/>
      <point x="107" y="350" type="line" smooth="yes"/>
      <point x="107" y="410"/>
      <point x="93" y="428"/>
      <point x="41" y="433" type="curve" smooth="yes"/>
      <point x="21" y="435" type="line"/>
      <point x="21" y="465" type="line"/>
      <point x="74" y="469"/>
      <point x="107" y="474"/>
      <point x="168" y="485" type="curve"/>
    </contour>
    <contour>
      <point x="221" y="564" type="line"/>
      <point x="82" y="593" type="line" smooth="yes"/>
      <point x="39" y="602"/>
      <point x="20" y="617"/>
      <point x="20" y="643" type="curve" smooth="yes"/>
      <point x="20" y="664"/>
      <point x="35" y="680"/>
      <point x="55" y="680" type="curve" smooth="yes"/>
      <point x="74" y="680"/>
      <point x="102" y="668"/>
      <point x="131" y="646" type="curve"/>
      <point x="226" y="578" type="line"/>
    </contour>
  </outline>
</glyph>
<glyph name="iacute" format="1">
  <advance width="300"/>
  <unicode hex="00ED"/>
  <outline>
    <contour>
      <point x="202" y="485" type="line"/>
      <point x="202" y="115" type="line" smooth="yes"/>
      <point x="202" y="60"/>
      <point x="219" y="37"/>
      <point x="264" y="32" type="curve"/>
      <point x="288" y="30" type="line"/>
      <point x="288" y="0" type="line"/>
      <point x="20" y="0" type="line"/>
      <point x="20" y="30" type="line"/>
      <point x="45" y="32" type="line"/>
      <point x="89" y="37"/>
      <point x="107" y="60"/>
      <point x="107" y="115" type="curve" smooth="yes"/>
      <point x="107" y="350" type="line" smooth="yes"/>
      <point x="107" y="410"/>
      <point x="93" y="428"/>
      <point x="41" y="433" type="curve" smooth="yes"/>
      <point x="21" y="435" type="line"/>
      <point x="21" y="465" type="line"/>
      <point x="74" y="469"/>
      <point x="107" y="474"/>
      <point x="168" y="485" type="curve"/>
    </contour>
    <contour>
      <point x="74" y="564" type="line"/>
      <point x="69" y="578" type="line"/>
      <point x="164" y="646" type="line"/>
      <point x="193" y="668"/>
      <point x="220" y="680"/>
      <point x="240" y="680" type="curve" smooth="yes"/>
      <point x="260" y="680"/>
      <point x="275" y="664"/>
      <point x="275" y="643" type="curve" smooth="yes"/>
      <point x="275" y="617"/>
      <point x="256" y="602"/>
      <point x="213" y="593" type="curve" smooth="yes"/>
    </contour>
  </outline>
</glyph>
<glyph name="icircumflex" format="1">
  <advance width="300"/>
  <unicode hex="00EE"/>
  <outline>
    <contour>
      <point x="202" y="485" type="line"/>
      <point x="202" y="115" type="line" smooth="yes"/>
      <point x="202" y="60"/>
      <point x="219" y="37"/>
      <point x="264" y="32" type="curve"/>
      <point x="288" y="30" type="line"/>
      <point x="288" y="0" type="line"/>
      <point x="20" y="0" type="line"/>
      <point x="20" y="30" type="line"/>
      <point x="45" y="32" type="line"/>
      <point x="89" y="37"/>
      <point x="107" y="60"/>
      <point x="107" y="115" type="curve" smooth="yes"/>
      <point x="107" y="350" type="line" smooth="yes"/>
      <point x="107" y="410"/>
      <point x="93" y="428"/>
      <point x="41" y="433" type="curve" smooth="yes"/>
      <point x="21" y="435" type="line"/>
      <point x="21" y="465" type="line"/>
      <point x="74" y="469"/>
      <point x="107" y="474"/>
      <point x="168" y="485" type="curve"/>
    </contour>
    <contour>
      <point x="150" y="681" type="line"/>
      <point x="292" y="588" type="line"/>
      <point x="278" y="563" type="line"/>
      <point x="150" y="608" type="line"/>
      <point x="21" y="563" type="line"/>
      <point x="8" y="588" type="line"/>
    </contour>
  </outline>
</glyph>
<glyph name="idieresis" format="1">
  <advance width="300"/>
  <unicode hex="00EF"/>
  <outline>
    <contour>
      <point x="201" y="485" type="line"/>
      <point x="201" y="115" type="line" smooth="yes"/>
      <point x="201" y="60"/>
      <point x="218" y="37"/>
      <point x="263" y="32" type="curve"/>
      <point x="287" y="30" type="line"/>
      <point x="287" y="0" type="line"/>
      <point x="19" y="0" type="line"/>
      <point x="19" y="30" type="line"/>
      <point x="44" y="32" type="line"/>
      <point x="88" y="37"/>
      <point x="106" y="60"/>
      <point x="106" y="115" type="curve" smooth="yes"/>
      <point x="106" y="350" type="line" smooth="yes"/>
      <point x="106" y="410"/>
      <point x="92" y="428"/>
      <point x="40" y="433" type="curve" smooth="yes"/>
      <point x="20" y="435" type="line"/>
      <point x="20" y="465" type="line"/>
      <point x="73" y="469"/>
      <point x="106" y="474"/>
      <point x="167" y="485" type="curve"/>
    </contour>
    <contour>
      <point x="68" y="681" type="curve" smooth="yes"/>
      <point x="99" y="681"/>
      <point x="126" y="654"/>
      <point x="126" y="622" type="curve" smooth="yes"/>
      <point x="126" y="590"/>
      <point x="99" y="563"/>
      <point x="67" y="563" type="curve" smooth="yes"/>
      <point x="35" y="563"/>
      <point x="8" y="590"/>
      <point x="8" y="622" type="curve" smooth="yes"/>
      <point x="8" y="655"/>
      <point x="35" y="681"/>
    </contour>
    <contour>
      <point x="231" y="681" type="curve" smooth="yes"/>
      <point x="262" y="681"/>
      <point x="289" y="654"/>
      <point x="289" y="622" type="curve" smooth="yes"/>
      <point x="289" y="590"/>
      <point x="262" y="563"/>
      <point x="230" y="563" type="curve" smooth="yes"/>
      <point x="198" y="563"/>
      <point x="171" y="590"/>
      <point x="171" y="622" type="curve" smooth="yes"/>
      <point x="171" y="655"/>
      <point x="198" y="681"/>
    </contour>
  </outline>
</glyph>
<glyph name="eth" format="1">
  <advance width="560"/>
  <unicode hex="00F0"/>
  <outline>
    <contour>
      <point x="208" y="628" type="curve"/>
      <point x="94" y="552" type="line"/>
      <point x="73" y="585" type="line"/>
      <point x="164" y="647" type="line"/>
      <point x="132" y="657"/>
      <point x="99" y="664"/>
      <point x="51" y="674" type="curve"/>
      <point x="74" y="716" type="line"/>
      <point x="131" y="707"/>
      <point x="176" y="697"/>
      <point x="213" y="686" type="curve"/>
      <point x="324" y="759" type="line"/>
      <point x="346" y="727" type="line"/>
      <point x="259" y="669" type="line"/>
      <point x="432" y="598"/>
      <point x="526" y="451"/>
      <point x="526" y="252" type="curve" smooth="yes"/>
      <point x="526" y="90"/>
      <point x="433" y="-9"/>
      <point x="282" y="-9" type="curve" smooth="yes"/>
      <point x="134" y="-9"/>
      <point x="37" y="91"/>
      <point x="37" y="241" type="curve" smooth="yes"/>
      <point x="37" y="392"/>
      <point x="136" y="495"/>
      <point x="282" y="495" type="curve" smooth="yes"/>
      <point x="314" y="495"/>
      <point x="338" y="490"/>
      <point x="362" y="479" type="curve"/>
      <point x="325" y="546"/>
      <point x="280" y="590"/>
    </contour>
    <contour>
      <point x="281" y="455" type="curve" smooth="yes"/>
      <point x="195" y="455"/>
      <point x="139" y="372"/>
      <point x="139" y="243" type="curve" smooth="yes"/>
      <point x="139" y="108"/>
      <point x="192" y="31"/>
      <point x="284" y="31" type="curve" smooth="yes"/>
      <point x="372" y="31"/>
      <point x="424" y="107"/>
      <point x="424" y="234" type="curve" smooth="yes"/>
      <point x="424" y="372"/>
      <point x="370" y="455"/>
    </contour>
  </outline>
</glyph>
<glyph name="ntilde" format="1">
  <advance width="660"/>
  <unicode hex="00F1"/>
  <outline>
    <contour>
      <point x="205" y="485" type="line"/>
      <point x="205" y="406" type="line"/>
      <point x="276" y="469"/>
      <point x="335" y="494"/>
      <point x="411" y="494" type="curve" smooth="yes"/>
      <point x="505" y="494"/>
      <point x="562" y="445"/>
      <point x="562" y="362" type="curve" smooth="yes"/>
      <point x="562" y="115" type="line" smooth="yes"/>
      <point x="562" y="60"/>
      <point x="580" y="37"/>
      <point x="624" y="32" type="curve"/>
      <point x="649" y="30" type="line"/>
      <point x="649" y="0" type="line"/>
      <point x="380" y="0" type="line"/>
      <point x="380" y="30" type="line"/>
      <point x="405" y="32" type="line"/>
      <point x="449" y="37"/>
      <point x="467" y="60"/>
      <point x="467" y="115" type="curve" smooth="yes"/>
      <point x="467" y="346" type="line" smooth="yes"/>
      <point x="467" y="411"/>
      <point x="437" y="446"/>
      <point x="382" y="446" type="curve" smooth="yes"/>
      <point x="326" y="446"/>
      <point x="267" y="418"/>
      <point x="205" y="362" type="curve"/>
      <point x="205" y="115" type="line" smooth="yes"/>
      <point x="205" y="60"/>
      <point x="223" y="37"/>
      <point x="267" y="32" type="curve"/>
      <point x="292" y="30" type="line"/>
      <point x="292" y="0" type="line"/>
      <point x="23" y="0" type="line"/>
      <point x="23" y="30" type="line"/>
      <point x="48" y="32" type="line"/>
      <point x="92" y="37"/>
      <point x="110" y="60"/>
      <point x="110" y="115" type="curve" smooth="yes"/>
      <point x="110" y="350" type="line" smooth="yes"/>
      <point x="110" y="410"/>
      <point x="95" y="429"/>
      <point x="44" y="433" type="curve" smooth="yes"/>
      <point x="20" y="435" type="line"/>
      <point x="20" y="465" type="line"/>
      <point x="76" y="469"/>
      <point x="109" y="473"/>
      <point x="171" y="485" type="curve"/>
    </contour>
    <contour>
      <point x="449" y="654" type="curve"/>
      <point x="478" y="645" type="line"/>
      <point x="463" y="595"/>
      <point x="436" y="573"/>
      <point x="388" y="573" type="curve" smooth="yes"/>
      <point x="364" y="573"/>
      <point x="342" y="577"/>
      <point x="293" y="591" type="curve" smooth="yes"/>
      <point x="262" y="599"/>
      <point x="253" y="601"/>
      <point x="239" y="601" type="curve" smooth="yes"/>
      <point x="224" y="601"/>
      <point x="213" y="596"/>
      <point x="200" y="581" type="curve"/>
      <point x="171" y="591" type="line"/>
      <point x="184" y="632"/>
      <point x="218" y="659"/>
      <point x="257" y="659" type="curve" smooth="yes"/>
      <point x="280" y="659"/>
      <point x="301" y="655"/>
      <point x="352" y="641" type="curve" smooth="yes"/>
      <point x="376" y="634"/>
      <point x="388" y="632"/>
      <point x="401" y="632" type="curve" smooth="yes"/>
      <point x="421" y="632"/>
      <point x="438" y="640"/>
    </contour>
  </outline>
</glyph>
<glyph name="ocircumflex" format="1">
  <advance width="560"/>
  <unicode hex="00F4"/>
  <outline>
    <contour>
      <point x="279" y="494" type="curve" smooth="yes"/>
      <point x="357" y="494"/>
      <point x="424" y="466"/>
      <point x="466" y="416" type="curve"/>
      <point x="503" y="370"/>
      <point x="526" y="304"/>
      <point x="526" y="239" type="curve" smooth="yes"/>
      <point x="526" y="91"/>
      <point x="428" y="-9"/>
      <point x="283" y="-9" type="curve" smooth="yes"/>
      <point x="134" y="-9"/>
      <point x="37" y="90"/>
      <point x="37" y="241" type="curve" smooth="yes"/>
      <point x="37" y="311"/>
      <point x="65" y="385"/>
      <point x="107" y="429" type="curve" smooth="yes"/>
      <point x="147" y="470"/>
      <point x="209" y="494"/>
    </contour>
    <contour>
      <point x="280" y="454" type="curve" smooth="yes"/>
      <point x="195" y="454"/>
      <point x="139" y="371"/>
      <point x="139" y="243" type="curve" smooth="yes"/>
      <point x="139" y="108"/>
      <point x="192" y="31"/>
      <point x="284" y="31" type="curve" smooth="yes"/>
      <point x="372" y="31"/>
      <point x="424" y="107"/>
      <point x="424" y="234" type="curve" smooth="yes"/>
      <point x="424" y="371"/>
      <point x="370" y="454"/>
    </contour>
    <contour>
      <point x="282" y="681" type="line"/>
      <point x="424" y="588" type="line"/>
      <point x="410" y="563" type="line"/>
      <point x="282" y="608" type="line"/>
      <point x="153" y="563" type="line"/>
      <point x="140" y="588" type="line"/>
    </contour>
  </outline>
</glyph>
<glyph name="otilde" format="1">
  <advance width="560"/>
  <unicode hex="00F5"/>
  <outline>
    <contour>
      <point x="279" y="494" type="curve" smooth="yes"/>
      <point x="357" y="494"/>
      <point x="424" y="466"/>
      <point x="466" y="416" type="curve"/>
      <point x="503" y="370"/>
      <point x="526" y="304"/>
      <point x="526" y="239" type="curve" smooth="yes"/>
      <point x="526" y="91"/>
      <point x="428" y="-9"/>
      <point x="283" y="-9" type="curve" smooth="yes"/>
      <point x="134" y="-9"/>
      <point x="37" y="90"/>
      <point x="37" y="241" type="curve" smooth="yes"/>
      <point x="37" y="311"/>
      <point x="65" y="385"/>
      <point x="107" y="429" type="curve" smooth="yes"/>
      <point x="147" y="470"/>
      <point x="209" y="494"/>
    </contour>
    <contour>
      <point x="280" y="454" type="curve" smooth="yes"/>
      <point x="195" y="454"/>
      <point x="139" y="371"/>
      <point x="139" y="243" type="curve" smooth="yes"/>
      <point x="139" y="108"/>
      <point x="192" y="31"/>
      <point x="284" y="31" type="curve" smooth="yes"/>
      <point x="372" y="31"/>
      <point x="424" y="107"/>
      <point x="424" y="234" type="curve" smooth="yes"/>
      <point x="424" y="371"/>
      <point x="370" y="454"/>
    </contour>
    <contour>
      <point x="413" y="654" type="curve"/>
      <point x="442" y="645" type="line"/>
      <point x="427" y="595"/>
      <point x="400" y="573"/>
      <point x="352" y="573" type="curve" smooth="yes"/>
      <point x="328" y="573"/>
      <point x="306" y="577"/>
      <point x="257" y="591" type="curve" smooth="yes"/>
      <point x="226" y="599"/>
      <point x="217" y="601"/>
      <point x="203" y="601" type="curve" smooth="yes"/>
      <point x="188" y="601"/>
      <point x="177" y="596"/>
      <point x="164" y="581" type="curve"/>
      <point x="135" y="591" type="line"/>
      <point x="148" y="632"/>
      <point x="182" y="659"/>
      <point x="221" y="659" type="curve" smooth="yes"/>
      <point x="244" y="659"/>
      <point x="265" y="655"/>
      <point x="316" y="641" type="curve" smooth="yes"/>
      <point x="340" y="634"/>
      <point x="352" y="632"/>
      <point x="365" y="632" type="curve" smooth="yes"/>
      <point x="385" y="632"/>
      <point x="402" y="640"/>
    </contour>
  </outline>
</glyph>
<glyph name="oslash" format="1">
  <advance width="560"/>
  <unicode hex="00F8"/>
  <outline>
    <contour>
      <point x="82" y="-42" type="line"/>
      <point x="131" y="37" type="line"/>
      <point x="69" y="84"/>
      <point x="37" y="151"/>
      <point x="37" y="236" type="curve" smooth="yes"/>
      <point x="37" y="392"/>
      <point x="133" y="494"/>
      <point x="279" y="494" type="curve" smooth="yes"/>
      <point x="323" y="494"/>
      <point x="368" y="485"/>
      <point x="397" y="469" type="curve"/>
      <point x="442" y="543" type="line"/>
      <point x="489" y="543" type="line"/>
      <point x="432" y="449" type="line"/>
      <point x="490" y="405"/>
      <point x="526" y="326"/>
      <point x="526" y="241" type="curve" smooth="yes"/>
      <point x="526" y="91"/>
      <point x="429" y="-9"/>
      <point x="284" y="-9" type="curve" smooth="yes"/>
      <point x="239" y="-9"/>
      <point x="196" y="0"/>
      <point x="167" y="16" type="curve"/>
      <point x="132" y="-42" type="line"/>
    </contour>
    <contour>
      <point x="169" y="100" type="curve"/>
      <point x="366" y="420" type="line"/>
      <point x="343" y="444"/>
      <point x="318" y="454"/>
      <point x="284" y="454" type="curve" smooth="yes"/>
      <point x="194" y="454"/>
      <point x="139" y="373"/>
      <point x="139" y="239" type="curve" smooth="yes"/>
      <point x="139" y="184"/>
      <point x="149" y="139"/>
    </contour>
    <contour>
      <point x="393" y="386" type="curve"/>
      <point x="197" y="64" type="line"/>
      <point x="218" y="44"/>
      <point x="252" y="31"/>
      <point x="286" y="31" type="curve" smooth="yes"/>
      <point x="373" y="31"/>
      <point x="424" y="107"/>
      <point x="424" y="236" type="curve" smooth="yes"/>
      <point x="424" y="296"/>
      <point x="413" y="351"/>
    </contour>
  </outline>
</glyph>
<glyph name="uacute" format="1">
  <advance width="680"/>
  <unicode hex="00FA"/>
  <outline>
    <contour>
      <point x="471" y="0" type="line"/>
      <point x="471" y="84" type="line"/>
      <point x="386" y="15"/>
      <point x="331" y="-9"/>
      <point x="259" y="-9" type="curve" smooth="yes"/>
      <point x="207" y="-9"/>
      <point x="169" y="6"/>
      <point x="142" y="37" type="curve" smooth="yes"/>
      <point x="119" y="63"/>
      <point x="110" y="91"/>
      <point x="110" y="141" type="curve" smooth="yes"/>
      <point x="110" y="350" type="line" smooth="yes"/>
      <point x="110" y="410"/>
      <point x="95" y="429"/>
      <point x="44" y="433" type="curve" smooth="yes"/>
      <point x="20" y="435" type="line"/>
      <point x="20" y="465" type="line"/>
      <point x="97" y="470"/>
      <point x="119" y="473"/>
      <point x="171" y="485" type="curve"/>
      <point x="205" y="485" type="line"/>
      <point x="205" y="149" type="line" smooth="yes"/>
      <point x="205" y="73"/>
      <point x="233" y="39"/>
      <point x="296" y="39" type="curve" smooth="yes"/>
      <point x="345" y="39"/>
      <point x="404" y="68"/>
      <point x="471" y="127" type="curve"/>
      <point x="471" y="350" type="line" smooth="yes"/>
      <point x="471" y="410"/>
      <point x="456" y="429"/>
      <point x="405" y="433" type="curve" smooth="yes"/>
      <point x="381" y="435" type="line"/>
      <point x="381" y="465" type="line"/>
      <point x="460" y="471"/>
      <point x="480" y="473"/>
      <point x="532" y="485" type="curve"/>
      <point x="566" y="485" type="line"/>
      <point x="566" y="115" type="line" smooth="yes"/>
      <point x="566" y="60"/>
      <point x="584" y="37"/>
      <point x="628" y="32" type="curve"/>
      <point x="653" y="30" type="line"/>
      <point x="653" y="0" type="line"/>
    </contour>
    <contour>
      <point x="275" y="564" type="line"/>
      <point x="270" y="578" type="line"/>
      <point x="365" y="646" type="line"/>
      <point x="394" y="668"/>
      <point x="421" y="680"/>
      <point x="441" y="680" type="curve" smooth="yes"/>
      <point x="461" y="680"/>
      <point x="476" y="664"/>
      <point x="476" y="643" type="curve" smooth="yes"/>
      <point x="476" y="617"/>
      <point x="457" y="602"/>
      <point x="414" y="593" type="curve" smooth="yes"/>
    </contour>
  </outline>
</glyph>
<glyph name="ucircumflex" format="1">
  <advance width="680"/>
  <unicode hex="00FB"/>
  <outline>
    <contour>
      <point x="471" y="0" type="line"/>
      <point x="471" y="84" type="line"/>
      <point x="386" y="15"/>
      <point x="331" y="-9"/>
      <point x="259" y="-9" type="curve" smooth="yes"/>
      <point x="207" y="-9"/>
      <point x="169" y="6"/>
      <point x="142" y="37" type="curve" smooth="yes"/>
      <point x="119" y="63"/>
      <point x="110" y="91"/>
      <point x="110" y="141" type="curve" smooth="yes"/>
      <point x="110" y="350" type="line" smooth="yes"/>
      <point x="110" y="410"/>
      <point x="95" y="429"/>
      <point x="44" y="433" type="curve" smooth="yes"/>
      <point x="20" y="435" type="line"/>
      <point x="20" y="465" type="line"/>
      <point x="97" y="470"/>
      <point x="119" y="473"/>
      <point x="171" y="485" type="curve"/>
      <point x="205" y="485" type="line"/>
      <point x="205" y="149" type="line" smooth="yes"/>
      <point x="205" y="73"/>
      <point x="233" y="39"/>
      <point x="296" y="39" type="curve" smooth="yes"/>
      <point x="345" y="39"/>
      <point x="404" y="68"/>
      <point x="471" y="127" type="curve"/>
      <point x="471" y="350" type="line" smooth="yes"/>
      <point x="471" y="410"/>
      <point x="456" y="429"/>
      <point x="405" y="433" type="curve" smooth="yes"/>
      <point x="381" y="435" type="line"/>
      <point x="381" y="465" type="line"/>
      <point x="460" y="471"/>
      <point x="480" y="473"/>
      <point x="532" y="485" type="curve"/>
      <point x="566" y="485" type="line"/>
      <point x="566" y="115" type="line" smooth="yes"/>
      <point x="566" y="60"/>
      <point x="584" y="37"/>
      <point x="628" y="32" type="curve"/>
      <point x="653" y="30" type="line"/>
      <point x="653" y="0" type="line"/>
    </contour>
    <contour>
      <point x="333" y="681" type="line"/>
      <point x="475" y="588" type="line"/>
      <point x="461" y="563" type="line"/>
      <point x="333" y="608" type="line"/>
      <point x="204" y="563" type="line"/>
      <point x="191" y="588" type="line"/>
    </contour>
  </outline>
</glyph>
<glyph name="thorn" format="1">
  <advance width="620"/>
  <unicode hex="00FE"/>
  <outline>
    <contour>
      <point x="202" y="717" type="line"/>
      <point x="202" y="419" type="line"/>
      <point x="247" y="470"/>
      <point x="299" y="494"/>
      <point x="365" y="494" type="curve" smooth="yes"/>
      <point x="430" y="494"/>
      <point x="492" y="464"/>
      <point x="528" y="417" type="curve" smooth="yes"/>
      <point x="562" y="372"/>
      <point x="583" y="307"/>
      <point x="583" y="245" type="curve" smooth="yes"/>
      <point x="583" y="101"/>
      <point x="487" y="-9"/>
      <point x="360" y="-9" type="curve" smooth="yes"/>
      <point x="297" y="-9"/>
      <point x="248" y="7"/>
      <point x="202" y="42" type="curve"/>
      <point x="202" y="-113" type="line" smooth="yes"/>
      <point x="202" y="-167"/>
      <point x="220" y="-192"/>
      <point x="264" y="-196" type="curve" smooth="yes"/>
      <point x="289" y="-198" type="line"/>
      <point x="289" y="-228" type="line"/>
      <point x="20" y="-228" type="line"/>
      <point x="20" y="-198" type="line"/>
      <point x="45" y="-196" type="line" smooth="yes"/>
      <point x="89" y="-192"/>
      <point x="107" y="-167"/>
      <point x="107" y="-113" type="curve" smooth="yes"/>
      <point x="107" y="582" type="line" smooth="yes"/>
      <point x="107" y="642"/>
      <point x="93" y="660"/>
      <point x="41" y="665" type="curve" smooth="yes"/>
      <point x="20" y="667" type="line"/>
      <point x="20" y="697" type="line"/>
      <point x="79" y="702"/>
      <point x="110" y="706"/>
      <point x="168" y="717" type="curve"/>
    </contour>
    <contour>
      <point x="202" y="369" type="curve"/>
      <point x="202" y="91" type="line"/>
      <point x="240" y="55"/>
      <point x="285" y="36"/>
      <point x="335" y="36" type="curve" smooth="yes"/>
      <point x="419" y="36"/>
      <point x="481" y="119"/>
      <point x="481" y="232" type="curve" smooth="yes"/>
      <point x="481" y="362"/>
      <point x="423" y="446"/>
      <point x="333" y="446" type="curve" smooth="yes"/>
      <point x="281" y="446"/>
      <point x="246" y="425"/>
    </contour>
  </outline>
</glyph>
<glyph name="Aogonek" format="1">
  <advance width="680"/>
  <unicode hex="0104"/>
  <outline>
    <contour>
      <point x="451" y="253" type="line"/>
      <point x="193" y="253" type="line"/>
      <point x="161" y="167" type="line" smooth="yes"/>
      <point x="149" y="136"/>
      <point x="142" y="108"/>
      <point x="142" y="93" type="curve" smooth="yes"/>
      <point x="142" y="75"/>
      <point x="152" y="57"/>
      <point x="167" y="47" type="curve" smooth="yes"/>
      <point x="178" y="40"/>
      <point x="195" y="36"/>
      <point x="231" y="31" type="curve"/>
      <point x="231" y="0" type="line"/>
      <point x="-37" y="0" type="line"/>
      <point x="-37" y="31" type="line"/>
      <point x="-26" y="33" type="line" smooth="yes"/>
      <point x="41" y="46"/>
      <point x="57" y="69"/>
      <point x="124" y="240" type="curve" smooth="yes"/>
      <point x="296" y="681" type="line"/>
      <point x="389" y="681" type="line"/>
      <point x="601" y="145" type="line" smooth="yes"/>
      <point x="637" y="52"/>
      <point x="649" y="41"/>
      <point x="714" y="31" type="curve"/>
      <point x="714" y="0" type="line"/>
      <point x="689" y="-19"/>
      <point x="675" y="-44"/>
      <point x="675" y="-67" type="curve" smooth="yes"/>
      <point x="675" y="-93"/>
      <point x="694" y="-112"/>
      <point x="721" y="-112" type="curve" smooth="yes"/>
      <point x="740" y="-112"/>
      <point x="758" y="-102"/>
      <point x="788" y="-75" type="curve"/>
      <point x="804" y="-96" type="line"/>
      <point x="754" y="-139"/>
      <point x="729" y="-152"/>
      <point x="692" y="-152" type="curve" smooth="yes"/>
      <point x="655" y="-152"/>
      <point x="627" y="-123"/>
      <point x="627" y="-84" type="curve" smooth="yes"/>
      <point x="627" y="-49"/>
      <point x="640" y="-26"/>
      <point x="677" y="0" type="curve"/>
      <point x="433" y="0" type="line"/>
      <point x="433" y="31" type="line"/>
      <point x="468" y="36"/>
      <point x="482" y="39"/>
      <point x="491" y="46" type="curve"/>
      <point x="504" y="54"/>
      <point x="512" y="67"/>
      <point x="512" y="81" type="curve" smooth="yes"/>
      <point x="512" y="89"/>
      <point x="507" y="107"/>
      <point x="501" y="124" type="curve" smooth="yes"/>
    </contour>
    <contour>
      <point x="208" y="296" type="line"/>
      <point x="433" y="296" type="line"/>
      <point x="319" y="596" type="line"/>
    </contour>
  </outline>
</glyph>
<glyph name="aogonek" format="1">
  <advance width="580"/>
  <unicode hex="0105"/>
  <outline>
    <contour>
      <point x="568" y="56" type="curve"/>
      <point x="587" y="30" type="line"/>
      <point x="574" y="18" type="line"/>
      <point x="541" y="-8" type="line" smooth="yes"/>
      <point x="525" y="-20"/>
      <point x="511" y="-49"/>
      <point x="511" y="-67" type="curve" smooth="yes"/>
      <point x="511" y="-93"/>
      <point x="531" y="-112"/>
      <point x="557" y="-112" type="curve" smooth="yes"/>
      <point x="576" y="-112"/>
      <point x="595" y="-102"/>
      <point x="624" y="-75" type="curve"/>
      <point x="640" y="-96" type="line"/>
      <point x="591" y="-139"/>
      <point x="565" y="-152"/>
      <point x="529" y="-152" type="curve" smooth="yes"/>
      <point x="491" y="-152"/>
      <point x="463" y="-123"/>
      <point x="463" y="-84" type="curve" smooth="yes"/>
      <point x="463" y="-54"/>
      <point x="476" y="-28"/>
      <point x="502" y="-8" type="curve"/>
      <point x="493" y="-9"/>
      <point x="488" y="-9"/>
      <point x="483" y="-9" type="curve" smooth="yes"/>
      <point x="425" y="-9"/>
      <point x="391" y="15"/>
      <point x="372" y="68" type="curve"/>
      <point x="305" y="12"/>
      <point x="256" y="-9"/>
      <point x="189" y="-9" type="curve" smooth="yes"/>
      <point x="100" y="-9"/>
      <point x="35" y="43"/>
      <point x="35" y="115" type="curve" smooth="yes"/>
      <point x="35" y="182"/>
      <point x="92" y="231"/>
      <point x="203" y="259" type="curve" smooth="yes"/>
      <point x="247" y="270"/>
      <point x="252" y="271"/>
      <point x="372" y="284" type="curve"/>
      <point x="372" y="364" type="line" smooth="yes"/>
      <point x="372" y="419"/>
      <point x="327" y="454"/>
      <point x="256" y="454" type="curve" smooth="yes"/>
      <point x="200" y="454"/>
      <point x="155" y="431"/>
      <point x="155" y="402" type="curve"/>
      <point x="156" y="374" type="line" smooth="yes"/>
      <point x="156" y="346"/>
      <point x="133" y="323"/>
      <point x="105" y="323" type="curve" smooth="yes"/>
      <point x="79" y="323"/>
      <point x="57" y="343"/>
      <point x="57" y="367" type="curve" smooth="yes"/>
      <point x="57" y="402"/>
      <point x="91" y="444"/>
      <point x="138" y="465" type="curve" smooth="yes"/>
      <point x="178" y="482"/>
      <point x="232" y="494"/>
      <point x="275" y="494" type="curve" smooth="yes"/>
      <point x="321" y="494"/>
      <point x="373" y="481"/>
      <point x="410" y="460" type="curve" smooth="yes"/>
      <point x="451" y="437"/>
      <point x="467" y="406"/>
      <point x="467" y="346" type="curve" smooth="yes"/>
      <point x="467" y="134" type="line" smooth="yes"/>
      <point x="467" y="91"/>
      <point x="469" y="78"/>
      <point x="476" y="64" type="curve" smooth="yes"/>
      <point x="484" y="47"/>
      <point x="502" y="36"/>
      <point x="523" y="36" type="curve" smooth="yes"/>
      <point x="540" y="36"/>
      <point x="551" y="41"/>
    </contour>
    <contour>
      <point x="372" y="113" type="curve"/>
      <point x="372" y="249" type="line"/>
      <point x="221" y="236"/>
      <point x="137" y="192"/>
      <point x="137" y="125" type="curve" smooth="yes"/>
      <point x="137" y="77"/>
      <point x="176" y="39"/>
      <point x="224" y="39" type="curve" smooth="yes"/>
      <point x="274" y="39"/>
      <point x="316" y="60"/>
    </contour>
  </outline>
</glyph>
<glyph name="ccaron" format="1">
  <advance width="520"/>
  <unicode hex="010D"/>
  <outline>
    <contour>
      <point x="469" y="126" type="curve"/>
      <point x="498" y="108" type="line"/>
      <point x="446" y="27"/>
      <point x="379" y="-9"/>
      <point x="283" y="-9" type="curve" smooth="yes"/>
      <point x="136" y="-9"/>
      <point x="37" y="93"/>
      <point x="37" y="242" type="curve" smooth="yes"/>
      <point x="37" y="313"/>
      <point x="63" y="382"/>
      <point x="108" y="428" type="curve" smooth="yes"/>
      <point x="150" y="472"/>
      <point x="209" y="494"/>
      <point x="281" y="494" type="curve" smooth="yes"/>
      <point x="341" y="494"/>
      <point x="388" y="480"/>
      <point x="428" y="451" type="curve" smooth="yes"/>
      <point x="464" y="424"/>
      <point x="485" y="390"/>
      <point x="485" y="357" type="curve" smooth="yes"/>
      <point x="485" y="326"/>
      <point x="463" y="302"/>
      <point x="434" y="302" type="curve" smooth="yes"/>
      <point x="405" y="302"/>
      <point x="383" y="324"/>
      <point x="383" y="353" type="curve" smooth="yes"/>
      <point x="384" y="388" type="line" smooth="yes"/>
      <point x="384" y="423"/>
      <point x="337" y="454"/>
      <point x="285" y="454" type="curve" smooth="yes"/>
      <point x="230" y="454"/>
      <point x="191" y="430"/>
      <point x="168" y="382" type="curve" smooth="yes"/>
      <point x="149" y="343"/>
      <point x="139" y="294"/>
      <point x="139" y="238" type="curve" smooth="yes"/>
      <point x="139" y="114"/>
      <point x="208" y="31"/>
      <point x="311" y="31" type="curve" smooth="yes"/>
      <point x="372" y="31"/>
      <point x="413" y="56"/>
    </contour>
    <contour>
      <point x="290" y="562" type="line"/>
      <point x="148" y="655" type="line"/>
      <point x="161" y="680" type="line"/>
      <point x="290" y="634" type="line"/>
      <point x="418" y="680" type="line"/>
      <point x="432" y="655" type="line"/>
    </contour>
  </outline>
</glyph>
<glyph name="Dcroat" format="1">
  <advance width="800"/>
  <unicode hex="0110"/>
  <outline>
    <contour>
      <point x="121" y="387" type="line"/>
      <point x="121" y="536" type="line" smooth="yes"/>
      <point x="121" y="619"/>
      <point x="108" y="640"/>
      <point x="56" y="647" type="curve" smooth="yes"/>
      <point x="31" y="650" type="line"/>
      <point x="31" y="681" type="line"/>
      <point x="336" y="681" type="line" smooth="yes"/>
      <point x="487" y="681"/>
      <point x="584" y="652"/>
      <point x="652" y="587" type="curve" smooth="yes"/>
      <point x="713" y="529"/>
      <point x="752" y="430"/>
      <point x="752" y="335" type="curve" smooth="yes"/>
      <point x="752" y="237"/>
      <point x="711" y="141"/>
      <point x="644" y="83" type="curve" smooth="yes"/>
      <point x="574" y="22"/>
      <point x="491" y="0"/>
      <point x="336" y="0" type="curve" smooth="yes"/>
      <point x="31" y="0" type="line"/>
      <point x="31" y="31" type="line"/>
      <point x="56" y="34" type="line" smooth="yes"/>
      <point x="109" y="41"/>
      <point x="121" y="62"/>
      <point x="121" y="144" type="curve" smooth="yes"/>
      <point x="121" y="340" type="line"/>
      <point x="31" y="340" type="line"/>
      <point x="31" y="387" type="line"/>
    </contour>
    <contour>
      <point x="221" y="387" type="line"/>
      <point x="421" y="387" type="line"/>
      <point x="421" y="340" type="line"/>
      <point x="221" y="340" type="line"/>
      <point x="221" y="130" type="line" smooth="yes"/>
      <point x="221" y="89"/>
      <point x="224" y="73"/>
      <point x="235" y="63" type="curve" smooth="yes"/>
      <point x="249" y="50"/>
      <point x="290" y="41"/>
      <point x="339" y="41" type="curve" smooth="yes"/>
      <point x="440" y="41"/>
      <point x="521" y="74"/>
      <point x="570" y="135" type="curve" smooth="yes"/>
      <point x="610" y="186"/>
      <point x="634" y="262"/>
      <point x="634" y="342" type="curve" smooth="yes"/>
      <point x="634" y="415"/>
      <point x="614" y="483"/>
      <point x="579" y="534" type="curve"/>
      <point x="529" y="604"/>
      <point x="449" y="640"/>
      <point x="340" y="640" type="curve" smooth="yes"/>
      <point x="290" y="640"/>
      <point x="245" y="630"/>
      <point x="233" y="615" type="curve" smooth="yes"/>
      <point x="224" y="605"/>
      <point x="221" y="586"/>
      <point x="221" y="548" type="curve" smooth="yes"/>
    </contour>
  </outline>
</glyph>
<glyph name="Eogonek" format="1">
  <advance width="720"/>
  <unicode hex="0118"/>
  <outline>
    <contour>
      <point x="452" y="512" type="line"/>
      <point x="452" y="213" type="line"/>
      <point x="418" y="213" type="line"/>
      <point x="408" y="307"/>
      <point x="374" y="342"/>
      <point x="295" y="342" type="curve" smooth="yes"/>
      <point x="221" y="342" type="line"/>
      <point x="221" y="131" type="line" smooth="yes"/>
      <point x="221" y="99"/>
      <point x="225" y="83"/>
      <point x="234" y="71" type="curve" smooth="yes"/>
      <point x="250" y="52"/>
      <point x="284" y="43"/>
      <point x="334" y="43" type="curve" smooth="yes"/>
      <point x="483" y="43"/>
      <point x="565" y="87"/>
      <point x="674" y="227" type="curve"/>
      <point x="705" y="213" type="line"/>
      <point x="614" y="0" type="line"/>
      <point x="590" y="-19"/>
      <point x="575" y="-44"/>
      <point x="575" y="-67" type="curve" smooth="yes"/>
      <point x="575" y="-93"/>
      <point x="594" y="-112"/>
      <point x="621" y="-112" type="curve" smooth="yes"/>
      <point x="640" y="-112"/>
      <point x="659" y="-102"/>
      <point x="688" y="-75" type="curve"/>
      <point x="704" y="-96" type="line"/>
      <point x="655" y="-139"/>
      <point x="629" y="-152"/>
      <point x="592" y="-152" type="curve" smooth="yes"/>
      <point x="555" y="-152"/>
      <point x="527" y="-123"/>
      <point x="527" y="-84" type="curve" smooth="yes"/>
      <point x="527" y="-49"/>
      <point x="541" y="-26"/>
      <point x="577" y="0" type="curve"/>
      <point x="31" y="0" type="line"/>
      <point x="31" y="31" type="line"/>
      <point x="56" y="34" type="line" smooth="yes"/>
      <point x="108" y="41"/>
      <point x="121" y="62"/>
      <point x="121" y="144" type="curve" smooth="yes"/>
      <point x="121" y="537" type="line" smooth="yes"/>
      <point x="121" y="619"/>
      <point x="108" y="640"/>
      <point x="56" y="647" type="curve" smooth="yes"/>
      <point x="31" y="650" type="line"/>
      <point x="31" y="681" type="line"/>
      <point x="602" y="681" type="line"/>
      <point x="671" y="501" type="line"/>
      <point x="639" y="488" type="line"/>
      <point x="547" y="600"/>
      <point x="471" y="638"/>
      <point x="335" y="638" type="curve" smooth="yes"/>
      <point x="247" y="638"/>
      <point x="221" y="619"/>
      <point x="221" y="555" type="curve" smooth="yes"/>
      <point x="221" y="385" type="line"/>
      <point x="297" y="385" type="line" smooth="yes"/>
      <point x="382" y="385"/>
      <point x="404" y="408"/>
      <point x="418" y="512" type="curve"/>
    </contour>
  </outline>
</glyph>
<glyph name="Gcircumflex" format="1">
  <advance width="800"/>
  <unicode hex="011C"/>
  <outline>
    <contour>
      <point x="411" y="899" type="line"/>
      <point x="553" y="806" type="line"/>
      <point x="539" y="781" type="line"/>
      <point x="411" y="826" type="line"/>
      <point x="282" y="781" type="line"/>
      <point x="269" y="806" type="line"/>
    </contour>
    <contour>
      <point x="625" y="681" type="line"/>
      <point x="686" y="469" type="line"/>
      <point x="648" y="458" type="line"/>
      <point x="602" y="523"/>
      <point x="576" y="554"/>
      <point x="543" y="582" type="curve" smooth="yes"/>
      <point x="491" y="625"/>
      <point x="439" y="646"/>
      <point x="385" y="646" type="curve" smooth="yes"/>
      <point x="251" y="646"/>
      <point x="162" y="522"/>
      <point x="162" y="336" type="curve" smooth="yes"/>
      <point x="162" y="156"/>
      <point x="259" y="35"/>
      <point x="403" y="35" type="curve" smooth="yes"/>
      <point x="469" y="35"/>
      <point x="537" y="63"/>
      <point x="571" y="103" type="curve"/>
      <point x="591" y="129"/>
      <point x="603" y="164"/>
      <point x="603" y="200" type="curve" smooth="yes"/>
      <point x="603" y="261"/>
      <point x="578" y="285"/>
      <point x="505" y="294" type="curve"/>
      <point x="505" y="324" type="line"/>
      <point x="778" y="324" type="line"/>
      <point x="778" y="293" type="line"/>
      <point x="760" y="290" type="line" smooth="yes"/>
      <point x="726" y="284"/>
      <point x="714" y="278"/>
      <point x="707" y="262" type="curve" smooth="yes"/>
      <point x="699" y="243"/>
      <point x="695" y="218"/>
      <point x="695" y="180" type="curve" smooth="yes"/>
      <point x="695" y="0" type="line"/>
      <point x="648" y="0" type="line"/>
      <point x="616" y="69" type="line"/>
      <point x="541" y="11"/>
      <point x="475" y="-13"/>
      <point x="389" y="-13" type="curve" smooth="yes"/>
      <point x="192" y="-13"/>
      <point x="44" y="140"/>
      <point x="44" y="343" type="curve" smooth="yes"/>
      <point x="44" y="438"/>
      <point x="76" y="522"/>
      <point x="135" y="587" type="curve"/>
      <point x="198" y="654"/>
      <point x="289" y="694"/>
      <point x="379" y="694" type="curve" smooth="yes"/>
      <point x="448" y="694"/>
      <point x="516" y="673"/>
      <point x="574" y="633" type="curve"/>
      <point x="594" y="681" type="line"/>
    </contour>
  </outline>
</glyph>
<glyph name="hcircumflex" format="1">
  <advance width="660"/>
  <unicode hex="0125"/>
  <outline>
    <contour>
      <point x="332" y="935" type="line"/>
      <point x="474" y="842" type="line"/>
      <point x="460" y="817" type="line"/>
      <point x="332" y="862" type="line"/>
      <point x="203" y="817" type="line"/>
      <point x="190" y="842" type="line"/>
    </contour>
    <contour>
      <point x="202" y="717" type="line"/>
      <point x="202" y="411" type="line"/>
      <point x="268" y="468"/>
      <point x="330" y="494"/>
      <point x="399" y="494" type="curve" smooth="yes"/>
      <point x="445" y="494"/>
      <point x="483" y="484"/>
      <point x="511" y="465" type="curve" smooth="yes"/>
      <point x="545" y="442"/>
      <point x="556" y="413"/>
      <point x="556" y="351" type="curve" smooth="yes"/>
      <point x="556" y="115" type="line" smooth="yes"/>
      <point x="556" y="60"/>
      <point x="574" y="37"/>
      <point x="618" y="32" type="curve"/>
      <point x="643" y="30" type="line"/>
      <point x="643" y="0" type="line"/>
      <point x="374" y="0" type="line"/>
      <point x="374" y="30" type="line"/>
      <point x="399" y="32" type="line"/>
      <point x="443" y="37"/>
      <point x="461" y="60"/>
      <point x="461" y="115" type="curve" smooth="yes"/>
      <point x="461" y="345" type="line" smooth="yes"/>
      <point x="461" y="412"/>
      <point x="432" y="446"/>
      <point x="375" y="446" type="curve" smooth="yes"/>
      <point x="317" y="446"/>
      <point x="261" y="420"/>
      <point x="202" y="364" type="curve"/>
      <point x="202" y="115" type="line" smooth="yes"/>
      <point x="202" y="60"/>
      <point x="220" y="37"/>
      <point x="264" y="32" type="curve"/>
      <point x="289" y="30" type="line"/>
      <point x="289" y="0" type="line"/>
      <point x="20" y="0" type="line"/>
      <point x="20" y="30" type="line"/>
      <point x="45" y="32" type="line"/>
      <point x="89" y="37"/>
      <point x="107" y="60"/>
      <point x="107" y="115" type="curve" smooth="yes"/>
      <point x="107" y="538" type="line" smooth="yes"/>
      <point x="107" y="627"/>
      <point x="96" y="645"/>
      <point x="42" y="650" type="curve" smooth="yes"/>
      <point x="20" y="652" type="line"/>
      <point x="20" y="683" type="line"/>
      <point x="88" y="691"/>
      <point x="111" y="697"/>
      <point x="162" y="717" type="curve"/>
    </contour>
  </outline>
</glyph>
<glyph name="Itilde" format="1">
  <advance width="340"/>
  <unicode hex="0128"/>
  <outline>
    <contour>
      <point x="290" y="862" type="curve"/>
      <point x="319" y="853" type="line"/>
      <point x="304" y="803"/>
      <point x="277" y="781"/>
      <point x="229" y="781" type="curve" smooth="yes"/>
      <point x="205" y="781"/>
      <point x="183" y="785"/>
      <point x="134" y="799" type="curve" smooth="yes"/>
      <point x="103" y="807"/>
      <point x="94" y="809"/>
      <point x="80" y="809" type="curve" smooth="yes"/>
      <point x="65" y="809"/>
      <point x="54" y="804"/>
      <point x="41" y="789" type="curve"/>
      <point x="12" y="799" type="line"/>
      <point x="25" y="840"/>
      <point x="59" y="867"/>
      <point x="98" y="867" type="curve" smooth="yes"/>
      <point x="121" y="867"/>
      <point x="142" y="863"/>
      <point x="193" y="849" type="curve" smooth="yes"/>
      <point x="217" y="842"/>
      <point x="229" y="840"/>
      <point x="242" y="840" type="curve" smooth="yes"/>
      <point x="262" y="840"/>
      <point x="279" y="848"/>
    </contour>
    <contour>
      <point x="216" y="537" type="curve" smooth="yes"/>
      <point x="216" y="144" type="line" smooth="yes"/>
      <point x="216" y="61"/>
      <point x="227" y="43"/>
      <point x="281" y="34" type="curve" smooth="yes"/>
      <point x="301" y="31" type="line"/>
      <point x="301" y="0" type="line"/>
      <point x="31" y="0" type="line"/>
      <point x="31" y="31" type="line"/>
      <point x="51" y="34" type="line" smooth="yes"/>
      <point x="105" y="43"/>
      <point x="116" y="61"/>
      <point x="116" y="144" type="curve" smooth="yes"/>
      <point x="116" y="537" type="line" smooth="yes"/>
      <point x="116" y="620"/>
      <point x="105" y="638"/>
      <point x="51" y="647" type="curve" smooth="yes"/>
      <point x="31" y="650" type="line"/>
      <point x="31" y="681" type="line"/>
      <point x="301" y="681" type="line"/>
      <point x="301" y="650" type="line"/>
      <point x="281" y="647" type="line" smooth="yes"/>
      <point x="227" y="638"/>
      <point x="216" y="620"/>
    </contour>
  </outline>
</glyph>
<glyph name="itilde" format="1">
  <advance width="300"/>
  <unicode hex="0129"/>
  <outline>
    <contour>
      <point x="278" y="666" type="curve"/>
      <point x="307" y="657" type="line"/>
      <point x="292" y="607"/>
      <point x="265" y="585"/>
      <point x="217" y="585" type="curve" smooth="yes"/>
      <point x="193" y="585"/>
      <point x="171" y="589"/>
      <point x="122" y="603" type="curve" smooth="yes"/>
      <point x="91" y="611"/>
      <point x="82" y="613"/>
      <point x="68" y="613" type="curve" smooth="yes"/>
      <point x="53" y="613"/>
      <point x="42" y="608"/>
      <point x="29" y="593" type="curve"/>
      <point x="0" y="603" type="line"/>
      <point x="13" y="644"/>
      <point x="47" y="671"/>
      <point x="86" y="671" type="curve" smooth="yes"/>
      <point x="109" y="671"/>
      <point x="130" y="667"/>
      <point x="181" y="653" type="curve" smooth="yes"/>
      <point x="205" y="646"/>
      <point x="217" y="644"/>
      <point x="230" y="644" type="curve" smooth="yes"/>
      <point x="250" y="644"/>
      <point x="267" y="652"/>
    </contour>
    <contour>
      <point x="202" y="485" type="line"/>
      <point x="202" y="115" type="line" smooth="yes"/>
      <point x="202" y="60"/>
      <point x="219" y="37"/>
      <point x="264" y="32" type="curve"/>
      <point x="288" y="30" type="line"/>
      <point x="288" y="0" type="line"/>
      <point x="20" y="0" type="line"/>
      <point x="20" y="30" type="line"/>
      <point x="45" y="32" type="line"/>
      <point x="89" y="37"/>
      <point x="107" y="60"/>
      <point x="107" y="115" type="curve" smooth="yes"/>
      <point x="107" y="350" type="line" smooth="yes"/>
      <point x="107" y="410"/>
      <point x="93" y="428"/>
      <point x="41" y="433" type="curve" smooth="yes"/>
      <point x="21" y="435" type="line"/>
      <point x="21" y="465" type="line"/>
      <point x="74" y="469"/>
      <point x="107" y="474"/>
      <point x="168" y="485" type="curve"/>
    </contour>
  </outline>
</glyph>
<glyph name="imacron" format="1">
  <advance width="300"/>
  <unicode hex="012B"/>
  <outline>
    <contour>
      <point x="202" y="485" type="line"/>
      <point x="202" y="115" type="line" smooth="yes"/>
      <point x="202" y="60"/>
      <point x="219" y="37"/>
      <point x="264" y="32" type="curve"/>
      <point x="288" y="30" type="line"/>
      <point x="288" y="0" type="line"/>
      <point x="20" y="0" type="line"/>
      <point x="20" y="30" type="line"/>
      <point x="45" y="32" type="line"/>
      <point x="89" y="37"/>
      <point x="107" y="60"/>
      <point x="107" y="115" type="curve" smooth="yes"/>
      <point x="107" y="350" type="line" smooth="yes"/>
      <point x="107" y="410"/>
      <point x="93" y="428"/>
      <point x="41" y="433" type="curve" smooth="yes"/>
      <point x="21" y="435" type="line"/>
      <point x="21" y="465" type="line"/>
      <point x="74" y="469"/>
      <point x="107" y="474"/>
      <point x="168" y="485" type="curve"/>
    </contour>
    <contour>
      <point x="294" y="637" type="line"/>
      <point x="294" y="587" type="line"/>
      <point x="-2" y="587" type="line"/>
      <point x="-2" y="637" type="line"/>
    </contour>
  </outline>
</glyph>
<glyph name="Ibreve" format="1">
  <advance width="340"/>
  <unicode hex="012C"/>
  <outline>
    <contour>
      <point x="2" y="882" type="curve"/>
      <point x="25" y="900" type="line"/>
      <point x="67" y="866"/>
      <point x="115" y="848"/>
      <point x="167" y="848" type="curve" smooth="yes"/>
      <point x="217" y="848"/>
      <point x="273" y="869"/>
      <point x="307" y="900" type="curve"/>
      <point x="330" y="882" type="line"/>
      <point x="299" y="821"/>
      <point x="234" y="781"/>
      <point x="165" y="781" type="curve" smooth="yes"/>
      <point x="91" y="781"/>
      <point x="32" y="818"/>
    </contour>
    <contour>
      <point x="216" y="537" type="curve" smooth="yes"/>
      <point x="216" y="144" type="line" smooth="yes"/>
      <point x="216" y="61"/>
      <point x="227" y="43"/>
      <point x="281" y="34" type="curve" smooth="yes"/>
      <point x="301" y="31" type="line"/>
      <point x="301" y="0" type="line"/>
      <point x="31" y="0" type="line"/>
      <point x="31" y="31" type="line"/>
      <point x="51" y="34" type="line" smooth="yes"/>
      <point x="105" y="43"/>
      <point x="116" y="61"/>
      <point x="116" y="144" type="curve" smooth="yes"/>
      <point x="116" y="537" type="line" smooth="yes"/>
      <point x="116" y="620"/>
      <point x="105" y="638"/>
      <point x="51" y="647" type="curve" smooth="yes"/>
      <point x="31" y="650" type="line"/>
      <point x="31" y="681" type="line"/>
      <point x="301" y="681" type="line"/>
      <point x="301" y="650" type="line"/>
      <point x="281" y="647" type="line" smooth="yes"/>
      <point x="227" y="638"/>
      <point x="216" y="620"/>
    </contour>
  </outline>
</glyph>
<glyph name="ibreve" format="1">
  <advance width="300"/>
  <unicode hex="012D"/>
  <outline>
    <contour>
      <point x="-10" y="686" type="curve"/>
      <point x="13" y="704" type="line"/>
      <point x="55" y="670"/>
      <point x="103" y="652"/>
      <point x="155" y="652" type="curve" smooth="yes"/>
      <point x="205" y="652"/>
      <point x="261" y="673"/>
      <point x="295" y="704" type="curve"/>
      <point x="318" y="686" type="line"/>
      <point x="287" y="625"/>
      <point x="222" y="585"/>
      <point x="153" y="585" type="curve" smooth="yes"/>
      <point x="79" y="585"/>
      <point x="20" y="622"/>
    </contour>
    <contour>
      <point x="202" y="485" type="line"/>
      <point x="202" y="115" type="line" smooth="yes"/>
      <point x="202" y="60"/>
      <point x="219" y="37"/>
      <point x="264" y="32" type="curve"/>
      <point x="288" y="30" type="line"/>
      <point x="288" y="0" type="line"/>
      <point x="20" y="0" type="line"/>
      <point x="20" y="30" type="line"/>
      <point x="45" y="32" type="line"/>
      <point x="89" y="37"/>
      <point x="107" y="60"/>
      <point x="107" y="115" type="curve" smooth="yes"/>
      <point x="107" y="350" type="line" smooth="yes"/>
      <point x="107" y="410"/>
      <point x="93" y="428"/>
      <point x="41" y="433" type="curve" smooth="yes"/>
      <point x="21" y="435" type="line"/>
      <point x="21" y="465" type="line"/>
      <point x="74" y="469"/>
      <point x="107" y="474"/>
      <point x="168" y="485" type="curve"/>
    </contour>
  </outline>
</glyph>
<glyph name="IJ" format="1">
  <advance width="910"/>
  <unicode hex="0132"/>
  <outline>
    <contour>
      <point x="777" y="537" type="curve" smooth="yes"/>
      <point x="777" y="260" type="line" smooth="yes"/>
      <point x="777" y="148"/>
      <point x="771" y="114"/>
      <point x="742" y="76" type="curve" smooth="yes"/>
      <point x="702" y="22"/>
      <point x="618" y="-13"/>
      <point x="528" y="-13" type="curve" smooth="yes"/>
      <point x="467" y="-13"/>
      <point x="408" y="3"/>
      <point x="366" y="31" type="curve" smooth="yes"/>
      <point x="312" y="67"/>
      <point x="277" y="129"/>
      <point x="277" y="186" type="curve" smooth="yes"/>
      <point x="277" y="238"/>
      <point x="309" y="275"/>
      <point x="355" y="275" type="curve" smooth="yes"/>
      <point x="388" y="275"/>
      <point x="410" y="254"/>
      <point x="410" y="221" type="curve" smooth="yes"/>
      <point x="410" y="203"/>
      <point x="403" y="189"/>
      <point x="385" y="173" type="curve" smooth="yes"/>
      <point x="370" y="159"/>
      <point x="365" y="149"/>
      <point x="365" y="133" type="curve" smooth="yes"/>
      <point x="365" y="80"/>
      <point x="432" y="35"/>
      <point x="509" y="35" type="curve" smooth="yes"/>
      <point x="571" y="35"/>
      <point x="620" y="57"/>
      <point x="645" y="97" type="curve" smooth="yes"/>
      <point x="670" y="137"/>
      <point x="677" y="185"/>
      <point x="677" y="311" type="curve" smooth="yes"/>
      <point x="677" y="537" type="line" smooth="yes"/>
      <point x="677" y="619"/>
      <point x="664" y="640"/>
      <point x="612" y="647" type="curve" smooth="yes"/>
      <point x="587" y="650" type="line"/>
      <point x="587" y="681" type="line"/>
      <point x="867" y="681" type="line"/>
      <point x="867" y="650" type="line"/>
      <point x="842" y="647" type="line" smooth="yes"/>
      <point x="790" y="640"/>
      <point x="777" y="619"/>
    </contour>
    <contour>
      <point x="216" y="537" type="curve" smooth="yes"/>
      <point x="216" y="144" type="line" smooth="yes"/>
      <point x="216" y="61"/>
      <point x="227" y="43"/>
      <point x="281" y="34" type="curve" smooth="yes"/>
      <point x="301" y="31" type="line"/>
      <point x="301" y="0" type="line"/>
      <point x="31" y="0" type="line"/>
      <point x="31" y="31" type="line"/>
      <point x="51" y="34" type="line" smooth="yes"/>
      <point x="105" y="43"/>
      <point x="116" y="61"/>
      <point x="116" y="144" type="curve" smooth="yes"/>
      <point x="116" y="537" type="line" smooth="yes"/>
      <point x="116" y="620"/>
      <point x="105" y="638"/>
      <point x="51" y="647" type="curve" smooth="yes"/>
      <point x="31" y="650" type="line"/>
      <point x="31" y="681" type="line"/>
      <point x="301" y="681" type="line"/>
      <point x="301" y="650" type="line"/>
      <point x="281" y="647" type="line" smooth="yes"/>
      <point x="227" y="638"/>
      <point x="216" y="620"/>
    </contour>
  </outline>
</glyph>
<glyph name="ij" format="1">
  <advance width="546"/>
  <unicode hex="0133"/>
  <outline>
    <contour>
      <point x="463" y="485" type="line"/>
      <point x="463" y="-47" type="line" smooth="yes"/>
      <point x="463" y="-120"/>
      <point x="449" y="-155"/>
      <point x="403" y="-192" type="curve" smooth="yes"/>
      <point x="364" y="-224"/>
      <point x="312" y="-241"/>
      <point x="258" y="-241" type="curve" smooth="yes"/>
      <point x="194" y="-241"/>
      <point x="151" y="-216"/>
      <point x="151" y="-180" type="curve" smooth="yes"/>
      <point x="151" y="-158"/>
      <point x="172" y="-140"/>
      <point x="197" y="-140" type="curve" smooth="yes"/>
      <point x="213" y="-140"/>
      <point x="224" y="-146"/>
      <point x="241" y="-166" type="curve" smooth="yes"/>
      <point x="262" y="-190"/>
      <point x="273" y="-196"/>
      <point x="296" y="-196" type="curve" smooth="yes"/>
      <point x="315" y="-196"/>
      <point x="334" y="-188"/>
      <point x="344" y="-177" type="curve" smooth="yes"/>
      <point x="365" y="-151"/>
      <point x="368" y="-128"/>
      <point x="368" y="5" type="curve" smooth="yes"/>
      <point x="368" y="350" type="line" smooth="yes"/>
      <point x="368" y="410"/>
      <point x="353" y="429"/>
      <point x="302" y="433" type="curve" smooth="yes"/>
      <point x="278" y="435" type="line"/>
      <point x="278" y="465" type="line"/>
      <point x="334" y="469"/>
      <point x="367" y="473"/>
      <point x="429" y="485" type="curve"/>
    </contour>
    <contour>
      <point x="414" y="654" type="curve" smooth="yes"/>
      <point x="447" y="654"/>
      <point x="474" y="626"/>
      <point x="474" y="593" type="curve" smooth="yes"/>
      <point x="474" y="560"/>
      <point x="447" y="533"/>
      <point x="413" y="533" type="curve" smooth="yes"/>
      <point x="380" y="533"/>
      <point x="353" y="560"/>
      <point x="353" y="594" type="curve" smooth="yes"/>
      <point x="353" y="627"/>
      <point x="380" y="654"/>
    </contour>
    <contour>
      <point x="202" y="485" type="line"/>
      <point x="202" y="115" type="line" smooth="yes"/>
      <point x="202" y="60"/>
      <point x="219" y="37"/>
      <point x="264" y="32" type="curve"/>
      <point x="288" y="30" type="line"/>
      <point x="288" y="0" type="line"/>
      <point x="20" y="0" type="line"/>
      <point x="20" y="30" type="line"/>
      <point x="45" y="32" type="line"/>
      <point x="89" y="37"/>
      <point x="107" y="60"/>
      <point x="107" y="115" type="curve" smooth="yes"/>
      <point x="107" y="350" type="line" smooth="yes"/>
      <point x="107" y="410"/>
      <point x="93" y="428"/>
      <point x="41" y="433" type="curve" smooth="yes"/>
      <point x="21" y="435" type="line"/>
      <point x="21" y="465" type="line"/>
      <point x="74" y="469"/>
      <point x="107" y="474"/>
      <point x="168" y="485" type="curve"/>
    </contour>
    <contour>
      <point x="156" y="654" type="curve" smooth="yes"/>
      <point x="189" y="654"/>
      <point x="216" y="626"/>
      <point x="216" y="593" type="curve" smooth="yes"/>
      <point x="216" y="560"/>
      <point x="189" y="533"/>
      <point x="155" y="533" type="curve" smooth="yes"/>
      <point x="122" y="533"/>
      <point x="95" y="560"/>
      <point x="95" y="594" type="curve" smooth="yes"/>
      <point x="95" y="627"/>
      <point x="122" y="654"/>
    </contour>
  </outline>
</glyph>
<glyph name="jcircumflex" format="1">
  <advance width="300"/>
  <unicode hex="0135"/>
  <outline>
    <contour>
      <point x="203" y="485" type="line"/>
      <point x="203" y="-47" type="line" smooth="yes"/>
      <point x="203" y="-120"/>
      <point x="189" y="-155"/>
      <point x="143" y="-192" type="curve" smooth="yes"/>
      <point x="104" y="-224"/>
      <point x="52" y="-241"/>
      <point x="-2" y="-241" type="curve" smooth="yes"/>
      <point x="-66" y="-241"/>
      <point x="-109" y="-216"/>
      <point x="-109" y="-180" type="curve" smooth="yes"/>
      <point x="-109" y="-158"/>
      <point x="-88" y="-140"/>
      <point x="-63" y="-140" type="curve" smooth="yes"/>
      <point x="-47" y="-140"/>
      <point x="-36" y="-146"/>
      <point x="-19" y="-166" type="curve" smooth="yes"/>
      <point x="2" y="-190"/>
      <point x="13" y="-196"/>
      <point x="36" y="-196" type="curve" smooth="yes"/>
      <point x="55" y="-196"/>
      <point x="74" y="-188"/>
      <point x="84" y="-177" type="curve" smooth="yes"/>
      <point x="105" y="-151"/>
      <point x="108" y="-128"/>
      <point x="108" y="5" type="curve" smooth="yes"/>
      <point x="108" y="350" type="line" smooth="yes"/>
      <point x="108" y="410"/>
      <point x="93" y="429"/>
      <point x="42" y="433" type="curve" smooth="yes"/>
      <point x="18" y="435" type="line"/>
      <point x="18" y="465" type="line"/>
      <point x="74" y="469"/>
      <point x="107" y="473"/>
      <point x="169" y="485" type="curve"/>
    </contour>
    <contour>
      <point x="154" y="682" type="line"/>
      <point x="296" y="589" type="line"/>
      <point x="282" y="564" type="line"/>
      <point x="154" y="609" type="line"/>
      <point x="25" y="564" type="line"/>
      <point x="12" y="589" type="line"/>
    </contour>
  </outline>
</glyph>
<glyph name="Kcommaaccent" format="1">
  <advance width="720"/>
  <unicode hex="0136"/>
  <outline>
    <contour>
      <point x="750" y="0" type="line"/>
      <point x="442" y="0" type="line"/>
      <point x="442" y="31" type="line"/>
      <point x="450" y="32"/>
      <point x="457" y="33"/>
      <point x="460" y="33" type="curve" smooth="yes"/>
      <point x="504" y="37"/>
      <point x="521" y="49"/>
      <point x="521" y="73" type="curve" smooth="yes"/>
      <point x="521" y="87"/>
      <point x="515" y="102"/>
      <point x="498" y="129" type="curve" smooth="yes"/>
      <point x="337" y="386" type="line"/>
      <point x="221" y="283" type="line"/>
      <point x="221" y="144" type="line" smooth="yes"/>
      <point x="221" y="63"/>
      <point x="236" y="38"/>
      <point x="286" y="34" type="curve" smooth="yes"/>
      <point x="327" y="31" type="line"/>
      <point x="327" y="0" type="line"/>
      <point x="31" y="0" type="line"/>
      <point x="31" y="31" type="line"/>
      <point x="56" y="34" type="line" smooth="yes"/>
      <point x="108" y="41"/>
      <point x="121" y="62"/>
      <point x="121" y="144" type="curve" smooth="yes"/>
      <point x="121" y="537" type="line" smooth="yes"/>
      <point x="121" y="619"/>
      <point x="108" y="640"/>
      <point x="56" y="647" type="curve" smooth="yes"/>
      <point x="31" y="650" type="line"/>
      <point x="31" y="681" type="line"/>
      <point x="327" y="681" type="line"/>
      <point x="327" y="650" type="line"/>
      <point x="286" y="647" type="line" smooth="yes"/>
      <point x="236" y="643"/>
      <point x="221" y="618"/>
      <point x="221" y="537" type="curve" smooth="yes"/>
      <point x="221" y="345" type="line"/>
      <point x="397" y="504" type="line"/>
      <point x="403" y="509" type="line"/>
      <point x="426" y="529" type="line" smooth="yes"/>
      <point x="477" y="574"/>
      <point x="485" y="585"/>
      <point x="485" y="608" type="curve" smooth="yes"/>
      <point x="485" y="634"/>
      <point x="470" y="645"/>
      <point x="427" y="649" type="curve" smooth="yes"/>
      <point x="417" y="650" type="line"/>
      <point x="417" y="681" type="line"/>
      <point x="703" y="681" type="line"/>
      <point x="703" y="650" type="line"/>
      <point x="696" y="648" type="line"/>
      <point x="653" y="640"/>
      <point x="598" y="608"/>
      <point x="537" y="556" type="curve"/>
      <point x="417" y="451" type="line"/>
      <point x="607" y="141" type="line"/>
      <point x="656" y="65"/>
      <point x="682" y="45"/>
      <point x="750" y="30" type="curve"/>
    </contour>
    <contour>
      <point x="328" y="-268" type="curve"/>
      <point x="317" y="-246" type="line"/>
      <point x="359" y="-219"/>
      <point x="376" y="-193"/>
      <point x="379" y="-154" type="curve"/>
      <point x="365" y="-165"/>
      <point x="358" y="-168"/>
      <point x="348" y="-168" type="curve" smooth="yes"/>
      <point x="316" y="-168"/>
      <point x="294" y="-144"/>
      <point x="294" y="-111" type="curve" smooth="yes"/>
      <point x="294" y="-78"/>
      <point x="322" y="-50"/>
      <point x="356" y="-50" type="curve" smooth="yes"/>
      <point x="395" y="-50"/>
      <point x="426" y="-87"/>
      <point x="426" y="-132" type="curve" smooth="yes"/>
      <point x="426" y="-189"/>
      <point x="390" y="-239"/>
    </contour>
  </outline>
</glyph>
<glyph name="kgreenlandic" format="1">
  <advance width="638"/>
  <unicode hex="0138"/>
  <outline>
    <contour>
      <point x="210" y="242" type="line"/>
      <point x="210" y="102" type="line" smooth="yes"/>
      <point x="210" y="44"/>
      <point x="225" y="26"/>
      <point x="275" y="24" type="curve" smooth="yes"/>
      <point x="316" y="22" type="line"/>
      <point x="316" y="0" type="line"/>
      <point x="20" y="0" type="line"/>
      <point x="20" y="22" type="line"/>
      <point x="45" y="24" type="line" smooth="yes"/>
      <point x="97" y="28"/>
      <point x="110" y="44"/>
      <point x="110" y="102" type="curve" smooth="yes"/>
      <point x="110" y="383" type="line" smooth="yes"/>
      <point x="110" y="441"/>
      <point x="97" y="457"/>
      <point x="45" y="461" type="curve" smooth="yes"/>
      <point x="20" y="463" type="line"/>
      <point x="20" y="485" type="line"/>
      <point x="316" y="485" type="line"/>
      <point x="316" y="463" type="line"/>
      <point x="275" y="461" type="line" smooth="yes"/>
      <point x="225" y="459"/>
      <point x="210" y="440"/>
      <point x="210" y="383" type="curve" smooth="yes"/>
      <point x="210" y="272" type="line"/>
      <point x="246" y="272" type="line"/>
      <point x="314" y="271"/>
      <point x="356" y="337"/>
      <point x="374" y="408" type="curve" smooth="yes"/>
      <point x="388" y="465"/>
      <point x="428" y="497"/>
      <point x="491" y="496" type="curve" smooth="yes"/>
      <point x="532" y="495"/>
      <point x="574" y="478"/>
      <point x="577" y="433" type="curve" smooth="yes"/>
      <point x="579" y="403"/>
      <point x="566" y="378"/>
      <point x="527" y="378" type="curve" smooth="yes"/>
      <point x="493" y="378"/>
      <point x="481" y="386"/>
      <point x="473" y="399" type="curve" smooth="yes"/>
      <point x="463" y="415"/>
      <point x="474" y="436"/>
      <point x="456" y="436" type="curve" smooth="yes"/>
      <point x="440" y="436"/>
      <point x="434" y="429"/>
      <point x="432" y="413" type="curve" smooth="yes"/>
      <point x="424" y="352"/>
      <point x="384" y="283"/>
      <point x="313" y="257" type="curve"/>
      <point x="426" y="248"/>
      <point x="470" y="161"/>
      <point x="488" y="107" type="curve" smooth="yes"/>
      <point x="498" y="77"/>
      <point x="506" y="51"/>
      <point x="544" y="51" type="curve" smooth="yes"/>
      <point x="578" y="51"/>
      <point x="588" y="100"/>
      <point x="588" y="100" type="curve"/>
      <point x="624" y="93" type="line"/>
      <point x="624" y="93"/>
      <point x="612" y="-12"/>
      <point x="480" y="-12" type="curve" smooth="yes"/>
      <point x="416" y="-12"/>
      <point x="385" y="35"/>
      <point x="381" y="73" type="curve" smooth="yes"/>
      <point x="372" y="161"/>
      <point x="352" y="194"/>
      <point x="320" y="220" type="curve" smooth="yes"/>
      <point x="291" y="243"/>
      <point x="280" y="242"/>
      <point x="230" y="242" type="curve" smooth="yes"/>
    </contour>
  </outline>
</glyph>
<glyph name="Lacute" format="1">
  <advance width="600"/>
  <unicode hex="0139"/>
  <outline>
    <contour>
      <point x="629" y="214" type="line"/>
      <point x="549" y="0" type="line"/>
      <point x="31" y="0" type="line"/>
      <point x="31" y="31" type="line"/>
      <point x="56" y="34" type="line" smooth="yes"/>
      <point x="108" y="41"/>
      <point x="121" y="62"/>
      <point x="121" y="144" type="curve" smooth="yes"/>
      <point x="121" y="537" type="line" smooth="yes"/>
      <point x="121" y="619"/>
      <point x="108" y="640"/>
      <point x="56" y="647" type="curve" smooth="yes"/>
      <point x="31" y="650" type="line"/>
      <point x="31" y="681" type="line"/>
      <point x="318" y="681" type="line"/>
      <point x="318" y="650" type="line"/>
      <point x="286" y="647" type="line" smooth="yes"/>
      <point x="235" y="642"/>
      <point x="221" y="618"/>
      <point x="221" y="537" type="curve" smooth="yes"/>
      <point x="221" y="123" type="line" smooth="yes"/>
      <point x="221" y="93"/>
      <point x="225" y="73"/>
      <point x="233" y="63" type="curve" smooth="yes"/>
      <point x="245" y="48"/>
      <point x="274" y="38"/>
      <point x="307" y="38" type="curve" smooth="yes"/>
      <point x="368" y="38"/>
      <point x="434" y="62"/>
      <point x="491" y="105" type="curve" smooth="yes"/>
      <point x="530" y="134"/>
      <point x="555" y="162"/>
      <point x="601" y="227" type="curve"/>
    </contour>
    <contour>
      <point x="203" y="753" type="line"/>
      <point x="198" y="767" type="line"/>
      <point x="293" y="835" type="line"/>
      <point x="322" y="857"/>
      <point x="349" y="869"/>
      <point x="369" y="869" type="curve" smooth="yes"/>
      <point x="389" y="869"/>
      <point x="404" y="853"/>
      <point x="404" y="832" type="curve" smooth="yes"/>
      <point x="404" y="806"/>
      <point x="385" y="791"/>
      <point x="342" y="782" type="curve" smooth="yes"/>
    </contour>
  </outline>
</glyph>
<glyph name="lacute" format="1">
  <advance width="300"/>
  <unicode hex="013A"/>
  <outline>
    <contour>
      <point x="201" y="717" type="line"/>
      <point x="201" y="115" type="line" smooth="yes"/>
      <point x="201" y="60"/>
      <point x="218" y="37"/>
      <point x="263" y="32" type="curve"/>
      <point x="286" y="30" type="line"/>
      <point x="286" y="0" type="line"/>
      <point x="20" y="0" type="line"/>
      <point x="20" y="30" type="line"/>
      <point x="44" y="32" type="line"/>
      <point x="89" y="37"/>
      <point x="106" y="60"/>
      <point x="106" y="115" type="curve" smooth="yes"/>
      <point x="106" y="538" type="line" smooth="yes"/>
      <point x="106" y="627"/>
      <point x="95" y="645"/>
      <point x="41" y="650" type="curve" smooth="yes"/>
      <point x="20" y="652" type="line"/>
      <point x="20" y="683" type="line"/>
      <point x="88" y="691"/>
      <point x="111" y="697"/>
      <point x="161" y="717" type="curve"/>
    </contour>
    <contour>
      <point x="53" y="753" type="line"/>
      <point x="48" y="767" type="line"/>
      <point x="143" y="835" type="line"/>
      <point x="172" y="857"/>
      <point x="199" y="869"/>
      <point x="219" y="869" type="curve" smooth="yes"/>
      <point x="239" y="869"/>
      <point x="254" y="853"/>
      <point x="254" y="832" type="curve" smooth="yes"/>
      <point x="254" y="806"/>
      <point x="235" y="791"/>
      <point x="192" y="782" type="curve" smooth="yes"/>
    </contour>
  </outline>
</glyph>
<glyph name="Lcommaaccent" format="1">
  <advance width="600"/>
  <unicode hex="013B"/>
  <outline>
    <contour>
      <point x="629" y="214" type="line"/>
      <point x="549" y="0" type="line"/>
      <point x="31" y="0" type="line"/>
      <point x="31" y="31" type="line"/>
      <point x="56" y="34" type="line" smooth="yes"/>
      <point x="108" y="41"/>
      <point x="121" y="62"/>
      <point x="121" y="144" type="curve" smooth="yes"/>
      <point x="121" y="537" type="line" smooth="yes"/>
      <point x="121" y="619"/>
      <point x="108" y="640"/>
      <point x="56" y="647" type="curve" smooth="yes"/>
      <point x="31" y="650" type="line"/>
      <point x="31" y="681" type="line"/>
      <point x="318" y="681" type="line"/>
      <point x="318" y="650" type="line"/>
      <point x="286" y="647" type="line" smooth="yes"/>
      <point x="235" y="642"/>
      <point x="221" y="618"/>
      <point x="221" y="537" type="curve" smooth="yes"/>
      <point x="221" y="123" type="line" smooth="yes"/>
      <point x="221" y="93"/>
      <point x="225" y="73"/>
      <point x="233" y="63" type="curve" smooth="yes"/>
      <point x="245" y="48"/>
      <point x="274" y="38"/>
      <point x="307" y="38" type="curve" smooth="yes"/>
      <point x="368" y="38"/>
      <point x="434" y="62"/>
      <point x="491" y="105" type="curve" smooth="yes"/>
      <point x="530" y="134"/>
      <point x="555" y="162"/>
      <point x="601" y="227" type="curve"/>
    </contour>
    <contour>
      <point x="268" y="-268" type="curve"/>
      <point x="257" y="-246" type="line"/>
      <point x="299" y="-219"/>
      <point x="316" y="-193"/>
      <point x="319" y="-154" type="curve"/>
      <point x="305" y="-165"/>
      <point x="298" y="-168"/>
      <point x="288" y="-168" type="curve" smooth="yes"/>
      <point x="256" y="-168"/>
      <point x="234" y="-144"/>
      <point x="234" y="-111" type="curve" smooth="yes"/>
      <point x="234" y="-78"/>
      <point x="262" y="-50"/>
      <point x="296" y="-50" type="curve" smooth="yes"/>
      <point x="335" y="-50"/>
      <point x="366" y="-87"/>
      <point x="366" y="-132" type="curve" smooth="yes"/>
      <point x="366" y="-189"/>
      <point x="330" y="-239"/>
    </contour>
  </outline>
</glyph>
<glyph name="lcommaaccent" format="1">
  <advance width="300"/>
  <unicode hex="013C"/>
  <outline>
    <contour>
      <point x="201" y="717" type="line"/>
      <point x="201" y="115" type="line" smooth="yes"/>
      <point x="201" y="60"/>
      <point x="218" y="37"/>
      <point x="263" y="32" type="curve"/>
      <point x="286" y="30" type="line"/>
      <point x="286" y="0" type="line"/>
      <point x="20" y="0" type="line"/>
      <point x="20" y="30" type="line"/>
      <point x="44" y="32" type="line"/>
      <point x="89" y="37"/>
      <point x="106" y="60"/>
      <point x="106" y="115" type="curve" smooth="yes"/>
      <point x="106" y="538" type="line" smooth="yes"/>
      <point x="106" y="627"/>
      <point x="95" y="645"/>
      <point x="41" y="650" type="curve" smooth="yes"/>
      <point x="20" y="652" type="line"/>
      <point x="20" y="683" type="line"/>
      <point x="88" y="691"/>
      <point x="111" y="697"/>
      <point x="161" y="717" type="curve"/>
    </contour>
    <contour>
      <point x="118" y="-268" type="curve"/>
      <point x="107" y="-246" type="line"/>
      <point x="149" y="-219"/>
      <point x="166" y="-193"/>
      <point x="169" y="-154" type="curve"/>
      <point x="155" y="-165"/>
      <point x="148" y="-168"/>
      <point x="138" y="-168" type="curve" smooth="yes"/>
      <point x="106" y="-168"/>
      <point x="84" y="-144"/>
      <point x="84" y="-111" type="curve" smooth="yes"/>
      <point x="84" y="-78"/>
      <point x="112" y="-50"/>
      <point x="146" y="-50" type="curve" smooth="yes"/>
      <point x="185" y="-50"/>
      <point x="216" y="-87"/>
      <point x="216" y="-132" type="curve" smooth="yes"/>
      <point x="216" y="-189"/>
      <point x="180" y="-239"/>
    </contour>
  </outline>
</glyph>
<glyph name="lcaron" format="1">
  <advance width="336"/>
  <unicode hex="013E"/>
  <outline>
    <contour>
      <point x="201" y="717" type="line"/>
      <point x="201" y="115" type="line" smooth="yes"/>
      <point x="201" y="60"/>
      <point x="218" y="37"/>
      <point x="263" y="32" type="curve"/>
      <point x="286" y="30" type="line"/>
      <point x="286" y="0" type="line"/>
      <point x="20" y="0" type="line"/>
      <point x="20" y="30" type="line"/>
      <point x="44" y="32" type="line"/>
      <point x="89" y="37"/>
      <point x="106" y="60"/>
      <point x="106" y="115" type="curve" smooth="yes"/>
      <point x="106" y="538" type="line" smooth="yes"/>
      <point x="106" y="627"/>
      <point x="95" y="645"/>
      <point x="41" y="650" type="curve" smooth="yes"/>
      <point x="20" y="652" type="line"/>
      <point x="20" y="683" type="line"/>
      <point x="88" y="691"/>
      <point x="111" y="697"/>
      <point x="161" y="717" type="curve"/>
    </contour>
    <contour>
      <point x="258" y="500" type="curve"/>
      <point x="247" y="522" type="line"/>
      <point x="289" y="549"/>
      <point x="306" y="575"/>
      <point x="309" y="614" type="curve"/>
      <point x="295" y="603"/>
      <point x="288" y="600"/>
      <point x="278" y="600" type="curve" smooth="yes"/>
      <point x="246" y="600"/>
      <point x="224" y="624"/>
      <point x="224" y="657" type="curve" smooth="yes"/>
      <point x="224" y="690"/>
      <point x="252" y="718"/>
      <point x="286" y="718" type="curve" smooth="yes"/>
      <point x="325" y="718"/>
      <point x="356" y="681"/>
      <point x="356" y="636" type="curve" smooth="yes"/>
      <point x="356" y="579"/>
      <point x="320" y="529"/>
    </contour>
  </outline>
</glyph>
<glyph name="Lslash" format="1">
  <advance width="600"/>
  <unicode hex="0141"/>
  <outline>
    <contour>
      <point x="121" y="279" type="line"/>
      <point x="35" y="215" type="line"/>
      <point x="35" y="273" type="line"/>
      <point x="121" y="337" type="line"/>
      <point x="121" y="537" type="line" smooth="yes"/>
      <point x="121" y="619"/>
      <point x="108" y="640"/>
      <point x="56" y="647" type="curve" smooth="yes"/>
      <point x="31" y="650" type="line"/>
      <point x="31" y="681" type="line"/>
      <point x="318" y="681" type="line"/>
      <point x="318" y="650" type="line"/>
      <point x="286" y="647" type="line" smooth="yes"/>
      <point x="235" y="642"/>
      <point x="221" y="618"/>
      <point x="221" y="537" type="curve" smooth="yes"/>
      <point x="221" y="399" type="line"/>
      <point x="364" y="501" type="line"/>
      <point x="364" y="443" type="line"/>
      <point x="221" y="341" type="line"/>
      <point x="221" y="123" type="line" smooth="yes"/>
      <point x="221" y="93"/>
      <point x="225" y="73"/>
      <point x="233" y="63" type="curve" smooth="yes"/>
      <point x="245" y="48"/>
      <point x="274" y="38"/>
      <point x="307" y="38" type="curve" smooth="yes"/>
      <point x="367" y="38"/>
      <point x="434" y="62"/>
      <point x="490" y="105" type="curve" smooth="yes"/>
      <point x="529" y="134"/>
      <point x="554" y="162"/>
      <point x="600" y="227" type="curve"/>
      <point x="629" y="214" type="line"/>
      <point x="548" y="0" type="line"/>
      <point x="31" y="0" type="line"/>
      <point x="31" y="31" type="line"/>
      <point x="56" y="34" type="line" smooth="yes"/>
      <point x="108" y="41"/>
      <point x="121" y="62"/>
      <point x="121" y="144" type="curve" smooth="yes"/>
    </contour>
  </outline>
</glyph>
<glyph name="lslash" format="1">
  <advance width="320"/>
  <unicode hex="0142"/>
  <outline>
    <contour>
      <point x="204" y="370" type="line"/>
      <point x="204" y="115" type="line" smooth="yes"/>
      <point x="204" y="60"/>
      <point x="221" y="37"/>
      <point x="266" y="32" type="curve"/>
      <point x="289" y="30" type="line"/>
      <point x="289" y="0" type="line"/>
      <point x="23" y="0" type="line"/>
      <point x="23" y="30" type="line"/>
      <point x="47" y="32" type="line"/>
      <point x="92" y="37"/>
      <point x="109" y="60"/>
      <point x="109" y="115" type="curve" smooth="yes"/>
      <point x="109" y="317" type="line"/>
      <point x="20" y="252" type="line"/>
      <point x="20" y="301" type="line"/>
      <point x="109" y="366" type="line"/>
      <point x="109" y="538" type="line" smooth="yes"/>
      <point x="109" y="627"/>
      <point x="98" y="645"/>
      <point x="44" y="650" type="curve" smooth="yes"/>
      <point x="23" y="652" type="line"/>
      <point x="23" y="683" type="line"/>
      <point x="91" y="691"/>
      <point x="114" y="697"/>
      <point x="164" y="717" type="curve"/>
      <point x="204" y="717" type="line"/>
      <point x="204" y="419" type="line"/>
      <point x="291" y="482" type="line"/>
      <point x="291" y="434" type="line"/>
    </contour>
  </outline>
</glyph>
<glyph name="nacute" format="1">
  <advance width="660"/>
  <unicode hex="0144"/>
  <outline>
    <contour>
      <point x="205" y="485" type="line"/>
      <point x="205" y="406" type="line"/>
      <point x="276" y="469"/>
      <point x="335" y="494"/>
      <point x="411" y="494" type="curve" smooth="yes"/>
      <point x="505" y="494"/>
      <point x="562" y="445"/>
      <point x="562" y="362" type="curve" smooth="yes"/>
      <point x="562" y="115" type="line" smooth="yes"/>
      <point x="562" y="60"/>
      <point x="580" y="37"/>
      <point x="624" y="32" type="curve"/>
      <point x="649" y="30" type="line"/>
      <point x="649" y="0" type="line"/>
      <point x="380" y="0" type="line"/>
      <point x="380" y="30" type="line"/>
      <point x="405" y="32" type="line"/>
      <point x="449" y="37"/>
      <point x="467" y="60"/>
      <point x="467" y="115" type="curve" smooth="yes"/>
      <point x="467" y="346" type="line" smooth="yes"/>
      <point x="467" y="411"/>
      <point x="437" y="446"/>
      <point x="382" y="446" type="curve" smooth="yes"/>
      <point x="326" y="446"/>
      <point x="267" y="418"/>
      <point x="205" y="362" type="curve"/>
      <point x="205" y="115" type="line" smooth="yes"/>
      <point x="205" y="60"/>
      <point x="223" y="37"/>
      <point x="267" y="32" type="curve"/>
      <point x="292" y="30" type="line"/>
      <point x="292" y="0" type="line"/>
      <point x="23" y="0" type="line"/>
      <point x="23" y="30" type="line"/>
      <point x="48" y="32" type="line"/>
      <point x="92" y="37"/>
      <point x="110" y="60"/>
      <point x="110" y="115" type="curve" smooth="yes"/>
      <point x="110" y="350" type="line" smooth="yes"/>
      <point x="110" y="410"/>
      <point x="95" y="429"/>
      <point x="44" y="433" type="curve" smooth="yes"/>
      <point x="20" y="435" type="line"/>
      <point x="20" y="465" type="line"/>
      <point x="76" y="469"/>
      <point x="109" y="473"/>
      <point x="171" y="485" type="curve"/>
    </contour>
    <contour>
      <point x="293" y="564" type="line"/>
      <point x="288" y="578" type="line"/>
      <point x="383" y="646" type="line"/>
      <point x="412" y="668"/>
      <point x="439" y="680"/>
      <point x="459" y="680" type="curve" smooth="yes"/>
      <point x="479" y="680"/>
      <point x="494" y="664"/>
      <point x="494" y="643" type="curve" smooth="yes"/>
      <point x="494" y="617"/>
      <point x="475" y="602"/>
      <point x="432" y="593" type="curve" smooth="yes"/>
    </contour>
  </outline>
</glyph>
<glyph name="napostrophe" format="1">
  <advance width="660"/>
  <unicode hex="0149"/>
  <outline>
    <contour>
      <point x="108" y="503" type="curve"/>
      <point x="97" y="525" type="line"/>
      <point x="139" y="552"/>
      <point x="156" y="578"/>
      <point x="159" y="617" type="curve"/>
      <point x="145" y="606"/>
      <point x="138" y="603"/>
      <point x="128" y="603" type="curve" smooth="yes"/>
      <point x="96" y="603"/>
      <point x="74" y="627"/>
      <point x="74" y="660" type="curve" smooth="yes"/>
      <point x="74" y="693"/>
      <point x="102" y="721"/>
      <point x="136" y="721" type="curve" smooth="yes"/>
      <point x="175" y="721"/>
      <point x="206" y="684"/>
      <point x="206" y="639" type="curve" smooth="yes"/>
      <point x="206" y="582"/>
      <point x="170" y="532"/>
    </contour>
    <contour>
      <point x="205" y="485" type="line"/>
      <point x="205" y="406" type="line"/>
      <point x="276" y="469"/>
      <point x="335" y="494"/>
      <point x="411" y="494" type="curve" smooth="yes"/>
      <point x="505" y="494"/>
      <point x="562" y="445"/>
      <point x="562" y="362" type="curve" smooth="yes"/>
      <point x="562" y="115" type="line" smooth="yes"/>
      <point x="562" y="60"/>
      <point x="580" y="37"/>
      <point x="624" y="32" type="curve"/>
      <point x="649" y="30" type="line"/>
      <point x="649" y="0" type="line"/>
      <point x="380" y="0" type="line"/>
      <point x="380" y="30" type="line"/>
      <point x="405" y="32" type="line"/>
      <point x="449" y="37"/>
      <point x="467" y="60"/>
      <point x="467" y="115" type="curve" smooth="yes"/>
      <point x="467" y="346" type="line" smooth="yes"/>
      <point x="467" y="411"/>
      <point x="437" y="446"/>
      <point x="382" y="446" type="curve" smooth="yes"/>
      <point x="326" y="446"/>
      <point x="267" y="418"/>
      <point x="205" y="362" type="curve"/>
      <point x="205" y="115" type="line" smooth="yes"/>
      <point x="205" y="60"/>
      <point x="223" y="37"/>
      <point x="267" y="32" type="curve"/>
      <point x="292" y="30" type="line"/>
      <point x="292" y="0" type="line"/>
      <point x="23" y="0" type="line"/>
      <point x="23" y="30" type="line"/>
      <point x="48" y="32" type="line"/>
      <point x="92" y="37"/>
      <point x="110" y="60"/>
      <point x="110" y="115" type="curve" smooth="yes"/>
      <point x="110" y="350" type="line" smooth="yes"/>
      <point x="110" y="410"/>
      <point x="95" y="429"/>
      <point x="44" y="433" type="curve" smooth="yes"/>
      <point x="20" y="435" type="line"/>
      <point x="20" y="465" type="line"/>
      <point x="76" y="469"/>
      <point x="109" y="473"/>
      <point x="171" y="485" type="curve"/>
    </contour>
  </outline>
</glyph>
<glyph name="Obreve" format="1">
  <advance width="800"/>
  <unicode hex="014E"/>
  <outline>
    <contour>
      <point x="237" y="882" type="curve"/>
      <point x="260" y="900" type="line"/>
      <point x="302" y="866"/>
      <point x="350" y="848"/>
      <point x="402" y="848" type="curve" smooth="yes"/>
      <point x="452" y="848"/>
      <point x="508" y="869"/>
      <point x="542" y="900" type="curve"/>
      <point x="565" y="882" type="line"/>
      <point x="534" y="821"/>
      <point x="469" y="781"/>
      <point x="400" y="781" type="curve" smooth="yes"/>
      <point x="326" y="781"/>
      <point x="267" y="818"/>
    </contour>
    <contour>
      <point x="404" y="694" type="curve" smooth="yes"/>
      <point x="609" y="694"/>
      <point x="758" y="544"/>
      <point x="758" y="338" type="curve" smooth="yes"/>
      <point x="758" y="254"/>
      <point x="733" y="178"/>
      <point x="684" y="118" type="curve" smooth="yes"/>
      <point x="618" y="37"/>
      <point x="510" y="-13"/>
      <point x="400" y="-13" type="curve" smooth="yes"/>
      <point x="198" y="-13"/>
      <point x="44" y="141"/>
      <point x="44" y="343" type="curve" smooth="yes"/>
      <point x="44" y="539"/>
      <point x="203" y="694"/>
    </contour>
    <contour>
      <point x="402" y="646" type="curve" smooth="yes"/>
      <point x="257" y="646"/>
      <point x="162" y="526"/>
      <point x="162" y="342" type="curve" smooth="yes"/>
      <point x="162" y="155"/>
      <point x="255" y="35"/>
      <point x="401" y="35" type="curve" smooth="yes"/>
      <point x="546" y="35"/>
      <point x="640" y="152"/>
      <point x="640" y="332" type="curve" smooth="yes"/>
      <point x="640" y="525"/>
      <point x="548" y="646"/>
    </contour>
  </outline>
</glyph>
<glyph name="obreve" format="1">
  <advance width="560"/>
  <unicode hex="014F"/>
  <outline>
    <contour>
      <point x="117" y="686" type="curve"/>
      <point x="140" y="704" type="line"/>
      <point x="182" y="670"/>
      <point x="230" y="652"/>
      <point x="282" y="652" type="curve" smooth="yes"/>
      <point x="332" y="652"/>
      <point x="388" y="673"/>
      <point x="422" y="704" type="curve"/>
      <point x="445" y="686" type="line"/>
      <point x="414" y="625"/>
      <point x="349" y="585"/>
      <point x="280" y="585" type="curve" smooth="yes"/>
      <point x="206" y="585"/>
      <point x="147" y="622"/>
    </contour>
    <contour>
      <point x="279" y="494" type="curve" smooth="yes"/>
      <point x="357" y="494"/>
      <point x="424" y="466"/>
      <point x="466" y="416" type="curve"/>
      <point x="503" y="370"/>
      <point x="526" y="304"/>
      <point x="526" y="239" type="curve" smooth="yes"/>
      <point x="526" y="91"/>
      <point x="428" y="-9"/>
      <point x="283" y="-9" type="curve" smooth="yes"/>
      <point x="134" y="-9"/>
      <point x="37" y="90"/>
      <point x="37" y="241" type="curve" smooth="yes"/>
      <point x="37" y="311"/>
      <point x="65" y="385"/>
      <point x="107" y="429" type="curve" smooth="yes"/>
      <point x="147" y="470"/>
      <point x="209" y="494"/>
    </contour>
    <contour>
      <point x="280" y="454" type="curve" smooth="yes"/>
      <point x="195" y="454"/>
      <point x="139" y="371"/>
      <point x="139" y="243" type="curve" smooth="yes"/>
      <point x="139" y="108"/>
      <point x="192" y="31"/>
      <point x="284" y="31" type="curve" smooth="yes"/>
      <point x="372" y="31"/>
      <point x="424" y="107"/>
      <point x="424" y="234" type="curve" smooth="yes"/>
      <point x="424" y="371"/>
      <point x="370" y="454"/>
    </contour>
  </outline>
</glyph>
<glyph name="OE" format="1">
  <advance width="1240"/>
  <unicode hex="0152"/>
  <outline>
    <contour>
      <point x="633" y="681" type="line"/>
      <point x="1098" y="681" type="line"/>
      <point x="1176" y="508" type="line"/>
      <point x="1143" y="495" type="line"/>
      <point x="1101" y="548"/>
      <point x="1078" y="570"/>
      <point x="1044" y="590" type="curve" smooth="yes"/>
      <point x="992" y="621"/>
      <point x="921" y="638"/>
      <point x="845" y="638" type="curve" smooth="yes"/>
      <point x="793" y="638"/>
      <point x="762" y="633"/>
      <point x="747" y="621" type="curve" smooth="yes"/>
      <point x="728" y="606"/>
      <point x="725" y="590"/>
      <point x="725" y="515" type="curve" smooth="yes"/>
      <point x="725" y="398" type="line"/>
      <point x="773" y="398" type="line" smooth="yes"/>
      <point x="832" y="398"/>
      <point x="866" y="406"/>
      <point x="885" y="422" type="curve"/>
      <point x="902" y="438"/>
      <point x="916" y="476"/>
      <point x="916" y="509" type="curve" smooth="yes"/>
      <point x="916" y="526" type="line"/>
      <point x="954" y="526" type="line"/>
      <point x="954" y="219" type="line"/>
      <point x="916" y="219" type="line"/>
      <point x="916" y="234" type="line" smooth="yes"/>
      <point x="916" y="273"/>
      <point x="899" y="316"/>
      <point x="876" y="334" type="curve" smooth="yes"/>
      <point x="857" y="348"/>
      <point x="824" y="355"/>
      <point x="772" y="355" type="curve" smooth="yes"/>
      <point x="725" y="355" type="line"/>
      <point x="725" y="143" type="line" smooth="yes"/>
      <point x="725" y="85"/>
      <point x="730" y="70"/>
      <point x="755" y="57" type="curve" smooth="yes"/>
      <point x="771" y="49"/>
      <point x="811" y="43"/>
      <point x="853" y="43" type="curve" smooth="yes"/>
      <point x="934" y="43"/>
      <point x="1009" y="67"/>
      <point x="1066" y="109" type="curve" smooth="yes"/>
      <point x="1100" y="135"/>
      <point x="1130" y="167"/>
      <point x="1180" y="233" type="curve"/>
      <point x="1214" y="218" type="line"/>
      <point x="1127" y="0" type="line"/>
      <point x="633" y="0" type="line"/>
      <point x="633" y="86" type="line"/>
      <point x="567" y="21"/>
      <point x="484" y="-13"/>
      <point x="392" y="-13" type="curve" smooth="yes"/>
      <point x="195" y="-13"/>
      <point x="44" y="141"/>
      <point x="44" y="341" type="curve" smooth="yes"/>
      <point x="44" y="541"/>
      <point x="196" y="694"/>
      <point x="394" y="694" type="curve" smooth="yes"/>
      <point x="482" y="694"/>
      <point x="565" y="662"/>
      <point x="633" y="603" type="curve"/>
    </contour>
    <contour>
      <point x="393" y="646" type="curve" smooth="yes"/>
      <point x="254" y="646"/>
      <point x="162" y="528"/>
      <point x="162" y="349" type="curve" smooth="yes"/>
      <point x="162" y="159"/>
      <point x="254" y="35"/>
      <point x="394" y="35" type="curve" smooth="yes"/>
      <point x="535" y="35"/>
      <point x="629" y="158"/>
      <point x="629" y="344" type="curve" smooth="yes"/>
      <point x="629" y="523"/>
      <point x="533" y="646"/>
    </contour>
  </outline>
</glyph>
<glyph name="Racute" format="1">
  <advance width="720"/>
  <unicode hex="0154"/>
  <outline>
    <contour>
      <point x="484" y="331" type="curve"/>
      <point x="650" y="96" type="line"/>
      <point x="681" y="56"/>
      <point x="708" y="40"/>
      <point x="757" y="31" type="curve"/>
      <point x="757" y="0" type="line"/>
      <point x="590" y="0" type="line"/>
      <point x="365" y="321" type="line"/>
      <point x="221" y="321" type="line"/>
      <point x="221" y="144" type="line" smooth="yes"/>
      <point x="221" y="63"/>
      <point x="235" y="39"/>
      <point x="286" y="34" type="curve" smooth="yes"/>
      <point x="322" y="31" type="line"/>
      <point x="322" y="0" type="line"/>
      <point x="31" y="0" type="line"/>
      <point x="31" y="31" type="line"/>
      <point x="56" y="34" type="line" smooth="yes"/>
      <point x="108" y="41"/>
      <point x="121" y="62"/>
      <point x="121" y="144" type="curve" smooth="yes"/>
      <point x="121" y="537" type="line" smooth="yes"/>
      <point x="121" y="619"/>
      <point x="108" y="640"/>
      <point x="56" y="647" type="curve" smooth="yes"/>
      <point x="31" y="650" type="line"/>
      <point x="31" y="681" type="line"/>
      <point x="438" y="681" type="line" smooth="yes"/>
      <point x="582" y="681"/>
      <point x="669" y="616"/>
      <point x="669" y="509" type="curve" smooth="yes"/>
      <point x="669" y="457"/>
      <point x="647" y="410"/>
      <point x="607" y="378" type="curve" smooth="yes"/>
      <point x="574" y="351"/>
      <point x="546" y="340"/>
    </contour>
    <contour>
      <point x="221" y="364" type="line"/>
      <point x="389" y="364" type="line" smooth="yes"/>
      <point x="445" y="364"/>
      <point x="481" y="373"/>
      <point x="509" y="395" type="curve" smooth="yes"/>
      <point x="542" y="421"/>
      <point x="561" y="461"/>
      <point x="561" y="505" type="curve" smooth="yes"/>
      <point x="561" y="595"/>
      <point x="497" y="640"/>
      <point x="369" y="640" type="curve" smooth="yes"/>
      <point x="318" y="640"/>
      <point x="267" y="633"/>
      <point x="247" y="624" type="curve" smooth="yes"/>
      <point x="229" y="616"/>
      <point x="221" y="603"/>
      <point x="221" y="581" type="curve" smooth="yes"/>
    </contour>
    <contour>
      <point x="263" y="753" type="line"/>
      <point x="258" y="767" type="line"/>
      <point x="353" y="835" type="line"/>
      <point x="382" y="857"/>
      <point x="409" y="869"/>
      <point x="429" y="869" type="curve" smooth="yes"/>
      <point x="449" y="869"/>
      <point x="464" y="853"/>
      <point x="464" y="832" type="curve" smooth="yes"/>
      <point x="464" y="806"/>
      <point x="445" y="791"/>
      <point x="402" y="782" type="curve" smooth="yes"/>
    </contour>
  </outline>
</glyph>
